<?xml version="1.0" encoding="utf-8"?>
<!-- Generator: Adobe Illustrator 27.2.0, SVG Export Plug-In . SVG Version: 6.00 Build 0)  -->
<svg version="1.1" id="Layer_1" xmlns="http://www.w3.org/2000/svg" xmlns:xlink="http://www.w3.org/1999/xlink" x="0px" y="0px"
	 viewBox="0 0 170.71 31.04" style="enable-background:new 0 0 170.71 31.04;" xml:space="preserve">
<g id="Logo">
	<g>
		<g>
			<path d="M170.71,24h-23.1v-0.76h23.1V24z M159.15,19.6l2.18-2.08l0.9,0.9l-2.34,1.99c-0.19,0.24-0.33,0.62-0.45,0.85h-1.73
				C157.8,20.61,158.7,19.81,159.15,19.6L159.15,19.6z M151.89,6.31c-0.07,0.02-1.8,0.5-1.8,0.5s-0.8,0.31-1.16,0.54
				s-0.76,0.64-0.78,0.85l1.54,0.35c0.24-0.26,0.49-0.54,0.73-0.73l0.35-0.17l1.27-1.3C152.06,6.36,152.01,6.29,151.89,6.31
				L151.89,6.31z M162.34,10.54c-0.99-1.09-1.82-2.1-2.62-3.31c0.52-0.99,0.9-3.62,0.66-4.63c-0.09-0.31-0.94-1.44-1.09-1.61
				c-0.21-0.22-0.9-0.99-1.23-0.99c-0.07,0-0.14,0.02-0.17,0.05l0.1,0.88c-0.92,0.59-2.13,1.4-3.21,2.2c0,0.31,0.02,0.78,0.05,0.94
				c0.17,0.14,0.35,0.26,0.57,0.33c0.43-0.07,1.75-0.4,2.1-0.35L156.19,6l-1.49,1.06l-1.87-0.59c-0.12-0.02-0.24,0-0.31,0.1
				l-1.37,1.49c-0.07,0.07-0.12,0.14-0.12,0.31l-0.05,1.68c0,0-0.02,0.26-0.02,0.54c0,1.2,0.54,1.77,0.54,1.77l0.9-1.3
				c-0.12-0.19-0.33-0.71-0.38-0.94c0-0.05,0.02-1.44,0.02-1.44l0.88-0.64l2.32,1.63c0,0,0.64,1.18,1.25,1.89
				c0.4,0.5,2.41,1.84,3.38,2.41c0.09,0.52,0.31,1.37,0.47,1.82l2.84,2.91l-1.68,2.1c-0.59,0.38-1.16,1.06-1.11,1.7h1.94l0.21-1.11
				l2.32-2.58c0.12-0.14,0.12-0.21,0.05-0.43l-0.66-2.22c0.33-0.38,1.04-1.32,1.04-2.46C165.29,11.66,163.05,11.14,162.34,10.54
				L162.34,10.54z M165.98,13.97c-0.14-0.54-0.35-1.16-0.52-1.47c0,0,0.1-0.1,0.28,0.02c0.19,0.12,1.4,0.94,1.4,0.94
				c0.61,0.9,0.99,4.59,1.02,5.91c-0.57-0.26-1.37-0.71-1.89-1.21L165.98,13.97z"/>
		</g>
		<g>
			<path d="M105.98,13.17c0-1.42-0.45-2.53-1.68-2.53c-1.23,0-1.73,1.11-1.73,2.53v9.34h1.44V24h-7.9v-1.49h1.46V9.65h-1.46V8.2
				h6.22v2.41h0.07c0.59-1.32,1.96-2.72,4.16-2.72c2.32,0,3.73,1.42,4.19,3.29c0.17,0.73,0.21,1.94,0.21,2.55v8.77h1.89v1.49h-6.88
				L105.98,13.17L105.98,13.17z M74.09,13.17c0-1.42-0.45-2.53-1.68-2.53s-1.73,1.11-1.73,2.53v9.34h1.44V24h-7.9v-1.49h1.46V9.65
				h-1.46V8.2h6.22v2.41h0.07c0.59-1.32,1.96-2.72,4.16-2.72c2.32,0,3.74,1.42,4.18,3.29c0.17,0.73,0.21,1.94,0.21,2.55v8.77h1.89
				v1.49h-6.88V13.17z M119.55,9.65v11.68c0,0.8,0.52,0.99,1.02,0.99c0.47,0,0.92-0.16,0.92-0.16v1.44c0,0-0.95,0.59-3.05,0.59
				c-2.46,0-3.9-1.21-3.9-3.76V9.65h-1.68V8.58c1.87-1.49,4.04-3.19,5.77-4.63h0.92V8.2h2.41v1.44
				C121.96,9.65,119.55,9.65,119.55,9.65z M21.02,0c0,0,3.81,3.81,5.56,5.77v1.49c-1.63-1.73-5.01-3.17-8.16-3.17
				C11.3,4.09,6.83,9.46,6.83,16.1c0,6.62,4.23,11.98,11.58,11.98c3.66,0,6.6-1.73,8.23-3.5V26c-2.22,3.05-6.29,5.03-11.35,5.03
				C6.24,31.04,0,24.47,0,16.1C0,7.73,6.93,1.18,15.3,1.18c2.13,0,4.04,0.35,5.72,0.94L21.02,0L21.02,0z M93.83,19.79
				c-0.71,0.83-1.82,1.47-3.47,1.47c-1.44,0-3.67-0.8-3.76-4.47h8.44c0.02-0.28,0.05-0.85,0.05-1.14c0-4.44-1.82-7.75-6.57-7.75
				c-4.77,0-7.21,3.67-7.21,8.23c0,4.56,2.43,8.16,7.21,8.16c3.07,0,5.01-1.44,6.15-3.71L93.83,19.79z M86.6,15.25
				c0-4.16,0.33-5.72,1.75-5.72c1.44,0,1.73,1.51,1.77,5.72H86.6z M16.9,16.05c0-4.82,0.45-6.95,2.08-6.95s2.08,2.13,2.08,6.95
				c0,4.82-0.45,6.95-2.08,6.95C17.35,23,16.9,20.87,16.9,16.05 M11.04,16.1c0,4.77,2.93,8.65,7.94,8.65c5.01,0,7.94-3.88,7.94-8.65
				c0-4.78-2.93-8.65-7.94-8.65C13.97,7.45,11.04,11.32,11.04,16.1 M38.11,13.17c0-1.42-0.45-2.53-1.68-2.53s-1.73,1.11-1.73,2.53
				v9.34h1.44V24h-7.9v-1.49h1.47V9.65h-1.47V8.2h6.22v2.41h0.07C35.13,9.29,36.5,7.9,38.7,7.9c2.32,0,3.74,1.42,4.19,3.29
				c0.17,0.73,0.21,1.94,0.21,2.55v8.77h1.89v1.49h-6.88C38.11,23.99,38.11,13.17,38.11,13.17z M55.99,4.02
				c0,1.4,1.25,2.32,3.05,2.32c1.8,0,3.05-0.92,3.05-2.32S60.84,1.7,59.04,1.7C57.25,1.7,55.99,2.62,55.99,4.02 M51.68,9.65v11.68
				c0,0.8,0.52,0.99,1.02,0.99c0.47,0,0.92-0.16,0.92-0.16v1.44c0,0-0.94,0.59-3.05,0.59c-2.46,0-3.9-1.21-3.9-3.76V9.65h-1.68V8.58
				c1.87-1.49,4.04-3.19,5.77-4.63h0.92V8.2h1.94v1.44C53.62,9.65,51.68,9.65,51.68,9.65z M143.9,22.5h1.94v1.49h-6.93V3.81h-1.73
				V2.36h6.71L143.9,22.5L143.9,22.5z M130.57,16.17c-0.14-0.14-0.45-0.33-1.09-0.33c-1.49,0-1.82,1.47-1.82,2.98
				c0,1.49,0.45,2.69,1.73,2.69c0.61,0,0.99-0.26,1.18-0.47L130.57,16.17L130.57,16.17L130.57,16.17z M130.78,22.1h-0.07
				c-0.92,1.3-2.15,2.18-4.04,2.18c-2.58,0-4.18-2.2-4.18-4.82c0-3.17,2.25-5.18,5.84-5.18c1.47,0,2.25,0.33,2.25,0.33v-0.99
				c0-1.91-1.18-2.93-2.91-2.93c-2.39,0-3.62,1.85-3.62,1.85l-0.87-1.06c1.58-2.46,4.02-3.57,6.29-3.57c3.83,0,6.1,2.27,6.1,5.72
				v8.89h1.61V24h-6.38L130.78,22.1L130.78,22.1z M55.07,24v-1.49h1.44V9.65h-1.44V8.2h6.43v14.3h1.47V24H55.07z"/>
		</g>
	</g>
</g>
</svg>
