<?xml version="1.0" encoding="utf-8"?>
<!-- Generator: Adobe Illustrator 27.2.0, SVG Export Plug-In . SVG Version: 6.00 Build 0)  -->
<svg version="1.1" id="Layer_1" xmlns="http://www.w3.org/2000/svg" xmlns:xlink="http://www.w3.org/1999/xlink" x="0px" y="0px"
	 viewBox="0 0 615.12 113.37" style="enable-background:new 0 0 615.12 113.37;" xml:space="preserve">
<g>
	<g>
		<path d="M204.66,44.08V43.9c4.03-0.54,7.1-2.35,7.1-7.06c0-5.93-4.71-8.55-10.5-8.55h-15.84v3.3c2.13,0,2.9,0.59,2.9,3.17v23.26
			c0,1,0.81,1.81,1.81,1.81h12.08c7.83,0,10.63-2.99,10.63-8.01C212.85,47.29,210.31,44.62,204.66,44.08 M196.6,31.91h1.81
			c3.21,0,4.52,1.31,4.52,5.16c0,4.34-1.18,5.2-4.34,5.2h-1.99V31.91z M199.27,56.47h-2.67V45.75h2.99c3.12,0,4.57,1.54,4.57,5.38
			C204.16,55.48,202.57,56.47,199.27,56.47 M241.15,29.99l0.44,7.21h-3.94c-0.99-3.89-1.27-5.29-4.25-5.29h-1.31v27.92h-8.28V31.91
			h-1.31c-2.99,0-3.26,1.4-4.25,5.29h-3.94l0.44-7.21c0.06-0.95,0.85-1.7,1.81-1.7h22.79C240.3,28.29,241.09,29.03,241.15,29.99
			 M262.85,60.05c-6.74,18.04-19.12,34.2-34.04,44.77c-5.42-2-10.49-4.25-15.24-6.72c12.51-6.03,28.6-19.91,38.09-41.9l0.2-0.46
			l-0.13-0.48c-3.65-13.98-4.48-26.28-2.6-38.5c3.62,1.06,7.08,2.3,10.38,3.71l0.2,0.09C257.52,33.16,258.6,45.51,262.85,60.05
			 M169.96,7.41c5.46,16.49,7.46,29.36,2.43,50.04c7.4,15.55,20.15,28.92,38.01,38.94l0.36-0.16c0.29-0.13,0.6-0.27,0.9-0.41
			c-11.71-6.25-26.54-19.54-35.46-40.19c3.94-15.11,4.66-28.13,2.24-41.41c10.43-3.14,21.68-4.91,33.4-5.04V9.17h1.44
			c0.05,0,0.1,0,0.14,0c0.76,0,1.52,0.01,2.27,0.02c16.9,0.25,31.9,3.1,44.61,8.48c0.57-2.66,1.28-5.34,2.14-8.06
			C247.64,3.47,230.94,0,213.26,0c-15.39,0-30.03,2.63-43.32,7.38L169.96,7.41z M169.55,58.22l-0.22-0.46l0.12-0.5
			c5.01-20.25,3.09-32.81-2.22-48.88c-1.05,0.4-2.1,0.81-3.13,1.24c5.27,16.63,5.04,31.72-0.43,50.43
			c8.98,24.01,27.93,44.7,49.59,53.32c4.34-1.72,8.56-3.94,12.62-6.56C198.27,96.17,179.32,79.12,169.55,58.22 M304.48,28.29
			l0.5,8.46h-3.41c-0.91-3.91-1.23-5.23-4.14-5.23h-1.96v23.05c0,2.64,0.86,3.23,3.59,3.23v2.09h-14.32V57.8
			c2.73,0,3.59-0.59,3.59-3.23V31.52h-1.95c-2.96,0-3.23,1.32-4.14,5.23h-3.46l0.5-8.46H304.48z M324.35,45.84
			c2.23,0.59,3.96,1.86,4.96,3.23c1.18,1.68,2.05,3.23,3.45,6.09c0.86,1.73,1.27,2.55,3.46,2.64v2.09h-9.18
			c-2-4.68-2.64-6.09-4.41-9.41c-1.59-2.86-2.55-3.64-4.86-3.86v7.96c0,2.55,0.77,3.23,3.09,3.23v2.09h-13.32V57.8
			c2.36,0,3.09-0.64,3.09-3.23V33.75c0-2.59-0.73-3.23-3.09-3.27v-2.18h14.41c6.55,0,11.18,2.5,11.18,9.09c0,5.59-3.86,8-8.78,8.28
			L324.35,45.84L324.35,45.84z M320.58,31.52h-2.82v11.91h2.73c3.41,0,5.05-1.23,5.05-6C325.54,33.07,324.04,31.52,320.58,31.52
			 M354.26,51.39h-9.73l-1.14,3.91c-0.14,0.5-0.18,0.86-0.18,1.14c0,1.14,0.91,1.27,2.91,1.36v2.09h-10.05V57.8
			c1.95-0.23,2.59-0.64,3.36-3.05l8.59-26.46h5.73l9.05,26.46c0.73,2.09,1.18,2.82,3.05,3.05v2.09h-12.91V57.8
			c2.05-0.09,2.77-0.45,2.77-1.36c0-0.32-0.09-0.73-0.23-1.14L354.26,51.39z M345.49,48.02h7.68l-2.45-7.68
			c-0.82-2.55-1.18-4.23-1.36-5.14h-0.23c-0.23,0.91-0.59,2.46-1.41,5.23L345.49,48.02z M390.12,33.75c0-2.59-0.73-3.23-3.14-3.27
			v-2.18h10v2.18c-2.36,0.05-3.05,0.68-3.05,3.27v26.14h-5.09l-11.14-17.28c-2.14-3.32-3.32-5.77-3.77-6.77h-0.18
			c0.14,1.04,0.41,4.05,0.41,6.96v11.77c0,2.59,0.73,3.23,3.14,3.23v2.09h-10.14V57.8c2.37,0,3.09-0.64,3.09-3.23V33.75
			c0-2.59-0.73-3.23-3.09-3.27v-2.18h10.5l9.64,15.14c1.41,2.23,2.5,4.59,3,5.91h0.23c-0.14-1.05-0.41-4.14-0.41-6.78V33.75z
			 M400.62,57.94v-6.05h4.77c0.45,4.18,2.23,5.91,5.73,5.91c3.41,0,5.37-1.59,5.37-5.05c0-2.82-1.23-4.23-4.87-5.23l-3.23-0.86
			c-4.77-1.27-7.55-3.68-7.55-9.09c0-6.46,4.32-9.82,10.96-9.82c4.91,0,7.86,1.36,9.37,2.23v6.27h-4.64
			c-0.41-3.41-1.59-5.59-5.27-5.59c-3,0-4.46,1.68-4.46,4.36c0,2.45,1.09,3.91,4.36,4.73l3.09,0.77c5.14,1.32,8.5,4.14,8.5,9.77
			c0,6.55-4.32,10.19-12.05,10.19C405.48,60.48,402.67,59.12,400.62,57.94 M429.66,33.75c0-2.59-0.73-3.23-3.09-3.27v-2.18h13.37
			v2.18c-2.41,0.05-3.14,0.68-3.14,3.27v20.82c0,2.59,0.73,3.23,3.14,3.23v2.09h-13.37V57.8c2.36,0,3.09-0.64,3.09-3.23V33.75z
			 M453.71,56.84h4.27c2.95,0,4.45-1.32,5.32-5.68h3.5l-0.64,8.73h-22.69V57.8c2.36,0,3.09-0.64,3.09-3.23V33.75
			c0-2.59-0.73-3.23-3.09-3.27v-2.18h13.41v2.18c-2.45,0.05-3.18,0.68-3.18,3.27L453.71,56.84L453.71,56.84z M475.53,59.89
			l-9.09-26.55c-0.77-2.27-1.27-2.68-3-2.91v-2.14h13.1v2.14c-1.86,0-2.64,0.64-2.64,1.68c0,0.27,0.09,0.68,0.23,1.04l4.45,14.69
			c0.59,2.04,1.14,4.73,1.32,5.86h0.27c0.14-1.09,0.68-3.68,1.36-5.96l4.41-14.6c0.14-0.36,0.18-0.68,0.18-1.04
			c0-1.09-0.82-1.68-2.77-1.68v-2.14h10.1v2.14c-1.91,0.23-2.59,0.59-3.36,3l-8.73,26.46L475.53,59.89L475.53,59.89z M508.75,51.39
			h-9.73l-1.14,3.91c-0.14,0.5-0.18,0.86-0.18,1.14c0,1.14,0.91,1.27,2.91,1.36v2.09h-10.05V57.8c1.95-0.23,2.59-0.64,3.36-3.05
			l8.59-26.46h5.73l9.05,26.46c0.73,2.09,1.18,2.82,3.05,3.05v2.09h-12.91V57.8c2.05-0.09,2.77-0.45,2.77-1.36
			c0-0.32-0.09-0.73-0.23-1.14L508.75,51.39z M499.98,48.02h7.68l-2.45-7.68c-0.82-2.55-1.18-4.23-1.36-5.14h-0.23
			c-0.23,0.91-0.59,2.46-1.41,5.23L499.98,48.02z M544.62,33.75c0-2.59-0.73-3.23-3.14-3.27v-2.18h10v2.18
			c-2.36,0.05-3.05,0.68-3.05,3.27v26.14h-5.09l-11.14-17.28c-2.14-3.32-3.32-5.77-3.78-6.77h-0.18c0.14,1.04,0.41,4.05,0.41,6.96
			v11.77c0,2.59,0.73,3.23,3.14,3.23v2.09h-10.14V57.8c2.36,0,3.09-0.64,3.09-3.23V33.75c0-2.59-0.73-3.23-3.09-3.27v-2.18h10.5
			l9.64,15.14c1.41,2.23,2.5,4.59,3,5.91h0.23c-0.14-1.05-0.41-4.14-0.41-6.78L544.62,33.75L544.62,33.75z M557.93,33.75
			c0-2.59-0.73-3.23-3.09-3.27v-2.18h13.37v2.18c-2.41,0.05-3.14,0.68-3.14,3.27v20.82c0,2.59,0.73,3.23,3.14,3.23v2.09h-13.37V57.8
			c2.37,0,3.09-0.64,3.09-3.23V33.75z M587.66,51.39h-9.73l-1.14,3.91c-0.14,0.5-0.18,0.86-0.18,1.14c0,1.14,0.91,1.27,2.91,1.36
			v2.09h-10.05V57.8c1.95-0.23,2.59-0.64,3.36-3.05l8.59-26.46h5.73l9.05,26.46c0.73,2.09,1.18,2.82,3.05,3.05v2.09h-12.91V57.8
			c2.05-0.09,2.77-0.45,2.77-1.36c0-0.32-0.09-0.73-0.23-1.14L587.66,51.39z M578.89,48.02h7.68l-2.46-7.68
			c-0.82-2.55-1.18-4.23-1.36-5.14h-0.23c-0.23,0.91-0.59,2.46-1.41,5.23L578.89,48.02z M600.98,32.51c0-4.28,3.17-7.15,7.07-7.15
			c3.9,0,7.07,2.87,7.07,7.15c0,4.32-3.05,7.13-7.07,7.13C604.03,39.65,600.98,36.84,600.98,32.51 M614.25,32.53
			c0-3.96-2.75-6.4-6.2-6.4s-6.2,2.44-6.2,6.4c0,3.88,2.75,6.36,6.2,6.36S614.25,36.41,614.25,32.53 M607.99,36.66h-3.6v-0.46
			c0.95-0.04,1.09-0.36,1.09-1.25v-4.87c0-0.93-0.02-1.23-1.09-1.25v-0.5h3.35c1.88,0,3.15,0.47,3.15,2.24
			c0,1.7-0.93,2.14-2.48,2.18v0.08c0.61,0.22,1.17,0.67,1.6,1.33c0.18,0.3,0.36,0.67,0.69,1.25c0.34,0.63,0.44,0.75,1.23,0.77v0.49
			h-2.12c-0.34-0.77-0.75-1.53-1.05-2.1c-0.71-1.29-0.91-1.72-2.02-1.74v2.12c0,1.03,0.2,1.23,1.25,1.25L607.99,36.66L607.99,36.66z
			 M607.38,28.96h-0.65v3.27h0.91c1.41,0,1.9-0.38,1.9-1.68C609.54,29.44,609.08,28.96,607.38,28.96 M0,57.8
			c2.37,0,3.09-0.64,3.09-3.23V33.75c0-2.59-0.73-3.23-3.09-3.27v-2.18h14.6c6.46,0,10.77,2.68,10.77,8.37c0,4.27-2.59,6.27-6.73,7
			v0.18c5.5,0.59,7.96,3.45,7.96,7.82c0,5.37-3.5,8.23-10.77,8.23H0V57.8z M13.05,42.3c3.55,0,4.77-1.14,4.77-5.32
			c0-4.05-1.41-5.46-4.96-5.46h-2.64V42.3H13.05z M13.82,56.84c3.77,0,5.28-1.27,5.28-5.73c0-4.09-1.45-5.68-5.27-5.68h-3.59v11.41
			H13.82z M46.69,51.39h-9.73l-1.14,3.91c-0.14,0.5-0.18,0.86-0.18,1.14c0,1.14,0.91,1.27,2.91,1.36v2.09H28.5V57.8
			c1.95-0.23,2.59-0.64,3.36-3.05l8.59-26.46h5.73l9.05,26.46c0.73,2.09,1.18,2.82,3.05,3.05v2.09H45.37V57.8
			c2.05-0.09,2.77-0.45,2.77-1.36c0-0.32-0.09-0.73-0.23-1.14L46.69,51.39z M37.91,48.02h7.68l-2.46-7.68
			c-0.82-2.55-1.18-4.23-1.36-5.14h-0.23c-0.23,0.91-0.59,2.46-1.41,5.23L37.91,48.02z M82.55,33.75c0-2.59-0.73-3.23-3.14-3.27
			v-2.18h10v2.18c-2.36,0.05-3.04,0.68-3.04,3.27v26.14h-5.09L70.14,42.61c-2.14-3.32-3.32-5.77-3.77-6.77h-0.18
			c0.14,1.04,0.41,4.05,0.41,6.96v11.77c0,2.59,0.73,3.23,3.14,3.23v2.09H59.59V57.8c2.37,0,3.09-0.64,3.09-3.23V33.75
			c0-2.59-0.73-3.23-3.09-3.27v-2.18h10.5l9.64,15.14c1.41,2.23,2.5,4.59,3,5.91h0.23c-0.14-1.05-0.41-4.14-0.41-6.78
			C82.55,42.57,82.55,33.75,82.55,33.75z M92.86,44.52c0-11.55,5.96-16.78,14.69-16.78c4.46,0,7.55,0.86,9.73,2.27v6.18h-4.91
			c-0.73-3.45-1.77-5.23-4.91-5.23c-4.27,0-6.64,2.91-6.64,13.28c0,11,2.73,13.09,6.64,13.09c3.59,0,4.77-1.68,5.36-5.41h4.68v6
			c-1.86,1.36-5.77,2.5-10.32,2.5C97.91,60.44,92.86,54.75,92.86,44.52 M137.18,51.39h-9.73l-1.14,3.91
			c-0.14,0.5-0.18,0.86-0.18,1.14c0,1.14,0.91,1.27,2.91,1.36v2.09H119V57.8c1.96-0.23,2.59-0.64,3.36-3.05l8.59-26.46h5.73
			l9.05,26.46c0.73,2.09,1.18,2.82,3.05,3.05v2.09h-12.91V57.8c2.05-0.09,2.77-0.45,2.77-1.36c0-0.32-0.09-0.73-0.23-1.14
			L137.18,51.39z M128.41,48.02h7.68l-2.46-7.68c-0.82-2.55-1.18-4.23-1.36-5.14h-0.23c-0.23,0.91-0.59,2.46-1.41,5.23L128.41,48.02
			z"/>
	</g>
</g>
</svg>
