<?xml version="1.0" encoding="UTF-8"?>
<svg id="Layer_1" data-name="Layer 1" xmlns="http://www.w3.org/2000/svg" viewBox="0 0 975.6 388">
  <defs>
    <style>
      .cls-1 {
        fill: none;
      }
    </style>
  </defs>
  <g id="Layer_1-2" data-name="Layer 1">
    <g>
      <path d="m155.2,388c-9.5-9.5-18.7-18.7-28.1-28.1,1-1,2.2-2.3,3.4-3.6,41.8-41.7,83.5-83.6,125.5-125.2,14.4-14.2,16.5-38.9,7.5-54.4-2.3-4-6.1-7.1-9.5-11.1-2.8,6.6-4.6,12.4-7.7,17.4-4.5,7.3-9.1,14.9-15,20.9-24.3,24.9-49.1,49.3-73.7,73.9-.6.6-1.2,1.1-1.5,1.3-9.4-9.4-18.6-18.6-28.9-28.9.8-.5,2.7-1.2,3.9-2.5,23.6-23.5,47.2-47,70.7-70.5,14.9-14.9,18.3-36.5,8.6-55-1.1-2.2-2.7-4.2-4.5-5.9-25.3-25.3-50.6-50.6-75.9-75.9-1-1-2-2.1-2.8-2.9,9.4-9.3,18.7-18.4,28.3-27.8.4.4,1.7,1.4,2.8,2.6,41.5,41.4,83,82.7,124.4,124.2,35.6,35.6,35.5,88.8-.1,124.4-41.4,41.4-82.9,82.8-124.4,124.2-.9,1-2,2-3,2.9Z"/>
      <path d="m107.4,56.4l28.4,28.4c-4.6,4.3-9.5,8.6-14.2,13.3-22.6,22.4-45.1,44.9-67.5,67.4-14.9,14.9-18.5,37.2-8.4,55.4,2.3,4.2,6.2,7.4,10.1,11.9,4.2-13.6,9.7-24.7,17.9-34.5.9-1,1.7-2,2.6-3,25-24.9,49.9-49.9,74.9-74.8.8-.8,1.7-1.5,2.3-2l27.7,27.7c-.9.9-2.1,2.3-3.5,3.7-23.9,23.9-47.8,47.7-71.8,71.6-13.6,13.6-16.7,38.2-6.7,54.7,1.6,2.6,4.1,4.8,6.3,7,7.6,7.6,15.3,15.1,22.8,22.5-9.6,9.5-18.6,18.5-28.1,27.8-.5-.5-1.7-1.3-2.7-2.3-24.4-24.3-48.9-48.6-73.2-73-29.5-29.6-32.8-78.8-6.4-111.3,11.7-14.4,25.7-27,38.8-40.2,15.7-15.9,31.6-31.5,47.4-47.3,1.1-1,2.2-1.9,3.3-3Z"/>
      <path d="m684,168.9h-56c-6.2,0-6.8.9-5.3,7.1,7.4,29.8,32.8,41.9,60.4,37.8,10.3-1.5,19.3-5.5,27.8-11.3s17.4-4.3,23.2,3.5c5.2,6.9,3.9,15.7-3.7,22-12.6,10.4-27.2,16.4-43.3,18.5-24,3.1-46.8-.6-67-14.5-24.2-16.5-36.4-40.1-38.6-69.1-1.6-21.3,2.6-41.2,14.4-59.2,14.6-22.2,35-35.9,61.4-40,24.5-3.8,46.5,2.3,65.4,18.4,12.7,10.8,20.8,25,25,41,2.8,10.6,4,21.8,5,32.8.8,8.1-4.6,13-12.7,13h-56Zm-17.4-26.4h0c13.3,0,26.7-.1,40,0,4.5.1,6.2-1.7,5.1-6-.7-3.1-1.3-6.2-2.3-9.2-8.3-25.3-32.8-38-57-29-17.4,6.5-25.9,20.5-30,37.7-1.3,5.6-.7,6.4,5.2,6.4,13.1.1,26.1.1,39,.1Z"/>
      <path d="m438.9,71.7h29.1c10.3,0,17.8,7.2,17.8,16.7-.1,9.1-7.8,16.3-17.7,16.4-8.3.1-16.7.1-25,0-2.9,0-4.5.7-3.7,4,.3,1.3.3,2.6.3,4v110.7c0,12-5.5,20.2-15.2,23-10.4,2.9-21.8-3.5-24.5-13.9-.8-3-1.2-6.2-1.2-9.3-.1-37.4-.1-74.8-.1-112.2v-6.2c-4.7,0-9.1.1-13.5,0-9.3-.3-15.5-6.1-17.1-15.6-1.1-6.5,3.9-14.4,11.3-16.8,2.9-1,6.2-.7,9.3-.9,3.1-.1,6.3,0,9.6,0,.4-7.7.7-14.9,1.3-22.2,2-23.8,12.6-40.7,35.8-46.9,12.6-3.4,25.2-3.1,37.8-.4,9.1,2,14.5,10.7,12.5,19.7-1.5,7-8.7,13.8-19.1,12.8-15.7-1.4-27,4.3-27.8,23.6,0,4.3.1,8.6.1,13.5Z"/>
      <path d="m549.1,125.3v101.7c0,14.7-14.2,24.2-27.7,18.8-7.6-3-12.7-11.6-12.7-21.4V25c0-11.5,6.5-19.9,16.9-22.1,11.5-2.4,23.3,6.8,23.5,18.7.2,15.8.1,31.6.1,47.4-.1,18.7-.1,37.5-.1,56.3Z"/>
      <path d="m943,84.7c-.1,7.4-2.9,12.6-7.4,17.1-46.7,46.4-93.4,92.9-140.2,139.3-8.2,8.1-20.5,8.3-28.5.5-8.2-7.9-8.3-20.7-.1-29,18.6-18.8,37.4-37.4,56.1-56.1,28.1-28.1,56.3-56.2,84.4-84.3,13.5-13.5,31.6-5.2,35.1,8.5.4,1.6.5,3.2.6,4Z"/>
      <path d="m802.6,155.9c0-3.1-.1-4.9,0-6.7.5-8.9-2.9-16.2-9-22.4-8.6-8.8-17.4-17.4-26.1-26.1-6.2-6.2-8.6-13.4-5.5-21.8,3.1-8.5,9.9-13.4,18.5-13.6,4.8-.1,10.6,2.4,14.2,5.7,10.3,9.2,19.9,19.2,29.5,29.1,9.4,9.7,9.5,25.3.2,35.1-5.7,6-11.7,11.8-17.6,17.6-1,.9-2.1,1.5-4.2,3.1Z"/>
      <path d="m872.5,194.9c0-7.1,2.8-13.3,7.5-18.4,5.5-5.8,11.2-11.4,16.9-16.9.9-.9,2.5-1.1,3.7-1.6.2,1.2.6,2.4.5,3.6-.8,9.7,2.5,17.9,9.3,24.7,8.6,8.6,17.2,17.2,25.8,25.7,6.1,6,8.4,13.1,5.6,21.3-2.9,8.3-9,13-17.7,13.9-5.9.6-11.1-1.2-15.4-5.4-9.8-9.7-19.6-19.5-29.3-29.3-4.4-4.6-6.9-11.1-6.9-17.6Z"/>
      <path d="m460.2,371.5c-18.1,0-32.6-13.3-32.6-30,0-18.4,13.8-32.5,31.8-32.5,17.6.1,31.9,13.9,31.9,30.9.1,17.5-13.8,31.6-31.1,31.6Zm-.6-48.9c-9.1,0-16.5,7.8-16.6,17.6-.1,9.9,7.5,18.1,16.7,18.1s16.4-8.2,16.4-17.9c-.2-9.8-7.6-17.8-16.5-17.8Z"/>
      <path d="m910,340.3c-.1,17.6-13.9,31.3-31.3,31.2-18.1-.1-32.3-13.5-32.2-30.3.1-18.4,14-32.3,32.2-32.1,17.5.1,31.4,13.9,31.3,31.2Zm-48.1-.1c0,10.2,7.2,18,16.7,18.1,9,0,16.4-8.1,16.3-17.9-.1-9.9-7.3-17.7-16.5-17.7-9.2-.2-16.4,7.5-16.5,17.5Z"/>
      <path d="m637.7,340.5v-25.9c0-2.3,0-4.4,3.2-4.3,8.8.3,17.6.1,26.4.9,9.2.8,15.4,6.3,19.6,14.3,11.4,21.6-2.5,44.9-26.8,44.9-6.2,0-12.3-.1-18.5.1-3.1.1-4.1-1.1-4-4.1.2-8.7.1-17.3.1-25.9Zm16.1,16.1c7,.5,13.7,1.4,18.2-5.3,3.8-5.5,3.7-16.5,0-21.9-4.5-6.6-11.1-6.2-18.2-5.5v32.7Z"/>
      <path d="m620.7,370.4c-3.2,0-6.1.4-8.8-.1-2.1-.4-4.8-1.6-5.9-3.2-5.8-8.5-11.1-17.3-16.6-26-1-1.6-2.1-3.2-4.3-4.4v33.4h-14.4v-59.7c3.5,0,6.9-.4,10.1.1,1.6.3,3.5,1.7,4.4,3.2,5.8,9.1,11.4,18.3,17.1,27.5,1,1.6,2.1,3,4.2,4v-34.5h14.3c-.1,19.7-.1,39.3-.1,59.7Z"/>
      <path d="m925.8,310.2c3.7,0,7.2-.3,10.6.1,1.3.1,2.8,1.5,3.6,2.7,6.2,9.8,12.2,19.8,18.4,29.6.8,1.3,1.8,2.5,3.7,3.4v-6.6c-.1-8.8-.4-17.6-.3-26.4,0-1,1.8-2.7,2.9-2.8,3.4-.4,6.9-.1,10.9-.1v60.2c-3.6,0-7,.3-10.4-.1-1.5-.2-3.1-1.7-4-3-5.9-9.1-11.6-18.2-17.3-27.3-.8-1.3-1.8-2.4-2.7-3.6-.4.2-.8.3-1.2.5v24.6q0,9.2-9.3,9.1h-4.8c-.1-20.1-.1-39.8-.1-60.3Z"/>
      <path d="m506.6,310.4h14.8v5.9c.2,11.6,0,23.3.6,34.9.3,5.9,5.6,8.7,10.8,6.5,4.1-1.7,4.5-5.5,4.5-9.2.1-10.8,0-21.6,0-32.4v-5.6h15v16.4c0,8.3.2,16.6-.3,24.9-.6,9.9-7.6,17.5-17.1,19.4-10.6,2.1-21.4-2.2-26-10.6-1.3-2.4-2.4-5.3-2.4-8,0-13.8.1-27.8.1-42.2Z"/>
      <path d="m757.2,370.4c-4.7,0-9.1.3-13.3-.2-1.5-.2-3.5-2.3-3.9-3.9-1-3.8-2.9-5.2-6.7-4.8-3,.3-6,.3-9,0-5-.5-8.8.3-9.7,6.2-.2,1-2.3,2.4-3.6,2.5-4.1.3-8.3.1-13.3.1,2.8-7.3,5.4-14,8-20.7,4.7-11.7,9.7-23.3,14-35.1,1.9-5.2,5.5-4.1,9.1-4.4,3.5-.3,5.2.9,6.6,4.3,6.7,17.5,13.8,34.9,20.7,52.3.5,1,.7,2.1,1.1,3.7Zm-35.8-21.1h12.7c-2-6.6-3.9-12.8-5.7-18.9-.5.1-.9.1-1.4.2-1.9,6.2-3.7,12.3-5.6,18.7Z"/>
      <path d="m396.9,347.4c0,6.7-.1,12.8,0,18.9.1,3-.8,4.3-4,4.1-3.3-.2-6.6,0-10.2,0v-59.8h32v12.8h-17.4v10.8c4.1,0,8.2.3,12.3-.1,4.3-.4,5.4,1.4,5.3,5.4-.3,9,.9,7.8-8.1,7.9-3.1.1-6,0-9.9,0Z"/>
      <path d="m791.4,370.1h-15.1v-46.4h-11.7v-13.3h38v13h-11.3c.1,15.9.1,31.1.1,46.7Z"/>
      <path d="m831,310.2v59.9h-14.6c-.2-2.4-.7-4.7-.7-7-.1-15.8.1-31.5-.1-47.3,0-4.2,1.1-6.2,5.7-5.7,3.1.4,6.3.1,9.7.1Z"/>
      <path d="m974.9,236.1c0,5.5-5.3,10.7-10.5,10.5-5.5-.2-10.3-5.3-10.2-10.8.1-5.3,5-10.1,10.3-10.2,5.4-.1,10.5,5,10.4,10.5Z"/>
      <path class="cls-1" d="m894.9,340.3c.1,9.8-7.3,17.9-16.3,17.9-9.5,0-16.7-7.8-16.7-18"/>
      <path class="cls-1" d="m726.9,330.6c.5-.1.9-.1,1.4-.2,1.9,6.1,3.7,12.3,5.7,18.9h-12.6"/>
    </g>
  </g>
</svg>