<?xml version="1.0" encoding="utf-8"?>
<!-- Generator: Adobe Illustrator 27.2.0, SVG Export Plug-In . SVG Version: 6.00 Build 0)  -->
<svg version="1.1" id="Layer_1" xmlns="http://www.w3.org/2000/svg" xmlns:xlink="http://www.w3.org/1999/xlink" x="0px" y="0px"
	 viewBox="0 0 1921.4 265" style="enable-background:new 0 0 1921.4 265;" xml:space="preserve">
<path d="M476.6,265c-2.4-0.3-4.7-0.7-7.1-0.9c-5.4-0.6-10.6-1.6-15.6-3.5c-12.5-4.7-19.4-13.8-20.4-27c-0.6-7.6-0.4-15.3-0.6-23
	c-0.1-3.2,0-6.4,0-9.5c1.9-0.5,36-0.6,38.8-0.1c0,0.7,0.1,1.5,0.1,2.3c0,5.8,0,11.5,0,17.2c0,1.9,0.1,3.8,0.5,5.7c1,5,4,8.2,9.2,9.2
	c2.5,0.5,4.9,0.5,7.4,0c5.1-1,8.1-4.2,9.3-9.2c0.3-1.4,0.5-2.8,0.5-4.3c0-8.5,0-16.9,0-25.4c0-0.1,0-0.2,0-0.2c-0.4-8-5-12-13-11.7
	c-5.4,0.2-10.9,0.1-16.3,0.2c-0.4,0-0.8-0.1-1.1-0.1c-0.5-1.9-0.7-24.5-0.3-30c0.8,0,1.6-0.1,2.5-0.1c5-0.1,10.1-0.1,15.1-0.4
	c2.3-0.1,4.6-0.6,6.8-1.2c3.6-1,5.6-3.6,6.3-7.2c0.2-0.9,0.4-1.7,0.4-2.6c0.2-7.4,0.4-14.9-0.8-22.2c-1-6.1-4-8.8-10.2-9.6
	c-3.1-0.4-6.1-0.3-9,0.7c-4.4,1.5-7.1,4.6-7.2,9.4c-0.2,5.2-0.1,10.4-0.2,15.6c0,0.9,0,1.7,0,2.6c-12.5,0-24.7,0-37.1,0
	c0-0.5-0.1-0.9-0.1-1.2c0-6.9,0-13.7,0-20.6c0-4.9,1-9.7,3.1-14.2c3.2-6.9,8.4-11.8,15.1-15.2c5.2-2.7,10.7-4.3,16.4-5.1
	c12.5-1.8,24.9-1.6,37.2,1.3c4.9,1.2,9.6,2.9,14,5.5c8.3,5,13.6,12.2,14.8,21.8c1.4,10.9,1.5,22,0.3,33c-0.7,6.4-3.8,11.6-8.5,15.9
	c-2.3,2.2-5,3.9-7.6,5.9c-0.8,0.6-1.6,1.1-2.6,1.8c0.8,0.4,1.4,0.7,2,0.9c3.8,1.5,7.2,3.4,10.3,6.1c5.5,4.9,8,11.2,8.2,18.3
	c0.3,12.4,0.6,24.8-0.5,37.1c-0.2,2.9-0.8,5.9-1.6,8.7c-2.4,8.8-8.2,14.8-16.1,19c-5,2.7-10.4,4-16,4.8c-3.2,0.4-6.5,0.7-9.8,1.1
	c-0.5,0.1-1.1,0.3-1.6,0.4C486.6,265,481.6,265,476.6,265z"/>
<path d="M0,241c0.3-1.4,0.7-2.8,0.9-4.2c1.1-14.2,6.5-26.5,15.9-37.2c6.5-7.4,13.7-14.1,21-20.7c6.6-6,13.1-12.2,19.7-18.3
	c1-1,2-2.1,2.9-3.2c3.6-4.2,5.6-9.1,5.6-14.7c0-5.6,0.1-11.2,0-16.8c0-1.7-0.2-3.3-0.6-5c-1.3-5.4-4.8-8.4-10.3-9.1
	c-2.5-0.3-5-0.1-7.3,0.6c-5,1.6-7.8,5.1-8.6,10.2c-0.3,1.6-0.3,3.3-0.3,5c0,7.2,0,14.4,0,21.6c0,0.9,0,1.7,0,2.6
	c-1.8,0.6-32.1,0.8-36.4,0.3c-0.1-0.6-0.2-1.2-0.2-1.8c0-8.6,0-17.2,0.1-25.9c0.1-5.3,0.6-10.5,2.3-15.6c3.2-9.4,9.6-15.9,18.2-20.3
	c6.3-3.2,13-4.8,20-5.6c9-1,18-0.9,27,0.9c10.2,2.1,19.2,6.3,26.5,14c4.8,5.1,7.5,11.1,8.1,18c1.1,10.9,1.1,21.9,0,32.8
	c-0.8,7.9-3.6,15.1-8.9,21.1c-3.5,4-7.3,7.6-11.1,11.2c-9,8.5-18.1,16.9-27.1,25.4c-5.4,5.1-9.6,11.1-11.6,18.4
	c-0.2,0.5-0.3,1.1-0.5,1.9c19.8,0,39.4,0,58.9,0c0.5,2,0.7,30.1,0.2,33.1c-0.7,0-1.5,0.1-2.3,0.1c-33.1,0-66.2,0-99.3,0
	c-0.8,0-1.6-0.1-2.4-0.1C0,253.5,0,247.2,0,241z"/>
<path d="M1609,265c-0.4-0.2-0.8-0.5-1.3-0.6c-3.5-1-5.8-3.4-7.1-6.6c-2.2-5.2-2.3-10.5-0.3-15.8c2-5.2,6.1-7.9,11.2-7.6
	c5.6,0.3,9.4,3.2,11,8.7c1.2,4.1,1.2,8.3,0.1,12.5c-1.2,4.5-3.9,7.6-8.5,8.9c-0.4,0.1-0.9,0.4-1.3,0.6
	C1611.5,265,1610.2,265,1609,265z M1619.1,249.5c0-2.6-0.2-5.3-1.5-7.6c-1.5-2.8-3.9-3.8-7-3.7c-2.9,0-4.9,1.4-6,4
	c-2.2,5.2-2.1,10.4,0.5,15.4c1.6,3.2,4.4,4.2,7.9,3.3c2.2-0.6,3.7-2,4.7-4.1C1618.8,254.4,1619.1,252,1619.1,249.5z"/>
<path d="M1704.5,265c-0.6-0.2-1.1-0.5-1.7-0.7c-4.3-1.4-6.3-4-6.4-8.5c-0.1-5.4-0.1-10.7-0.1-16.1c0-1.5,0-3,0-4.6c1.4,0,2.6,0,4,0
	c0,0.9,0.1,1.7,0.1,2.6c0,5.1,0,10.2,0,15.3c0,0.6,0,1.3,0,1.9c0.1,5.3,4.8,7.1,8.5,5.8c2.1-0.7,3.4-2.1,3.7-4.3
	c0.2-0.9,0.2-1.9,0.2-2.9c0-5.3,0-10.5,0-15.8c0-0.9,0-1.7,0-2.7c1.4,0,2.6,0,3.9,0c0.1,0.9,0.1,1.6,0.1,2.4c0,5.6,0,11.2,0,16.8
	c0,6.1-1.8,8.5-7.5,10.3c-0.4,0.1-0.7,0.3-1.1,0.5C1707,265,1705.8,265,1704.5,265z"/>
<path d="M1780.8,265c-0.6-0.3-1.3-0.6-1.9-0.8c-3.6-1.1-5.9-3.6-6-7.2c-0.2-7.2-0.1-14.5-0.1-21.9c1.3,0,2.4,0,3.9,0
	c0,0.8,0.1,1.7,0.1,2.5c0,5.6,0,11.2,0,16.7c0,1.2,0.2,2.4,0.6,3.5c1,2.4,3.6,3.6,6.4,3.2c2.9-0.4,4.8-2,5.3-4.7
	c0.2-0.9,0.2-1.9,0.2-2.9c0-5.2,0-10.4,0-15.6c0-0.9,0-1.7,0-2.8c1.3,0,2.5,0,3.8,0c0.1,0.6,0.2,1.2,0.2,1.8c0,5.9-0.1,11.8,0,17.7
	c0.1,5.2-2.2,8.6-7.2,9.9c-0.4,0.1-0.7,0.4-1,0.5C1783.7,265,1782.2,265,1780.8,265z"/>
<path d="M1679,265c-0.3-0.2-0.7-0.5-1-0.5c-5.1-1.5-7.8-5.1-8.8-10c-0.8-3.5-0.7-7,0.3-10.4c2.5-8.4,10.5-12.1,19.3-7.9
	c-0.4,1-0.8,2-1.1,2.8c-2.2-0.3-4.1-0.7-6-0.8c-2.7-0.2-4.9,1-6.3,3.2c-3.1,5-3.3,10.3-0.6,15.5c2.5,4.7,8.1,5.6,12.2,2.2
	c0.2-0.2,0.5-0.4,0.9-0.7c0.4,0.5,0.8,0.9,1.2,1.4c0.3,0.4,0.6,0.9,0.9,1.4c-1.2,1.5-2.7,2.2-4.4,2.9c-0.9,0.3-1.8,0.6-2.7,1
	C1681.6,265,1680.3,265,1679,265z"/>
<path d="M1921.4,210.8c-5.5,0-11,0-16.4,0c-0.6-1.9-0.7-25.1-0.3-29.2c1.1,0,2.3,0,3.8,0c0,8.3,0,16.7,0,25.3c4.5,0,8.7,0,12.9,0
	C1921.4,208.3,1921.4,209.5,1921.4,210.8z"/>
<path d="M1614.3,3.5c73.6,0,147,0,220.6,0c0,48.9,0,97.7,0,146.7c-73.5,0-147,0-220.6,0C1614.3,101.3,1614.3,52.5,1614.3,3.5z
	 M1702,31.9c-0.7-1.9-1.2-3.4-2-5.4c-0.8,2.1-1.4,3.8-2,5.5c-1.8,0-3.4,0-5.5,0c1.7,1.3,3,2.3,4.5,3.4c-0.5,1.7-1,3.3-1.7,5.5
	c1.8-1.2,3.2-2.2,4.7-3.3c1.4,1,2.8,2,4.2,2.9c0.1-0.1,0.2-0.2,0.3-0.3c-0.5-1.6-1-3.3-1.5-4.9c1.4-1.1,2.8-2,4.1-3
	c-0.1-0.1-0.1-0.3-0.2-0.4C1705.3,31.9,1703.7,31.9,1702,31.9z M1748.9,26.4c-0.8,2.2-1.3,3.8-1.9,5.6c-1.8,0-3.4,0-5.7,0
	c1.8,1.4,3.2,2.4,4.6,3.5c-0.6,1.8-1.1,3.4-1.7,5.5c1.9-1.3,3.3-2.3,4.8-3.3c1.5,1,2.9,2,4.7,3.2c-0.7-2.2-1.1-3.9-1.6-5.5
	c1.5-1.1,2.8-2,4.1-3c-0.1-0.2-0.1-0.3-0.2-0.5c-1.7,0-3.4,0-5.1,0C1750.2,30,1749.6,28.5,1748.9,26.4z M1768.9,98.8
	c-0.6-1.7-1.2-3.3-1.9-5.5c-0.7,2.2-1.3,3.8-1.9,5.5c-1.8,0-3.4,0-5,0c-0.1,0.1-0.1,0.3-0.2,0.4c1.3,1,2.7,2,4.1,3
	c-0.5,1.7-1,3.3-1.5,4.9c0.1,0.1,0.2,0.2,0.4,0.2c1.4-1,2.8-1.9,4.1-2.9c1.6,1.1,2.9,2,4.7,3.2c-0.7-2.2-1.2-3.8-1.7-5.4
	c1.4-1.1,2.8-2.2,4.1-3.2c-0.1-0.1-0.1-0.3-0.2-0.4C1772.3,98.8,1770.6,98.8,1768.9,98.8z M1682.2,94c-0.2,0-0.3,0-0.5,0.1
	c-0.5,1.6-1.1,3.1-1.7,4.8c-1.8,0-3.4,0-5.6,0c1.8,1.4,3.1,2.4,4.4,3.4c-0.5,1.7-1,3.2-1.4,4.8c0.1,0.1,0.3,0.2,0.4,0.3
	c1.4-1,2.8-1.9,4.1-2.9c1.5,1.1,2.9,2,4.7,3.3c-0.7-2.2-1.1-3.9-1.6-5.5c1.3-1.3,3-2,4.3-3.6c-2.1,0-3.8,0-5.5,0
	C1683.2,97.1,1682.7,95.5,1682.2,94z M1773.5,80c1.5,1.1,2.8,2,4.1,2.9c0.1-0.1,0.2-0.2,0.3-0.3c-0.5-1.6-0.9-3.1-1.4-4.8
	c1.4-1.1,2.8-2.1,4.2-3.2c0-0.1-0.1-0.3-0.1-0.4c-1.8,0-3.5,0-5.3,0c-0.6-1.8-1.1-3.3-1.8-5.4c-0.8,2.2-1.3,3.8-1.9,5.6
	c-1.8,0-3.5,0-5.6,0c1.8,1.4,3.1,2.4,4.5,3.4c-0.5,1.8-1,3.3-1.6,5.5C1770.7,82,1772.1,81.1,1773.5,80z M1682.3,45
	c-0.1,0-0.3-0.1-0.4-0.1c-0.6,1.6-1.1,3.2-1.7,4.7c-1.8,0.5-3.6-0.2-5.4,0.5c1.5,1.2,2.8,2.2,4.1,3.1c0,1.8-1.3,3.3-1.1,5.3
	c1.6-1.1,2.9-2,4.3-3c1.5,1,2.9,2,4.2,3c0.1-0.1,0.2-0.2,0.3-0.3c-0.5-1.6-1-3.3-1.5-4.9c1.5-1.1,2.8-2.2,4.2-3.2
	c-0.1-0.1-0.2-0.3-0.2-0.4c-1.7,0-3.3,0-5.1,0C1683.3,48.2,1682.8,46.6,1682.3,45z M1675.4,68.8c-0.8,2.2-1.3,3.8-1.9,5.3
	c-1.9,0.4-3.6-0.2-5.5,0.5c1.6,1.2,2.9,2.2,4.3,3.2c-0.5,1.7-1,3.3-1.5,4.9c0.1,0.1,0.2,0.1,0.4,0.2c1.4-0.9,2.7-1.9,4.2-2.9
	c1.5,1,2.9,2,4.7,3.2c-0.6-2.1-1.1-3.7-1.6-5.4c1.4-1.1,2.8-2.2,4.1-3.2c0-0.1-0.1-0.2-0.1-0.4c-1.7,0-3.4,0-5.2,0
	C1676.7,72.5,1676.1,71,1675.4,68.8z M1759.9,49.8c-0.1,0.2-0.1,0.3-0.2,0.5c1.4,1,2.7,2.1,4.1,3.1c-0.5,1.7-1,3.3-1.4,4.8
	c0.1,0.1,0.2,0.2,0.4,0.2c1.3-1,2.7-1.9,4.1-2.9c1.5,1,2.9,2,4.7,3.3c-0.7-2.2-1.1-3.8-1.6-5.5c1.4-1.1,2.8-2.2,4.1-3.2
	c-0.1-0.1-0.1-0.3-0.2-0.4c-1.7,0-3.4,0-5.2,0c-0.6-1.7-1.1-3.2-1.7-4.7c-0.1,0-0.3,0-0.4,0c-0.6,1.5-1.1,3.1-1.7,4.7
	C1763.2,49.8,1761.6,49.8,1759.9,49.8z M1717.5,25.3c-0.1,0.1-0.1,0.3-0.2,0.5c1.3,1,2.7,2.1,4,3.1c-0.5,1.8-1,3.3-1.7,5.5
	c1.9-1.3,3.3-2.3,4.7-3.3c1.5,1,2.8,2,4.2,3c0.1-0.1,0.2-0.2,0.3-0.3c-0.5-1.6-0.9-3.1-1.4-4.8c1.4-1.1,2.7-2.1,4-3.2
	c-0.1-0.1-0.1-0.3-0.2-0.4c-1.7,0-3.3,0-5,0c-0.6-1.8-1.2-3.4-1.9-5.5c-0.7,2.1-1.3,3.7-1.9,5.5
	C1720.9,25.3,1719.2,25.3,1717.5,25.3z M1698,116.9c-1.7,0-3.3,0-5.6,0c1.8,1.4,3.1,2.4,4.5,3.4c-0.5,1.7-1,3.3-1.6,5.5
	c1.9-1.3,3.3-2.3,4.7-3.3c1.5,1,2.8,2,4.2,2.9c0.1-0.1,0.2-0.2,0.3-0.3c-0.5-1.6-1-3.2-1.5-4.8c1.4-1.1,2.7-2.1,4-3
	c0-0.2-0.1-0.3-0.1-0.5c-1.7,0-3.4,0-5,0c-0.6-1.9-1.2-3.4-1.9-5.5C1699.3,113.5,1698.7,115.1,1698,116.9z M1750.9,116.8
	c-0.7-1.8-1.2-3.4-2-5.4c-0.7,2.1-1.3,3.7-2,5.5c-1.7,0-3.3,0-5.5,0c1.8,1.4,3.1,2.4,4.4,3.4c-0.5,1.7-1,3.4-1.6,5.5
	c1.8-1.3,3.2-2.3,4.7-3.3c1.5,1.1,2.9,2,4.7,3.3c-0.7-2.2-1.2-3.9-1.7-5.5c1.4-1.1,2.8-2.1,4-3c-0.1-0.1-0.1-0.3-0.2-0.4
	C1754.2,116.8,1752.6,116.8,1750.9,116.8z M1724.5,129.1c1.5,1.1,2.9,2,4.2,3c0.1-0.1,0.2-0.2,0.3-0.3c-0.5-1.6-1-3.1-1.5-4.8
	c1.4-1.1,2.7-2.1,4-3.2c-0.1-0.2-0.1-0.3-0.2-0.5c-1.7,0-3.3,0-4.9,0c-0.6-1.8-1.2-3.4-1.9-5.4c-0.7,2.1-1.3,3.8-1.9,5.4
	c-1.8,0.1-3.4,0.2-5,0.2c0,0.1,0,0.3-0.1,0.4c1.3,1,2.6,2,3.9,3c-0.5,1.8-1,3.4-1.7,5.5C1721.6,131.2,1722.9,130.2,1724.5,129.1z"/>
<path d="M208.1,173.1c-47.9,0-86.6-38.7-86.5-86.6c0.1-49.1,40.6-86.4,87-86.2c46.7,0.2,86.4,38.3,86.1,87
	C294.4,135.2,255.2,173.4,208.1,173.1z"/>
<path d="M415.5,226.7c0,11.1,0,21.9,0,32.7c-1.8,0.5-98.6,0.7-103.5,0.2c-0.1-0.5-0.2-1-0.2-1.5c0-5.8,0-11.7,0.2-17.5
	c0.5-16.4,6.4-30.6,17.5-42.7c6.6-7.2,13.8-13.8,21-20.3c5.2-4.7,10.4-9.5,15.5-14.3c2.1-2,4-4.1,5.9-6.3c3.6-4.1,5.3-8.9,5.3-14.3
	c0.1-5.7,0.1-11.3,0-17c0-1.8-0.4-3.7-0.9-5.4c-1.4-4.9-4.7-7.9-9.9-8.4c-2.2-0.2-4.5-0.1-6.7,0.3c-5.7,1.2-9.4,5.7-9.8,11.8
	c-0.1,2.2-0.1,4.5-0.1,6.7c0,6.1,0,12.3,0,18.4c0,0.9,0,1.8,0,2.6c-1.8,0.6-32.3,0.7-36.4,0.2c-0.1-0.4-0.2-0.8-0.2-1.3
	c0-9.7,0-19.5,0.1-29.2c0.1-4.3,0.8-8.6,2.2-12.7c3.3-9.7,10-16.3,19.1-20.7c6.1-3,12.6-4.5,19.4-5.2c8-0.9,16-0.8,23.9,0.4
	c9.3,1.5,17.9,4.7,25.3,10.7c7.6,6.1,11.7,14,12.4,23.7c0.7,9.7,0.8,19.3,0,28.9c-0.7,9.2-3.9,17.4-10.2,24.3
	c-2.8,3.1-5.8,6-8.8,8.8c-8.6,8.1-17.4,16.1-26,24.2c-2.3,2.1-4.4,4.4-6.5,6.8c-4,4.5-6.5,9.8-8.1,16c6.7,0,13.2,0,19.7,0
	c6.6,0,13.3,0,19.9,0C402.3,226.7,408.8,226.7,415.5,226.7z"/>
<path d="M677,162.4c-3.6,0-6.9,0-10.3,0c0-0.9-0.1-1.6-0.1-2.4c0-5.8,0-11.7,0-17.5c0-0.9,0-1.8-0.2-2.6c-0.4-2.4-1.7-3.3-4-3.2
	c-2.5,0.1-4.3,1.7-4.3,3.9c0,6.3,0,12.6,0,18.9c0,0.9,0,1.7,0,3c-3.4,0.1-6.8,0-10,0c-0.5-1.8-0.7-29.4-0.2-33c3.1,0,6.2,0,9.5,0
	c0.1,1,0.2,1.9,0.4,3.1c0.6-0.4,1-0.6,1.4-1c3.3-2.9,7.1-3.4,11.2-2.6c1.7,0.3,3.1,1.3,4.2,2.6c0.4,0.5,0.8,1,1.2,1.5
	c0.3-0.2,0.5-0.3,0.6-0.4c3-3.6,6.8-4.5,11.2-3.9c3.3,0.4,5.7,2.1,6.9,5.2c0.7,1.7,1.2,3.5,1.3,5.3c0.1,7.6,0.1,15.2,0.1,23.1
	c-3.4,0.2-6.8,0.1-10.3,0.1c0-1-0.1-1.8-0.1-2.6c0-5.8,0-11.5,0-17.2c0-0.6,0-1.1,0-1.7c0-1.6-0.2-3.1-1.8-3.9
	c-1.6-0.8-3.3-0.5-4.8,0.4c-1.4,0.8-1.8,2.1-1.8,3.6c0.1,6.1,0,12.3,0,18.4C677,160.4,677,161.3,677,162.4z"/>
<path d="M927.9,140c0.3-3.5,0.5-7,0.9-10.5c0.3-2.6,1.4-4.9,3-7c0.4-0.5,0.8-1,1.2-1.4c5-5.4,19.2-6.3,24,3.8c1.4,2.9,2.1,6,2.2,9.2
	c0.1,4.9,0,9.7-0.3,14.6c-0.1,1.8-0.7,3.6-1.3,5.3c-2.2,5.5-6.2,8.6-12.2,8.9c-1.8,0.1-3.7,0.1-5.5-0.2c-5-1-8.4-4.1-10.2-8.8
	c-1.2-3-1.6-6.2-1.6-9.4c0-1.5,0-3,0-4.6C928.1,140,928,140,927.9,140z M949.1,140.2c-0.1,0-0.1,0-0.2,0c0-2.1,0.1-4.3,0-6.5
	c-0.1-1.7-0.3-3.3-0.8-4.9c-0.7-2.4-2.4-3.6-4.5-3.6c-2.1,0.1-3.5,1.2-4.3,3.6c-0.2,0.8-0.5,1.6-0.5,2.3c0,6.1-0.1,12.1,0,18.2
	c0,1.1,0.5,2.2,0.9,3.2c0.7,1.8,2.3,2.7,4.2,2.6c1.8,0,3.2-1,4-2.6c0.3-0.7,0.6-1.5,0.7-2.3C948.8,146.8,949,143.5,949.1,140.2z"/>
<path d="M999.9,150.1c3.5,0,6.8,0,10.3,0c0.5,2.5,1.9,4.3,4.6,4.8c2.5,0.5,4.6,0,6.2-2.1c1.3-1.7,1.4-4.9,0.2-6.8
	c-1-1.6-2.6-2.3-4.5-2.4c-1.9-0.1-3.8,0-5.7,0c-0.6-1.9-0.6-4.9-0.2-7.7c0.6-0.1,1.2-0.2,1.8-0.2c1.2,0,2.4,0,3.6-0.1
	c4-0.3,6.2-3.7,4.8-7.5c-0.8-1.9-2.3-2.8-4.3-3c-2.1-0.2-4,0.5-5.2,2.3c-0.3,0.5-0.5,1.1-0.8,1.8c-3,0-5.9,0-8.9,0
	c-0.3,0-0.6-0.1-1-0.1c-0.3-2.8,0.8-5.1,2.5-7c2.2-2.6,5-4,8.2-4.6c4.1-0.8,8.1-0.6,12.1,0.8c5.1,1.8,7.9,5.6,8.1,10.7
	c0.2,3.8-1.4,6.6-4.3,8.9c-0.6,0.5-1.3,0.9-2.2,1.5c0.6,0.3,0.9,0.6,1.3,0.8c7.8,3.8,7.1,13.8,2.4,18.3c-6.1,5.8-19,6.1-25.3,0.4
	C1001.1,156.6,999.8,153.7,999.9,150.1z"/>
<path d="M923,154.5c0,2.7,0,5.2,0,7.6c-1.7,0.5-27.4,0.6-31.1,0.1c0-2-0.1-4.1,0.1-6.1c0.1-0.7,0.8-1.4,1.3-1.9
	c4.1-4.4,8.3-8.6,12.3-13.1c1.9-2.1,3.5-4.5,5-6.9c1.1-1.8,1.2-3.8,0.6-5.8c-0.5-1.8-1.7-2.8-3.5-3.2c-1.8-0.3-3.3,0.2-4.5,1.6
	c-1.3,1.5-1.7,3.2-1.8,5.2c-3.4,0-6.7,0-10.2,0c0-0.6-0.2-1.2-0.1-1.8c0.9-6.6,5.9-11.8,12.5-12.8c3-0.5,6-0.4,9,0.3
	c8,1.9,10.1,8.4,9.3,14.3c-0.4,2.8-1.6,5.4-3.3,7.6c-1.9,2.4-3.9,4.6-6,6.9c-2,2.3-4,4.5-6,6.8c-0.2,0.2-0.3,0.5-0.8,1.1
	c3.2,0,5.9,0,8.7,0C917.3,154.5,920.1,154.5,923,154.5z"/>
<path d="M979.1,154.5c5.5,0,11.1,0,16.8,0c0,2.7,0,5.2,0,7.8c-10.3,0-20.6,0-31.1,0c0-2-0.1-4,0.1-6c0.1-0.7,0.7-1.4,1.2-2
	c4-4.3,8.2-8.5,12.2-12.9c1.9-2.1,3.5-4.4,5-6.7c1.2-1.9,1.6-4,0.9-6.2c-0.5-1.9-1.7-3-3.6-3.4c-1.9-0.3-3.6,0.2-4.6,1.8
	c-0.9,1.5-1.4,3.2-2.1,5c-3,0-6.3,0-9.9,0c0-4.4,1.6-8,4.7-10.8c2.5-2.3,5.5-3.7,8.8-3.8c2.7-0.1,5.5-0.1,8.1,0.5
	c6.4,1.4,9.9,6.3,9.3,13.5c-0.2,2.9-1.4,5.6-3.2,7.9c-2,2.5-4.1,4.9-6.2,7.2c-2.2,2.4-4.3,4.9-6.5,7.3
	C979,154.1,979,154.3,979.1,154.5z"/>
<path d="M872.3,162.4c-3.8,0-7.2,0-10.5,0c-0.3-0.8-0.7-1.5-1.1-2.4c-0.3,0.2-0.7,0.4-0.9,0.6c-3.4,3.4-11.1,3.2-15.2-0.6
	c-4.8-4.6-3.9-12.5,1.9-15.7c2.5-1.4,5.2-1.9,8-2.1c1.8-0.1,3.7,0,5.4,0c0.7-3.5-0.1-5.6-2.2-6.2c-2.6-0.7-4.1,0.2-5.2,3.3
	c-3.3,0-6.6,0-10,0c-0.3-2.2,0.5-4,1.8-5.6c0.6-0.7,1.3-1.5,2.1-2c6.1-3.9,12.5-4.2,18.9-1.1c3.8,1.8,5.4,5.3,5.5,9.4
	c0.1,4,0,8,0,12C870.7,155.5,870.5,158.9,872.3,162.4z M860.2,148.1c-2.2-0.5-4-0.4-5.4,0c-2.2,0.7-3.4,3.1-2.8,5.4
	c0.5,1.8,2.5,2.6,4.8,2c0.6-0.2,1.3-0.4,1.7-0.8c0.7-0.6,1.5-1.4,1.6-2.2C860.4,151.1,860.2,149.5,860.2,148.1z"/>
<path d="M786,139.3c0-3,1.1-5.4,3.3-7c1.6-1.2,3.4-2.2,5.2-2.8c3.3-1.1,6.8-1.1,10.2-0.4c6.2,1.2,9.5,5.3,9.7,11.6
	c0,2.2,0,4.5,0,6.7c0,2.6-0.1,5.1,0,7.7c0.2,2.4,0.6,4.8,0.9,7.4c-3.2,0-6.6,0-10,0c-0.3-0.7-0.7-1.4-1-2.3
	c-0.3,0.2-0.7,0.4-0.9,0.6c-3.4,3.3-10.7,3-14.7-0.1c-5.1-3.9-4.8-13.3,1.6-16.4c2.5-1.2,5.1-1.8,7.8-1.9c1.8-0.1,3.7,0,5.4,0
	c0.8-3.3-0.1-5.6-2.2-6.2c-2.7-0.7-4.2,0.2-5.2,3.2C792.9,139.3,789.5,139.3,786,139.3z M804,147.6c-2.1,0.2-3.8,0.2-5.5,0.6
	c-1.7,0.4-2.6,1.8-2.8,3.5c-0.1,1.3,0,2.6,1.3,3.4c1.6,1,3.2,0.7,4.8,0c1.4-0.7,2.4-1.8,2.3-3.6C803.9,150.4,804,149.3,804,147.6z"
	/>
<path d="M750.1,146.7c-0.1-3.5,0.3-6.4,1.5-9.2c2.3-5.1,6.2-8,11.7-8.6c2.3-0.2,4.7-0.2,6.9,0.2c5.7,1.1,9.3,4.7,11,10.2
	c1.3,4.4,1.3,8.8,0.1,13.2c-1.7,6-6.6,10-12.9,10.4c-2.1,0.1-4.3,0.1-6.4-0.3c-6.6-1.3-11-6.6-11.7-13.4
	C750.1,148.2,750.1,147.2,750.1,146.7z M772,146c-0.4-2-0.6-4-1.2-5.8c-0.8-2.4-2.6-3.6-4.9-3.5c-2.2,0-3.9,1.2-4.7,3.4
	c-1.3,3.8-1.3,7.7-0.1,11.5c0.8,2.3,2.6,3.5,4.9,3.5c2.2,0,4-1.2,4.7-3.4C771.4,149.9,771.6,148,772,146z"/>
<path d="M589,126.2c0-3,0-5.5,0-8.2c12.4,0,24.7,0,37.3,0c0.2,2.5,0,5.1,0.1,8.1c-4.5,0.2-8.8,0-13.4,0.2c0,12.1,0,24,0,36.1
	c-3.7,0-7.2,0-10.9,0c0-12,0-24,0-36.2C597.6,126.2,593.4,126.2,589,126.2z"/>
<path d="M717.4,151.9c3.2,0,6.3,0,9.4,0c1.3,3.5,3.5,4.8,6.8,4.2c1.7-0.3,2.7-1.2,2.9-2.5c0.2-1.4-0.4-2.3-2.2-3
	c-1.3-0.5-2.8-0.8-4.1-1.2c-2.3-0.8-4.8-1.4-6.9-2.6c-6.3-3.5-6.6-11.4-0.7-15.6c0.6-0.4,1.2-0.8,1.8-1.1c5.7-2.3,11.4-2.3,16.9,0.6
	c3.3,1.7,5.3,4.5,5.2,8.6c-3.4,0-6.7,0-10.1,0c-0.1-0.3-0.3-0.6-0.4-1c-1-2.7-3.8-3.7-6.2-2.3c-2.2,1.3-2.3,3.7,0,4.9
	c1.3,0.7,2.9,0.9,4.3,1.4c2.4,0.8,5,1.3,7.2,2.4c3.7,1.7,5.3,4.8,5.1,8.9c-0.2,2.4-1.2,4.3-2.9,5.8c-5.6,5.1-17.4,4.9-22.9-0.3
	C718.5,157.1,717.6,155.2,717.4,151.9z"/>
<path d="M952.6,227.6c0,5.3,0,10.2,0,15.1c-2,0.6-3.8,0.3-5.7,0.3c0-15.4,0-30.5,0-45.8c1.7,0,3.2,0,5,0c0.2,0.9,0.3,1.8,0.5,2.9
	c0.5-0.3,1-0.6,1.4-0.9c6.9-5.4,16.4-2.9,19.6,5.2c2.2,5.9,2.3,11.9,0.2,17.8c-3,8.6-12.1,11.4-19.7,6.1
	C953.6,228.3,953.3,228.1,952.6,227.6z M952.6,213.9c0,2.1,0,4.3,0,6.4c0,1.3,0.5,2.3,1.3,3.2c2.9,3.5,11,4.4,13.8-2
	c2.2-4.9,2.2-10,0.2-15.1c-0.2-0.4-0.4-0.9-0.7-1.2c-3-4.6-9.7-5.1-13.4-1c-0.8,0.9-1.3,1.9-1.2,3.2
	C952.6,209.6,952.6,211.8,952.6,213.9z"/>
<path d="M621,186c0,1.5,0,2.8,0,4.5c-2.4,0.2-4.8,0.1-7.2,0.1c-2.5,0-5,0-7.4,0c-2.4,0-4.8,0-7.3,0c0,4.8,0,9.5,0,14.3
	c6.3,0,12.5,0,19,0c0,1.7,0,3.1,0,4.9c-6.3,0-12.5,0-19,0c0,5.3,0,10.4,0,15.8c7.4,0,14.8,0,22.3,0c0,1.7,0,3.1,0,4.7
	c-9.4,0-18.7,0-28,0c-0.5-1.6-0.7-40.8-0.2-44.1C594.9,185.6,618.1,185.5,621,186z"/>
<path d="M724.3,242.9c-2,0-3.7,0-5.6,0c0-15.3,0-30.4,0-45.7c1.7,0,3.3,0,5,0c0.1,1,0.2,1.8,0.4,2.9c0.5-0.3,0.9-0.4,1.2-0.7
	c7-5.7,16.7-3.3,19.9,5.2c2.2,5.9,2.2,11.9,0.1,17.8c-3.1,8.6-12.3,11.3-19.8,5.9c-0.3-0.2-0.5-0.4-0.9-0.7
	c-0.6,1.7-0.2,3.3-0.3,4.9c-0.1,1.7,0,3.4,0,5S724.3,241,724.3,242.9z M724.3,213.8c0,2.2,0,4.5,0,6.7c0,1.1,0.4,2,1,2.8
	c3,3.9,11,4.5,13.9-1.4c1.5-3,1.8-6.2,1.7-9.5c-0.1-2.4-0.5-4.8-1.8-6.9c-3-5-10.1-5.6-13.8-1c-0.7,0.8-1.1,1.7-1,2.8
	C724.3,209.5,724.3,211.6,724.3,213.8z"/>
<path d="M1184.3,216.1c1.5,0,2.9,0,4.4,0c0.4,0,0.8,0.1,1.1,0.1c0.2,5.3-3.4,11-8.5,13.1c-9,3.7-21.4,1.9-24.8-12.2
	c-1.5-6-1.4-12.2,0-18.3c1.5-6.6,5.3-11.4,12.1-13.2c3.8-1.1,7.6-0.9,11.3,0.3c5.9,1.9,10.2,7.9,9.9,14.1c-0.9,0-1.8,0-2.8,0
	c-0.9,0-1.8,0-2.7,0c-0.2-0.8-0.4-1.5-0.6-2.2c-1-4-3.1-7-7.4-7.8c-4.9-0.8-9.1,0.3-12,4.6c-1.6,2.4-2.4,5.1-2.5,7.9
	c-0.1,4.1,0.1,8.3,0.3,12.4c0,0.9,0.3,1.7,0.6,2.6c2.2,6.9,7.9,9.9,14.9,7.9c2.8-0.8,4.7-2.7,5.6-5.4
	C1183.6,218.9,1183.9,217.6,1184.3,216.1z"/>
<path d="M905.2,200.1c-1.9,0-3.6,0-5.5,0c-0.2-0.8-0.5-1.5-0.6-2.2c-1-3.9-3.1-6.9-7.3-7.6c-4.7-0.8-8.8,0.1-11.7,4.2
	c-1.9,2.6-2.8,5.6-2.9,8.8c-0.1,4.1,0.1,8.1,0.3,12.2c0,0.9,0.3,1.7,0.6,2.6c2.2,6.8,7.9,9.8,14.7,7.7c2.7-0.8,4.6-2.5,5.6-5.2
	c0.5-1.3,0.8-2.7,1.3-4.2c1.8,0,3.7,0,5.7,0c-0.5,4.9-2.3,8.9-6.2,11.7c-8.8,6.4-21.8,2.9-26.1-7.1c-0.8-1.8-1.4-3.8-1.7-5.7
	c-0.6-5.2-0.9-10.5,0.3-15.7c1.5-6.8,5.2-11.8,12.2-13.7c3.8-1.1,7.6-0.9,11.3,0.2C901.2,187.9,905.3,193.7,905.2,200.1z"/>
<path d="M1044.5,230.3c-2.1,0-4,0-6,0c-0.3-0.9-0.6-1.9-1-2.9c-0.5,0.4-1,0.7-1.4,1c-3.6,2.7-7.6,3.2-11.8,2.1
	c-3.9-1.1-6.8-4.2-7.2-7.8c-0.5-4.5,1-8,5-10.3c2.3-1.3,4.7-1.9,7.3-2c1.8-0.1,3.7-0.1,5.5-0.1c0.8,0,1.6,0,2.3,0
	c0.9-4.8-0.5-7.7-4-8.8c-4.4-1.3-8.2,0.5-10.1,4.8c-1.7,0-3.5,0-5.3,0c-0.4-1.4,0.2-2.6,0.9-3.7c1.2-2.2,3-3.7,5.3-4.7
	c4-1.7,8-2,12.2-0.7c4.1,1.4,6.5,4.2,7,8.5c0.1,0.9,0.1,1.8,0.1,2.6c0,3.5,0,7,0,10.5C1043.3,222.8,1043.2,226.5,1044.5,230.3z
	 M1037.5,214.2c-3,0.2-5.6,0.2-8.2,0.5c-1.1,0.1-2.2,0.4-3.2,0.9c-2.5,1-3.5,2.9-3.3,5.5c0.2,2.4,1.6,4,4.1,4.7
	c3.4,0.9,7.8-0.5,9.8-3.4c0.4-0.6,0.7-1.3,0.8-1.9C1037.6,218.5,1037.5,216.6,1037.5,214.2z"/>
<path d="M787,206.3c-0.2-1.8,0.5-3.2,1.5-4.5c1.9-2.6,4.5-4,7.5-4.8c2.8-0.7,5.5-0.7,8.3,0c5,1.2,8.1,5,8.2,10.4
	c0.1,3.9,0,7.8,0,11.7c0,3.6-0.2,7.3,1.2,11.1c-2.2,0.3-4.1,0.2-6.1,0.1c-0.3-1-0.6-1.9-0.9-2.9c-0.6,0.4-1.1,0.8-1.5,1.1
	c-3.7,2.7-7.8,3.2-12.1,1.9c-3.8-1.2-6.3-3.8-6.8-7.9c-0.5-4.4,1-7.9,4.9-10.1c2.6-1.5,5.5-2.1,8.5-2.1c2.2,0,4.5,0,6.6,0
	c1.1-4-0.2-7.3-3.3-8.6c-4.4-1.7-8.5,0-10.8,4.6C790.6,206.3,788.8,206.3,787,206.3z M806.8,214.1c-3.3,0.2-6.2,0.4-9.1,0.6
	c-0.8,0.1-1.7,0.4-2.5,0.8c-2.3,1.1-3.3,2.9-3.2,5.3c0.2,2.3,1.6,4.1,4,4.8c3.4,1,8-0.5,10-3.4c0.3-0.5,0.7-1.1,0.7-1.7
	C806.8,218.6,806.8,216.6,806.8,214.1z"/>
<path d="M938.9,230.3c-2,0-3.8,0-5.8,0c-0.3-0.9-0.6-1.8-0.9-2.9c-0.6,0.4-1.1,0.7-1.5,1c-3.7,2.7-7.8,3.2-12.1,1.9
	c-4-1.2-6.7-4.5-7-8.5c-0.3-4.2,1.4-7.4,5.2-9.5c2.5-1.4,5.2-2,8-2c2.3,0,4.6,0,6.9,0c1.3-4.2-0.2-7.6-3.7-8.7
	c-4.5-1.5-8.7,0.4-10.1,4.7c-1.8,0-3.5,0-5.5,0c-0.1-2.9,1.4-4.8,3.3-6.4c2.6-2.2,5.7-3.2,9.1-3.3c1.8-0.1,3.7,0.1,5.5,0.6
	c4.7,1.2,7.5,4.9,7.7,9.8c0.1,3.3,0,6.5,0,9.8c0,2.2-0.1,4.5,0,6.7C938.1,225.6,938.5,227.8,938.9,230.3z M932.2,214.1
	c-3.3,0.2-6.3,0.4-9.2,0.6c-0.8,0.1-1.7,0.5-2.5,0.8c-2.3,1.1-3.4,3.1-3.2,5.4c0.2,2.4,1.7,4.1,4.1,4.7c3.4,1,7.7-0.5,9.8-3.3
	c0.4-0.6,0.8-1.2,0.8-1.9C932.3,218.5,932.2,216.6,932.2,214.1z"/>
<path d="M1346.7,222c1,0.8,2.1,1.6,3.3,2.6c-1.8,3-4.3,4.8-7.4,5.8c-3.3,1-6.7,1.1-9.9,0c-5.7-1.8-9-5.9-10-11.7
	c-0.6-3.6-0.6-7.2,0.4-10.7c1.8-6.1,5.5-10.3,12-11.2c6.1-0.9,12.2,1.8,14.4,8.8c0.9,2.8,1.3,6.7,0.8,9.9c-2.4,0.2-4.8,0.1-7.3,0.1
	c-2.4,0-4.8,0-7.2,0c-2.5,0-4.9,0-7.4,0c-0.6,3.7,1.4,7.7,4.6,9.6C1337.1,227.4,1341.5,226.4,1346.7,222z M1344.4,210.6
	c0.4-5.4-2.9-9.4-7.6-9.4c-4.8,0-8.7,4.5-8.3,9.4C1333.8,210.6,1339.2,210.6,1344.4,210.6z"/>
<path d="M780.5,215.5c-7.5,0-14.8,0-22,0c-0.6,3.8,1.3,7.9,4.7,9.6c5.2,2.6,9.8,1.2,13.5-3.2c1.2,0.9,2.2,1.8,3.4,2.6
	c-1.6,2.7-3.8,4.5-6.5,5.5c-3.9,1.4-7.9,1.5-11.7,0c-5.2-1.9-8.1-5.9-9.1-11.1c-0.7-3.7-0.7-7.5,0.4-11.1c1.8-6,5.6-10.1,12-11
	c6-0.9,11.9,1.6,14.3,8.5C780.6,208.4,780.7,211.7,780.5,215.5z M758.6,210.5c2.9,0.4,14.5,0.3,16.1-0.2c0.2-5.3-2.9-9-7.6-9.1
	C762.6,201.1,758.5,205.3,758.6,210.5z"/>
<path d="M711.6,213.9c-0.1,2.9-0.5,5.6-1.7,8.2c-2.4,5.7-7.4,8.9-13.8,8.9c-6.3,0-11.3-3.4-13.6-9.2c-1.9-5-2-10.1-0.3-15.2
	c2.2-6.6,7.9-10.4,14.7-10.1c6.9,0.3,12.2,4.7,13.8,11.5C711.2,209.9,711.3,211.9,711.6,213.9z M705.7,213.5c0.1-3-0.5-5.8-2.2-8.4
	c-3.7-5.5-11.6-5.2-14.6,0.6c-2.7,5.1-2.8,10.4-0.3,15.7c1.6,3.3,4.3,5,8.1,4.9c3.7-0.1,6.1-2.1,7.6-5.2
	C705.4,218.7,705.7,216.1,705.7,213.5z"/>
<path d="M1111.9,213.8c-0.1,3.1-0.6,6.1-1.9,8.9c-2.5,5.1-6.6,7.9-12.2,8.3c-6,0.4-11-1.8-13.8-7.2c-3.6-6.8-3.6-13.9,0.3-20.5
	c3.2-5.4,8.4-7.3,14.6-6.5c6.6,0.9,10.5,5,12.2,11.2C1111.6,209.8,1111.7,211.9,1111.9,213.8z M1106.3,213.8
	c-0.2-2.7-0.6-5.3-1.9-7.7c-1.7-3.1-4.3-4.9-7.9-4.8c-3.7,0.1-6.3,1.9-7.7,5.2c-2,4.6-2.2,9.4-0.3,14.2c1.5,3.8,4.4,5.7,8.3,5.6
	c3.8-0.1,6.7-2.1,8.1-6C1105.6,218.2,1105.8,215.9,1106.3,213.8z"/>
<path d="M847.5,230.3c-1.8,0-3.5,0-5.4,0c0-0.8-0.1-1.6-0.1-2.5c0-6.1,0-12.1,0-18.2c0-1.3-0.1-2.6-0.4-3.8
	c-0.5-2.5-2.1-3.8-4.6-4.2c-3.3-0.5-6,0.4-8.2,2.8c-1.1,1.2-1.7,2.6-1.7,4.3c0.1,6.3,0,12.6,0,18.9c0,0.9,0,1.7,0,2.7
	c-2,0-3.7,0-5.6,0c0-11,0-21.9,0-33c1.7,0,3.3,0,5.2,0c0.1,1,0.3,2.1,0.5,3.4c0.5-0.4,1-0.7,1.4-1c3.7-3.2,8-3.8,12.6-2.5
	c2.7,0.8,4.6,2.6,5.5,5.3c0.6,1.7,1,3.6,1,5.4c0.1,7.1,0,14.2,0,21.3C847.6,229.4,847.5,229.7,847.5,230.3z"/>
<path d="M1197.2,197.4c1.8,0,3.6,0,5.6,0c0,0.9,0,1.8,0,2.6c0,6.1,0,12.1,0,18.2c0,1.4,0.2,2.9,0.6,4.2c0.5,2,2,3.2,4.1,3.6
	c2.5,0.4,5,0.1,7.2-1.3c1.9-1.2,3-2.9,3-5.3c-0.1-6.4,0-12.8,0-19.1c0-0.9,0-1.7,0-2.8c1.9,0,3.7,0,5.6,0c0,11,0,21.9,0,32.9
	c-1.8,0-3.4,0-5.2,0c-0.1-0.8-0.2-1.6-0.4-2.5c-0.4,0.2-0.7,0.3-1,0.5c-3.5,2.8-7.4,3.1-11.6,2.4c-3.9-0.7-6.3-3.2-7.3-7
	c-0.4-1.4-0.6-2.8-0.6-4.2c-0.1-6.9-0.1-13.7-0.1-20.6C1197.1,198.4,1197.2,197.9,1197.2,197.4z"/>
<path d="M653.2,230.3c-1.8,0-3.4,0-5.1,0c-0.1-0.9-0.2-1.6-0.3-2.6c-0.4,0.2-0.7,0.3-0.9,0.5c-3.4,2.9-7.4,3.3-11.5,2.6
	c-4.6-0.8-7.3-4-7.9-9c-0.1-1-0.2-2.1-0.2-3.1c0-6.5,0-13.1,0-19.6c0-0.5,0.1-0.9,0.1-1.6c1.8,0,3.6,0,5.7,0c0,0.9,0,1.8,0,2.7
	c0,6,0,12,0,18c0,1.5,0.2,3,0.6,4.5c0.5,2,2.1,3.2,4.1,3.5c2.4,0.4,4.8,0,6.9-1.3c2-1.2,3.1-2.8,3-5.3c-0.1-6.5,0-12.9,0-19.4
	c0-0.9,0-1.7,0-2.7c2,0,3.7,0,5.6,0C653.2,208.4,653.2,219.3,653.2,230.3z"/>
<path d="M1267.7,197.4c1.8,0,3.6,0,5.6,0c0,0.9,0,1.8,0,2.6c0,6.1,0,12.3,0,18.4c0,1.4,0.2,2.9,0.6,4.2c0.5,1.8,1.9,3,3.8,3.3
	c2.7,0.5,5.3,0.1,7.6-1.4c1.8-1.2,2.8-2.9,2.8-5.2c-0.1-6.4,0-12.8,0-19.1c0-0.9,0-1.7,0-2.8c1.9,0,3.6,0,5.5,0
	c0,10.9,0,21.8,0,32.8c-1.7,0-3.3,0-5.1,0c-0.1-0.8-0.2-1.6-0.3-2.5c-0.4,0.2-0.7,0.3-1,0.5c-3.4,2.8-7.4,3.2-11.6,2.4
	c-4.6-0.9-7.3-4.2-7.8-9.4c-0.1-1-0.1-2.1-0.1-3.1c0-6.2,0-12.4,0-18.7C1267.6,198.9,1267.7,198.2,1267.7,197.4z"/>
<path d="M830.5,162.5c-3.1,0-5.9,0-8.7,0c-0.5,0-0.9-0.1-1.5-0.1c0-11,0-21.9,0-32.9c3.2,0,6.3,0,9.4,0c0.2,1.1,0.3,2.1,0.5,3
	c1.5-1.1,2.9-2.4,4.4-3.2c1.7-0.9,3.6-0.7,5.6-0.2c0.2,3,0,6.1-0.2,9.4c-0.9,0-1.6,0-2.4,0c-1.2,0.1-2.4,0-3.6,0.3
	c-2.8,0.6-3.7,1.9-3.7,4.7c0,5.4,0,10.7,0,16C830.5,160.4,830.5,161.3,830.5,162.5z"/>
<path d="M1136.4,183.3c0,0.6,0,1.2,0,1.9c-0.1,0.8-0.2,1.6-0.3,2.4c-1.1-0.1-2-0.2-2.9-0.1c-3.5,0.1-5.5,2-5.7,5.5
	c-0.1,1.3,0,2.7,0,4.3c1.3,0,2.4,0,3.6,0c1,0,2.1,0,3.3,0c0,1.5,0,2.8,0,4.4c-2.2,0-4.4,0-6.8,0c0,9.7,0,19,0,28.6c-2,0-3.8,0-5.8,0
	c0-9.4,0-18.8,0-28.4c-1.8,0-3.3,0-5.1,0c0-1.6,0-2.9,0-4.4c1.6-0.1,3.2-0.2,5.1-0.3c0-1.5,0-2.9,0-4.2
	C1122,185,1128.9,180.5,1136.4,183.3z"/>
<path d="M702.5,129.4c3.4,0,6.6,0,9.9,0c0.5,1.7,0.7,28.4,0.2,33.1c-3.3,0-6.6,0-9.9,0C702.2,160.7,702.1,133.7,702.5,129.4z"/>
<path d="M631,129.4c3.4,0,6.7,0,10.1,0c0,11,0,21.9,0,32.9c-3.3,0-6.6,0-10.1,0C631,151.4,631,140.6,631,129.4z"/>
<path d="M999.3,201.7c-2,0-3.8,0-5.7,0c0-1.5,0-2.8,0-4.5c1.9,0,3.8,0,5.8,0c0-2.8,0-5.2,0-7.8c1.9-0.5,3.7-0.4,5.7-0.1
	c0,2.6,0,5,0,7.7c2.1,0.1,4.1,0.2,6.1,0.3c0,1.4,0,2.7,0,4.3c-2,0-3.9,0-5.9,0c-0.1,0.8-0.2,1.4-0.2,2.1c0,5.9,0,11.8,0,17.7
	c0,0.3,0,0.6,0,1c0.2,2.8,1.3,3.9,4.1,3.8c0.6,0,1.3-0.1,2.1-0.2c0,1.4,0,2.9,0,4.4c-2.2,0.8-4.5,0.9-6.7,0.3
	c-2.4-0.6-3.9-2.2-4.5-4.5c-0.4-1.4-0.6-2.8-0.6-4.2c-0.1-5.9,0-11.8,0-17.7C999.4,203.5,999.3,202.7,999.3,201.7z"/>
<path d="M1260.9,197.3c0,1.5,0,2.8,0,4.3c-2,0-3.9,0-5.9,0c-0.1,0.9-0.1,1.6-0.1,2.3c0,5.7,0,11.3,0,17c0,0.5,0,1,0.1,1.4
	c0.3,2.9,1.4,3.8,4.2,3.7c0.6,0,1.2-0.1,2-0.1c0,1.5,0,2.9,0,4.3c-2.1,0.9-4.2,0.9-6.2,0.6c-2.9-0.4-4.9-2.6-5.4-5.6
	c-0.2-1.2-0.3-2.5-0.3-3.8c0-5.6,0-11.2,0-16.8c0-0.9,0-1.7,0-2.9c-2.1,0-3.9,0-5.9,0c0-1.6,0-2.8,0-4.4c1.9,0,3.7,0,5.9,0
	c0-2.9,0-5.4,0-8c1.9,0,3.6,0,5.6,0c0,2.5,0,5,0,7.8C1256.9,197.2,1258.9,197.2,1260.9,197.3z"/>
<path d="M1600.5,210.8c-1.3,0-2.2-0.1-3,0c-1.2,0.1-1.9-0.4-2.5-1.4c-1.8-2.9-3.7-5.8-5.4-8.8c-1-1.9-2.3-2.7-4.3-2.5
	c-0.3,0-0.6,0-1.1,0c-0.5,2-0.2,4.1-0.2,6.1c-0.1,2.1,0,4.1,0,6.4c-1.4,0-2.6,0-4,0c0-9.6,0-19.2,0-29c3.8-0.3,7.5-0.8,11.2,0
	c3.8,0.8,5.9,2.8,6.4,6.4c0.6,3.6-0.9,6.9-4.1,8.7c-0.4,0.2-0.8,0.4-1.4,0.8c1.4,2.2,2.8,4.4,4.1,6.5
	C1597.6,206.1,1598.9,208.3,1600.5,210.8z M1584.1,194.3c2.5,0.5,4.9,0.4,6.5-0.2c2-0.7,3-2.3,3-4.6c0-2.1-1-3.4-3-4.1
	c-2.1-0.6-4.2-0.7-6.4-0.3C1584.1,188.2,1584.1,191.2,1584.1,194.3z"/>
<path d="M1629,195.9c-0.2,2.8-0.6,5.5-1.6,8c-2,4.8-5.6,7.2-10.8,7.4c-5.1,0.2-8.6-2.2-10.6-6.8c-2.4-5.6-2.5-11.3,0.1-16.9
	c2.3-4.9,6-6.9,11.7-6.5c4.8,0.4,8.5,3.1,9.9,8C1628.3,191.3,1628.6,193.6,1629,195.9z M1624.6,195.9c-0.1-2.5-0.4-5-1.5-7.2
	c-1.4-2.9-3.9-4.1-7-4.1c-3.1,0-5.2,1.5-6.3,4.3c-2,5.1-1.9,10.3,0.7,15.2c2.6,5,9.1,4,11.3,1c0.8-1.1,1.6-2.4,1.9-3.8
	C1624.2,199.6,1624.3,197.7,1624.6,195.9z"/>
<path d="M1810.3,251.6c-1.4,0-2.6,0-4,0c0,4.1,0,8.1,0,12.3c-1.4,0-2.5,0-3.7,0c-0.5-1.6-0.7-25.6-0.1-29.1c3.7,0,7.5-0.6,11.3,0.2
	c3.8,0.9,5.8,3,6.3,6.6c0.5,3.5-1.1,6.7-4.2,8.5c-0.4,0.2-0.8,0.4-1.4,0.7c2.7,4.3,5.4,8.5,8.3,13.2c-1.5,0-2.7,0.2-3.8,0
	c-0.6-0.1-1.2-0.7-1.6-1.2c-1.9-3-3.8-6.1-5.7-9.1C1811.2,253,1810.8,252.4,1810.3,251.6z M1806.3,247.8c2.3,0.6,4.9,0.5,6.7-0.1
	c1.9-0.7,2.8-2.2,2.8-4.5c0-2.2-0.8-3.5-2.9-4.1c-2.1-0.6-4.3-0.9-6.6-0.2C1806.3,241.8,1806.3,244.8,1806.3,247.8z"/>
<path d="M1714.6,181.7c1.5-0.6,1.9,0.4,2.5,1.2c3.9,5.4,7.8,10.7,11.7,16.1c0.4,0.6,0.9,1.2,1.8,1.7c0-6.3,0-12.6,0-19.1
	c1.4,0,2.4,0,3.9,0c0,5,0,9.9,0,14.8c-0.1,4.9,0.2,9.8-0.2,14.7c-0.2,0.1-0.4,0.1-0.6,0.2c-0.6-0.6-1.2-1.1-1.7-1.8
	c-4-5.7-8-11.3-12.1-17c-0.4-0.6-0.9-1.2-1.8-1.7c0,6.6,0,13.1,0,19.8c-0.8,0.1-1.2,0.2-1.7,0.2c-0.6,0-1.2-0.1-2-0.1
	C1714.6,200.9,1714.6,191.3,1714.6,181.7z"/>
<path d="M1058.1,230.3c-1.8,0-3.4,0-5.1,0c-0.5-1.8-0.6-43.9-0.2-46.9c1.7,0,3.4,0,5.1,0C1058.5,185.1,1058.6,227.2,1058.1,230.3z"
	/>
<path d="M1232.6,183.4c1.8,0,3.5,0,5.4,0c0,15.7,0,31.2,0,47c-0.9,0-1.7,0-2.6,0c-0.9,0-1.7,0-2.8,0
	C1232.6,214.7,1232.6,199.1,1232.6,183.4z"/>
<path d="M1567,181.6c1.4,0,2.5,0,3.8,0c0.1,0.6,0.2,1.2,0.2,1.8c0,6.1,0,12.3,0,18.4c0,5.1-2.7,8.2-7.7,9.1
	c-2.2,0.4-4.5,0.3-6.7-0.3c-3.9-1-6.2-4.1-6.2-8.4c-0.1-6.5,0-13.1,0-19.6c0-0.3,0.1-0.6,0.1-1.1c1.2,0,2.3,0,3.8,0
	c0,0.9,0,1.7,0,2.6c0,5.1,0,10.2,0,15.3c0,0.7,0,1.4,0.1,2.1c0.3,4.6,3.9,6.7,8.4,5.6c2.2-0.6,3.6-2.1,3.9-4.4
	c0.2-1,0.2-2.1,0.2-3.1c0-5.1,0-10.2,0-15.3C1567,183.6,1567,182.7,1567,181.6z"/>
<path d="M1846.2,260.3c0,1.4,0,2.4,0,3.6c-5.7,0-11.3,0-17.1,0c0-9.7,0-19.3,0-29c5.8,0,11.4,0,17.2,0c0,1.1,0,2.1,0,3.4
	c-4.3,0-8.6,0-13.2,0c-0.2,2.7-0.1,5.2,0,8.1c3.2,0,6.2,0,9.4,0c0,1.2,0,2.2,0,3.4c-3,0.4-6.1,0-9.3,0.2c0,3.4,0,6.7,0,10.3
	C1837.5,260.3,1841.7,260.3,1846.2,260.3z"/>
<path d="M1819.2,199.7c0,3.7,0,7.2,0,10.9c-1.4,0-2.6,0-3.9,0c0-9.6,0-19.2,0-29c4.2-0.6,8.3-0.6,12.4,0.6c3.7,1.1,5.7,3.6,5.8,7.3
	c0.1,4.1-1.1,7.5-5.2,9.1c-1.8,0.7-3.9,0.8-5.8,1.1C1821.4,199.8,1820.5,199.7,1819.2,199.7z M1819.3,195.7c2.4,0.4,4.6,0.4,6.7-0.4
	s3.2-2.7,3.2-5.1c-0.1-2.3-1.2-3.9-3.5-4.6c-2.1-0.7-4.2-0.8-6.4-0.4C1819.3,188.7,1819.3,192.1,1819.3,195.7z"/>
<path d="M1674.9,196.5c-3.1,0-6.1,0-9.4,0c-0.1,3.5,0,6.8,0,10.5c4.4,0,8.6,0,13,0c0,1.4,0,2.4,0,3.6c-5.7,0-11.2,0-17,0
	c0-9.7,0-19.3,0-29c5.7,0,11.4,0,17.2,0c0,1,0,2,0,3.3c-4.2,0.3-8.6,0-13.1,0.2c-0.5,2.6-0.2,5.1-0.2,7.9c3.2,0,6.2,0,9.5,0
	C1674.9,194.3,1674.9,195.2,1674.9,196.5z"/>
<path d="M1539.7,193.2c0,1.2,0,2.1,0,3.3c-1.6,0-3.2,0.1-4.7,0.1c-1.5,0-3,0-4.9,0c-0.1,3.5,0,6.8,0,10.4c4.3,0.1,8.6,0,13.1,0.1
	c0,1.2,0,2.3,0,3.5c-5.7,0-11.3,0-17,0c0-9.7,0-19.2,0-28.7c1.7-0.5,14.2-0.6,17.3-0.2c0,1,0,1.9,0,3.3c-4.3,0-8.7,0-13.2,0
	c0,2.8,0,5.3,0,8.2C1533.4,193.2,1536.6,193.2,1539.7,193.2z"/>
<path d="M1302.5,197.4c1.8,0,3.5,0,5.4,0c0.1,0.9,0.2,1.7,0.3,3c3-3,6.2-4.6,10.3-3.4c0,1.7,0,3.3,0,5.2c-0.7,0-1.4,0-2.1,0
	c-1.2,0.1-2.4,0.1-3.6,0.4c-3.1,0.9-4.7,3.1-4.7,6.3c0,6.2,0,12.5,0,18.7c0,0.9,0,1.7,0,2.7c-2,0-3.7,0-5.6,0
	C1302.5,219.3,1302.5,208.4,1302.5,197.4z"/>
<path d="M662.1,197.4c1.9,0,3.6,0,5.4,0c0.1,1,0.2,1.8,0.3,2.7c5-3.7,7.1-4.2,10.3-2.9c0,1.5,0,3.1,0,4.9c-1.2,0-2.3,0-3.3,0
	c-2,0-3.8,0.6-5.2,2.1c-1.2,1.2-1.8,2.5-1.8,4.2c0.1,6.3,0,12.6,0,18.9c0,0.9,0,1.8,0,2.8c-1.9,0-3.7,0-5.6,0
	C662.1,219.3,662.1,208.4,662.1,197.4z"/>
<path d="M1640.3,199.8c0,3.5,0,7.1,0,10.8c-1.4,0-2.5,0-3.9,0c0-9.6,0-19.2,0-29c4.3-0.6,8.7-0.7,12.9,0.8c3.5,1.3,5.2,3.8,5.2,7.5
	c0,5.4-2.7,8.7-8.1,9.5C1644.5,199.7,1642.5,199.7,1640.3,199.8z M1640.4,185.2c0,3.7,0,7.2,0,10.6c2.3,0.4,4.5,0.4,6.5-0.4
	c2.2-0.8,3.3-2.6,3.3-5c0-2.4-1-3.9-3.2-4.8C1644.9,184.8,1642.8,184.7,1640.4,185.2z"/>
<path d="M1881.1,204.7c-0.7,2-1.4,3.9-2.2,5.9c-1.4,0-2.7,0-4.4,0c0.8-2.1,1.6-4,2.3-6c0.8-2,1.6-4,2.4-6s1.6-4,2.4-6s1.6-4,2.4-6
	c0.8-1.9,1.3-4,2.5-5.6c0.4,0,0.5,0,0.6,0c0.1,0,0.2,0.1,0.2,0.1c3.5,9.3,7.1,18.6,10.6,27.9c0.2,0.4,0.2,0.9,0.4,1.5
	c-1.5,0-2.8,0-4.3,0c-0.7-2-1.3-3.9-2.1-5.9C1888.4,204.7,1884.9,204.7,1881.1,204.7z M1890.7,201.5c-1.4-4.2-2.6-8.1-4-12.2
	c-1.8,3.6-4.1,10.5-4,12.2C1885.3,201.5,1887.8,201.5,1890.7,201.5z"/>
<path d="M1708.1,210.7c-1.6,0-2.9,0-4.3,0c-0.7-2-1.4-3.9-2.1-5.9c-3.6,0-7.1,0-10.8,0c-0.7,1.9-1.4,3.9-2.2,5.9c-1.4,0-2.8,0-4.4,0
	c0.3-0.8,0.5-1.5,0.7-2.1c3.4-8.5,6.8-17,10.2-25.5c0.3-0.7,0.8-1.7,1.3-1.8c1-0.2,1,1,1.3,1.7c1,2.6,1.9,5.2,2.9,7.8
	c2.2,5.8,4.3,11.6,6.5,17.4C1707.6,208.9,1707.8,209.7,1708.1,210.7z M1692,201.6c3,0,5.6,0.1,8.5-0.1c-1.3-4.2-2.6-8-3.8-11.8
	c-0.2,0-0.3,0-0.5,0C1694.8,193.5,1693.5,197.3,1692,201.6z"/>
<path d="M1808.6,210.6c-1.3,0-2.7,0-4.1,0c-0.7-2-1.3-3.9-2-5.9c-3.6,0-7.1,0-10.8,0c-0.7,1.9-1.4,3.9-2.2,6c-1.4,0-2.8,0-4.5,0
	c0.9-2.1,1.7-4.1,2.4-6.1c0.8-2,1.6-4,2.4-6s1.6-4,2.4-6s1.6-4,2.4-6c0.8-1.9,1.2-4,2.7-5.7C1798.7,182.5,1808.3,208.2,1808.6,210.6
	z M1797.5,189.6c-0.2,0-0.3,0-0.5,0c-1.4,3.9-2.7,7.7-4.2,11.9c3-0.1,5.6,0.2,8.5-0.3C1799.9,197.3,1798.7,193.5,1797.5,189.6z"/>
<path d="M1777.5,185.6c-1.9-0.4-3.5-0.9-5.2-1c-3.3-0.3-6,1.1-7.6,4c-2.5,4.6-2.7,9.4-0.6,14.1c2.4,5.3,8.3,6.5,12.8,2.8
	c0.2-0.2,0.5-0.4,0.9-0.6c0.7,1,1.3,1.9,2.1,2.9c-3.1,3-6.8,3.9-10.8,3.4c-4.2-0.5-7.1-2.8-8.8-6.6c-2.4-5.4-2.5-10.9-0.1-16.2
	c3.3-7.6,11.6-9,18.4-5.7c-0.2,0.5-0.3,1-0.5,1.5C1778,184.6,1777.7,185.1,1777.5,185.6z"/>
<path d="M1752.6,238.6c-3.2,0-6.1,0-9.1,0c0-1.3,0-2.3,0-3.3c1.7-0.5,19.2-0.7,22.8-0.2c0,1,0,2.1,0,3.4c-3.1,0-6.2,0-9.5,0
	c0,8.6,0,16.9,0,25.4c-1.5,0-2.7,0-4.2,0C1752.6,255.5,1752.6,247.2,1752.6,238.6z"/>
<path d="M1634.9,250.1c0,4.9,0,9.3,0,14c-1.3,0-2.5,0-3.8,0c0-9.6,0-19.2,0-29c5.7,0,11.4,0,17.1,0c0,1.2,0,2.2,0,3.5
	c-4.4,0-8.7,0-13.2,0c-0.2,2.7-0.1,5.2-0.1,8c3.2,0,6.2,0,9.5,0c0,1.3,0,2.3,0,3.5C1641.3,250.1,1638.3,250.1,1634.9,250.1z"/>
<path d="M982.8,197.4c1.9,0,3.6,0,5.4,0c0,11,0,21.9,0,32.9c-1.9,0-3.6,0-5.4,0C982.8,219.3,982.8,208.4,982.8,197.4z"/>
<path d="M1864.8,185c0,8.6,0,17,0,25.5c-1.4,0-2.6,0-4.2,0c0-8.4,0-16.8,0-25.4c-3.2,0-6,0-9.1,0c0-1.2,0-2.3,0-3.5
	c7.5,0,15,0,22.7,0c0,1,0,2.1,0,3.4C1871.1,185,1868.1,185,1864.8,185z"/>
<path d="M1742.8,260.5c0,1.4,0,2.3,0,3.4c-5.7,0-11.3,0-17.1,0c0-9.7,0-19.2,0-28.9c1.3,0,2.4,0,3.9,0c0.2,8.4,0,16.8,0.1,25.5
	C1734.2,260.5,1738.4,260.5,1742.8,260.5z"/>
<path d="M1840.8,181.6c1.3,0,2.4,0,3.7,0c0,9.7,0,19.2,0,28.9c-1.1,0-2.3,0-3.5,0C1840.5,209,1840.3,187.2,1840.8,181.6z"/>
<path d="M713.3,120.7c0,3-2.3,5.1-5.7,5.1c-3.4,0-5.8-2.1-5.8-5c0-3,2.3-5.1,5.7-5.1C710.9,115.7,713.3,117.7,713.3,120.7z"/>
<path d="M641.8,120.8c0,3-2.4,5-5.8,5c-3.4,0-5.8-2.1-5.7-5.1s2.5-5.1,5.8-5C639.5,115.7,641.8,117.8,641.8,120.8z"/>
<path d="M726.1,176.1c2.2-3.3,2.5-6.9,2.4-10.6c2.3,0,4.4,0,6.8,0c0.6,4.9-1.1,9.1-4.2,13.1C729.5,177.8,728,177,726.1,176.1z"/>
<path d="M985.5,185.1c2,0,3.3,1.3,3.3,3.3c0,2.1-1.3,3.4-3.5,3.3c-2-0.1-3.3-1.4-3.2-3.4C982.2,186.4,983.6,185,985.5,185.1z"/>
</svg>
