<?xml version="1.0" encoding="utf-8"?>
<!-- Generator: Adobe Illustrator 16.0.0, SVG Export Plug-In . SVG Version: 6.00 Build 0)  -->
<!DOCTYPE svg PUBLIC "-//W3C//DTD SVG 1.1//EN" "http://www.w3.org/Graphics/SVG/1.1/DTD/svg11.dtd">
<svg version="1.1" id="Layer_1" xmlns="http://www.w3.org/2000/svg" xmlns:xlink="http://www.w3.org/1999/xlink" x="0px" y="0px"
	 width="304.195px" height="70.865px" viewBox="0 0 304.195 70.865" enable-background="new 0 0 304.195 70.865"
	 xml:space="preserve">
<path d="M142.834,9.422c0.076-1.394,1.086-2.602,2.639-2.602c1.483,0,2.455,1.1,2.461,2.602H142.834z M134.342,13.749
	c-1.707,0-2.595-1.502-2.595-3.471c0-1.949,0.869-3.413,2.595-3.413c1.668,0,2.563,1.361,2.563,3.413
	C136.905,12.343,135.991,13.749,134.342,13.749z M155.889,13.749c-1.707,0-2.595-1.502-2.595-3.471c0-1.949,0.869-3.413,2.595-3.413
	c1.668,0,2.563,1.361,2.563,3.413C158.453,12.343,157.539,13.749,155.889,13.749z M169.561,10.278c0-2.052,0.896-3.413,2.563-3.413
	c1.731,0,2.602,1.464,2.602,3.413c0,1.969-0.895,3.471-2.602,3.471C170.482,13.749,169.561,12.343,169.561,10.278z M99.445,15.187
	h1.975V9.479h5.561V7.785h-5.561V3.797h6.143v-1.7h-8.118V15.187z M121.548,9.358c0-1.566,0.959-2.461,2.289-2.461
	c1.297,0,2.084,0.85,2.084,2.275v6.015h1.911V8.942c0-2.429-1.336-3.701-3.343-3.701c-1.477,0-2.442,0.684-2.896,1.726h-0.121V5.369
	h-1.835v9.818h1.911V9.358z M115.3,11.116c0.007,1.668-1.233,2.46-2.307,2.46c-1.183,0-2.001-0.856-2.001-2.192V5.369h-1.911v6.245
	c0,2.435,1.336,3.701,3.221,3.701c1.477,0,2.481-0.78,2.934-1.828h0.103v1.7h1.879V5.369H115.3V11.116z M133.92,15.379
	c1.79,0,2.493-1.093,2.838-1.719h0.16v1.527h1.866V2.097h-1.911v4.864h-0.115c-0.345-0.607-0.997-1.72-2.825-1.72
	c-2.372,0-4.117,1.873-4.117,5.056C129.816,13.474,131.536,15.379,133.92,15.379z M155.466,15.379c1.791,0,2.494-1.093,2.839-1.719
	h0.159v1.527h1.867V2.097h-1.912v4.864h-0.114c-0.345-0.607-0.997-1.72-2.825-1.72c-2.371,0-4.116,1.873-4.116,5.056
	C151.364,13.474,153.083,15.379,155.466,15.379z M167.689,15.187h1.866V13.66h0.159c0.346,0.626,1.049,1.719,2.838,1.719
	c2.379,0,4.104-1.905,4.104-5.082c0-3.183-1.751-5.056-4.121-5.056c-1.822,0-2.479,1.113-2.818,1.72H169.6V2.097h-1.911V15.187
	L167.689,15.187z M145.595,15.385c2.141,0,3.656-1.054,4.091-2.652l-1.809-0.326c-0.345,0.927-1.176,1.4-2.263,1.4
	c-1.636,0-2.736-1.061-2.787-2.953h6.98v-0.678c0-3.548-2.122-4.935-4.346-4.935c-2.736,0-4.539,2.084-4.539,5.101
	C140.922,13.391,142.699,15.385,145.595,15.385z M179.517,18.869c1.579,0,2.576-0.825,3.146-2.371l4.045-11.129h-2.053l-2.486,7.619
	h-0.103l-2.485-7.619h-2.045l3.592,9.946l-0.236,0.652c-0.486,1.304-1.17,1.413-2.219,1.125l-0.459,1.566
	C178.443,18.76,178.942,18.869,179.517,18.869z M233.791,27.687c1.172,0,2.133-0.896,2.133-1.994c0-1.09-0.961-1.985-2.133-1.985
	c-1.164,0-2.125,0.895-2.125,1.985C231.666,26.791,232.626,27.687,233.791,27.687z M204.046,27.687c1.172,0,2.133-0.896,2.133-1.994
	c0-1.09-0.961-1.985-2.133-1.985c-1.164,0-2.123,0.895-2.123,1.985C201.923,26.791,202.882,27.687,204.046,27.687z M120.382,27.687
	c1.173,0,2.133-0.896,2.133-1.994c0-1.09-0.96-1.985-2.133-1.985c-1.163,0-2.123,0.895-2.123,1.985
	C118.259,26.791,119.219,27.687,120.382,27.687z M161.189,40.927c-1.984,0-3-1.818-3-4.293s1.016-4.303,3-4.303
	c1.949,0,2.965,1.828,2.965,4.303C164.154,39.106,163.138,40.927,161.189,40.927z M258.878,40.927c-1.985,0-3-1.818-3-4.293
	s1.015-4.303,3-4.303c1.947,0,2.963,1.828,2.963,4.303C261.841,39.106,260.826,40.927,258.878,40.927z M273.057,41.25
	c-1.209,0-2.077-0.562-2.077-1.644c0-1.107,0.914-1.652,2.299-1.848c0.858-0.119,2.264-0.322,2.733-0.637v1.505
	C276.011,40.113,274.785,41.25,273.057,41.25z M297.333,41.25c-1.209,0-2.078-0.562-2.078-1.644c0-1.107,0.916-1.652,2.299-1.848
	c0.859-0.119,2.264-0.322,2.734-0.637v1.505C300.289,40.113,299.06,41.25,297.333,41.25z M282.455,43.697h3.934v-8.024
	c0-1.745,1.273-2.945,3.009-2.945c0.545,0,1.293,0.092,1.662,0.212v-3.49c-0.351-0.083-0.841-0.138-1.237-0.138
	c-1.588,0-2.89,0.923-3.406,2.677h-0.146v-2.474h-3.812v14.182H282.455z M177.824,29.515h-2.814v-0.951
	c0-0.96,0.388-1.523,1.541-1.523c0.472,0,0.951,0.101,1.266,0.203l0.693-2.955c-0.49-0.148-1.57-0.388-2.78-0.388
	c-2.668,0-4.651,1.505-4.651,4.589v1.025h-2.004v2.955h2.004v11.229h3.932V32.47h2.816v-2.955H177.824z M231.813,43.697h3.935
	V29.515h-3.935V43.697z M208.625,43.697h3.933v-8.513c0-1.57,0.997-2.613,2.308-2.613c1.293,0,2.161,0.886,2.161,2.281v8.845h3.813
	v-8.661c0-1.468,0.84-2.465,2.271-2.465c1.257,0,2.198,0.785,2.198,2.364v8.762h3.924v-9.539c0-3.074-1.828-4.829-4.469-4.829
	c-2.077,0-3.693,1.062-4.275,2.687h-0.146c-0.452-1.643-1.902-2.687-3.852-2.687c-1.91,0-3.359,1.016-3.949,2.687h-0.168v-2.502
	h-3.748V43.697L208.625,43.697z M202.071,43.697h3.935V29.515h-3.935V43.697z M184.568,28.084h5.789v15.613h3.951V28.084h5.789
	v-3.296h-15.529V28.084z M118.407,43.697h3.933V29.515h-3.933V43.697z M132.502,29.515h-2.668v-3.398h-3.933v3.398h-1.939v2.955
	h1.939v7.387c-0.019,2.778,1.874,4.154,4.727,4.035c1.016-0.037,1.736-0.24,2.133-0.369l-0.619-2.929
	c-0.194,0.037-0.609,0.132-0.978,0.132c-0.785,0-1.33-0.298-1.33-1.387V32.47h2.668V29.515z M116.129,31.408
	c-0.526-4.367-3.832-6.879-8.208-6.879c-4.995,0-8.808,3.527-8.808,9.713c0,6.168,3.748,9.713,8.808,9.713
	c4.847,0,7.774-3.224,8.208-6.703l-4.044-0.019c-0.379,2.021-1.967,3.186-4.1,3.186c-2.871,0-4.819-2.133-4.819-6.177
	c0-3.933,1.92-6.177,4.847-6.177c2.188,0,3.767,1.265,4.072,3.343H116.129z M271.931,43.964c2.096,0,3.453-0.914,4.145-2.232h0.111
	v1.967h3.73v-9.566c0-3.379-2.862-4.801-6.021-4.801c-3.396,0-5.632,1.625-6.176,4.211l3.637,0.295
	c0.27-0.942,1.107-1.634,2.521-1.634c1.338,0,2.104,0.674,2.104,1.837v0.056c0,0.914-0.971,1.034-3.436,1.274
	c-2.805,0.258-5.326,1.199-5.326,4.367C267.222,42.543,269.225,43.964,271.931,43.964z M296.208,43.964
	c2.096,0,3.453-0.914,4.145-2.232h0.111v1.967h3.73v-9.566c0-3.379-2.861-4.801-6.021-4.801c-3.397,0-5.631,1.625-6.176,4.211
	l3.637,0.295c0.269-0.942,1.109-1.634,2.521-1.634c1.34,0,2.105,0.674,2.105,1.837v0.056c0,0.914-0.971,1.034-3.436,1.274
	c-2.808,0.258-5.326,1.199-5.326,4.367C291.5,42.543,293.501,43.964,296.208,43.964z M161.171,43.976
	c4.303,0,6.979-2.947,6.979-7.313c0-4.395-2.678-7.331-6.979-7.331c-4.303,0-6.98,2.936-6.98,7.331
	C154.191,41.026,156.869,43.976,161.171,43.976z M258.86,43.976c4.304,0,6.979-2.947,6.979-7.313c0-4.395-2.678-7.331-6.979-7.331
	s-6.979,2.936-6.979,7.331C251.88,41.026,254.557,43.976,258.86,43.976z M250.166,33.559c-0.352-2.613-2.455-4.229-6.037-4.229
	c-3.629,0-6.021,1.681-6.012,4.414c-0.01,2.123,1.329,3.498,4.1,4.053l2.457,0.489c1.236,0.25,1.8,0.702,1.818,1.413
	c-0.02,0.84-0.934,1.438-2.31,1.438c-1.403,0-2.336-0.6-2.576-1.754l-3.868,0.203c0.369,2.715,2.678,4.387,6.436,4.387
	c3.676,0,6.307-1.875,6.314-4.673c-0.009-2.05-1.348-3.278-4.099-3.841l-2.567-0.517c-1.318-0.286-1.809-0.739-1.8-1.422
	c-0.009-0.849,0.951-1.403,2.17-1.403c1.366,0,2.179,0.748,2.372,1.662L250.166,33.559z M47.244,35.433
	c0,6.481,5.315,11.811,11.811,11.811c6.496,0,11.811-5.33,11.811-11.811s-5.315-11.811-11.811-11.811
	C52.559,23.622,47.244,28.952,47.244,35.433z M136.968,49.017c2.927,0,4.478-1.496,5.281-3.787l5.512-15.713h-4.164l-2.963,10.415
	h-0.148l-2.936-10.415h-4.136l5.087,14.588l-0.231,0.6c-0.517,1.33-1.505,1.395-2.89,0.969l-0.886,2.938
	C135.057,48.851,135.971,49.017,136.968,49.017z M241.248,49.753h2.76l2.021-4.562h-3.638L241.248,49.753z M219.466,55.565
	c0.658,0,1.207-0.51,1.207-1.137s-0.549-1.145-1.207-1.145c-0.666,0-1.209,0.518-1.209,1.145S218.8,55.565,219.466,55.565z
	 M192.175,60.623v-5.12h2.479c1.956,0,2.757,1.062,2.757,2.544c0,1.482-0.801,2.576-2.73,2.576H192.175z M224.328,61.135
	c0.076-1.395,1.088-2.602,2.641-2.602c1.482,0,2.453,1.1,2.461,2.602H224.328z M141.491,61.135c0.077-1.395,1.087-2.602,2.64-2.602
	c1.483,0,2.455,1.1,2.461,2.602H141.491z M114.009,61.135c0.077-1.395,1.087-2.602,2.64-2.602c1.483,0,2.455,1.1,2.461,2.602
	H114.009z M211.964,65.494c-1.81,0-2.652-1.579-2.652-3.465c0-1.88,0.844-3.479,2.652-3.479c1.797,0,2.641,1.599,2.641,3.479
	C214.605,63.915,213.761,65.494,211.964,65.494z M172.096,65.494c-1.81,0-2.653-1.579-2.653-3.465c0-1.88,0.844-3.479,2.653-3.479
	c1.796,0,2.64,1.599,2.64,3.479C174.736,63.915,173.892,65.494,172.096,65.494z M166.519,57.082h-2.115v-0.883
	c0-0.868,0.357-1.343,1.291-1.343c0.396,0,0.678,0.091,0.855,0.147l0.447-1.547c-0.269-0.103-0.824-0.263-1.599-0.263
	c-1.553,0-2.914,0.908-2.914,2.75v1.137h-1.517v1.533h1.517v8.285h1.918v-8.284h2.115L166.519,57.082L166.519,57.082z
	 M124.879,61.069c0-1.564,0.958-2.461,2.288-2.461c1.298,0,2.084,0.852,2.084,2.276v6.015h1.911v-6.245c0-2.429-1.336-3.7-3.343-3.7
	c-1.477,0-2.442,0.686-2.896,1.727h-0.121v-1.599h-1.835v9.817h1.912V61.069z M190.201,66.899h1.977v-4.603h2.684
	c3.037,0,4.539-1.834,4.539-4.251c0-2.408-1.488-4.236-4.531-4.236h-4.666v13.09H190.201z M150.45,66.899h1.911v-5.995
	c0-1.284,0.99-2.212,2.346-2.212c0.396,0,0.844,0.07,0.998,0.115v-1.828c-0.192-0.025-0.57-0.045-0.812-0.045
	c-1.15,0-2.135,0.651-2.493,1.707h-0.102v-1.561h-1.847V66.899z M201.41,66.899h1.91v-5.995c0-1.284,0.991-2.212,2.348-2.212
	c0.396,0,0.844,0.07,0.996,0.115v-1.828c-0.191-0.025-0.568-0.045-0.812-0.045c-1.149,0-2.136,0.651-2.493,1.707h-0.102v-1.561
	h-1.848V66.899z M178.651,66.899h1.911v-5.995c0-1.284,0.99-2.212,2.346-2.212c0.396,0,0.844,0.07,0.997,0.115v-1.828
	c-0.19-0.025-0.567-0.045-0.812-0.045c-1.151,0-2.135,0.651-2.493,1.707h-0.103v-1.561h-1.848L178.651,66.899L178.651,66.899z
	 M247.945,57.082h-2.013v-2.353h-1.911v2.353h-1.438v1.533h1.438v5.799c-0.007,1.783,1.355,2.646,2.863,2.612
	c0.605-0.006,1.016-0.12,1.24-0.202l-0.347-1.579c-0.128,0.023-0.362,0.083-0.671,0.083c-0.62,0-1.176-0.205-1.176-1.312v-5.401
	h2.013L247.945,57.082L247.945,57.082z M138.158,57.082h-2.014v-2.353h-1.911v2.353h-1.438v1.533h1.438v5.799
	c-0.006,1.783,1.355,2.646,2.864,2.612c0.607-0.006,1.016-0.12,1.24-0.202l-0.345-1.579c-0.128,0.023-0.365,0.083-0.671,0.083
	c-0.62,0-1.177-0.205-1.177-1.312v-5.401h2.014V57.082z M110.471,58.065c-0.447-2.799-2.64-4.436-5.407-4.436
	c-3.388,0-5.887,2.537-5.887,6.725s2.486,6.725,5.887,6.725c2.876,0,4.979-1.803,5.407-4.393l-1.994-0.006
	c-0.339,1.674-1.745,2.596-3.401,2.596c-2.243,0-3.937-1.721-3.937-4.922c0-3.178,1.687-4.922,3.944-4.922
	c1.668,0,3.068,0.939,3.394,2.633H110.471z M172.089,67.101c2.768,0,4.576-2.027,4.576-5.063c0-3.056-1.81-5.082-4.576-5.082
	c-2.768,0-4.576,2.026-4.576,5.082C167.513,65.072,169.322,67.101,172.089,67.101z M211.958,67.101c2.768,0,4.576-2.027,4.576-5.063
	c0-3.056-1.81-5.082-4.576-5.082c-2.769,0-4.576,2.026-4.576,5.082C207.382,65.072,209.191,67.101,211.958,67.101z M227.087,67.101
	c2.143,0,3.658-1.057,4.092-2.654l-1.809-0.325c-0.347,0.927-1.178,1.399-2.264,1.399c-1.637,0-2.734-1.062-2.787-2.953h6.98V61.89
	c0-3.548-2.123-4.936-4.348-4.936c-2.736,0-4.537,2.084-4.537,5.102C222.417,65.104,224.193,67.101,227.087,67.101z M237.421,67.101
	c2.318,0,3.822-1.396,4.033-3.307h-1.861c-0.242,1.062-1.066,1.688-2.159,1.688c-1.617,0-2.659-1.349-2.659-3.49
	c0-2.102,1.062-3.426,2.659-3.426c1.214,0,1.956,0.768,2.159,1.688h1.861c-0.205-1.98-1.822-3.299-4.054-3.299
	c-2.769,0-4.558,2.084-4.558,5.082C232.843,64.996,234.57,67.101,237.421,67.101z M257.102,59.479
	c-0.396-1.526-1.593-2.524-3.714-2.524c-2.219,0-3.791,1.17-3.791,2.909c0,1.393,0.844,2.32,2.686,2.729l1.661,0.365
	c0.946,0.21,1.388,0.632,1.388,1.246c0,0.761-0.812,1.355-2.064,1.355c-1.145,0-1.879-0.492-2.109-1.457l-1.847,0.279
	c0.319,1.739,1.765,2.719,3.969,2.719c2.372,0,4.015-1.262,4.015-3.037c0-1.389-0.881-2.244-2.685-2.66l-1.56-0.357
	c-1.08-0.255-1.547-0.62-1.541-1.284c-0.006-0.755,0.812-1.292,1.898-1.292c1.188,0,1.738,0.659,1.963,1.317L257.102,59.479z
	 M116.771,67.101c2.141,0,3.656-1.057,4.09-2.654l-1.809-0.325c-0.345,0.927-1.176,1.399-2.262,1.399
	c-1.637,0-2.736-1.062-2.787-2.953h6.98V61.89c0-3.548-2.122-4.936-4.347-4.936c-2.735,0-4.538,2.084-4.538,5.102
	C112.098,65.104,113.875,67.101,116.771,67.101z M144.253,67.101c2.141,0,3.656-1.057,4.09-2.654l-1.808-0.325
	c-0.346,0.927-1.177,1.399-2.263,1.399c-1.637,0-2.736-1.062-2.787-2.953h6.98V61.89c0-3.548-2.122-4.936-4.347-4.936
	c-2.735,0-4.538,2.084-4.538,5.102C139.58,65.104,141.357,67.101,144.253,67.101z M218.52,57.082v10.444
	c0,0.906-0.377,1.406-1.285,1.406h-0.308v1.644c0.136,0.006,0.257,0.006,0.391,0.006c2.033,0,3.113-1.074,3.113-3.042V57.082H218.52
	z M23.622,59.036v0.038c0.01,6.473,5.321,11.791,11.811,11.791c6.496,0,11.811-5.329,11.811-11.812
	c0-6.474-5.305-11.8-11.792-11.811h-0.038c-6.488-0.012-11.792-5.338-11.792-11.811c0-6.481,5.315-11.811,11.811-11.811
	s11.811-5.33,11.811-11.811S41.929,0,35.433,0S23.622,5.33,23.622,11.811s-5.315,11.811-11.811,11.811S0,28.952,0,35.433
	s5.315,11.811,11.811,11.811C18.3,47.244,23.611,52.562,23.622,59.036z M84.138,70.865h2V0h-2V70.865z"/>
</svg>
