<?xml version="1.0" encoding="utf-8"?>
<!-- Generator: Adobe Illustrator 16.0.0, SVG Export Plug-In . SVG Version: 6.00 Build 0)  -->
<!DOCTYPE svg PUBLIC "-//W3C//DTD SVG 1.1//EN" "http://www.w3.org/Graphics/SVG/1.1/DTD/svg11.dtd">
<svg version="1.1" id="Nokia_Logo" xmlns="http://www.w3.org/2000/svg" xmlns:xlink="http://www.w3.org/1999/xlink" x="0px" y="0px"
	 width="85.039px" height="13.855px" viewBox="0 0 85.039 13.855" enable-background="new 0 0 85.039 13.855" xml:space="preserve">
<g>
	<g>
		<g>
			<g>
				<path d="M15.204,10.266L7.081,0.223H0v13.454h4.09V3.461l8.271,10.216H19.3V0.223h-4.096V10.266z M33.418,0h-6.995
					c-2.439,0-3.7,0.28-4.57,1.202c-0.558,0.618-0.91,1.263-0.91,3.131V9.52c0,1.869,0.352,2.514,0.91,3.131
					c0.871,0.928,2.131,1.205,4.57,1.205h6.995c2.426,0,3.7-0.277,4.572-1.205c0.558-0.617,0.904-1.262,0.904-3.131V4.333
					c0-1.868-0.346-2.513-0.904-3.131C37.118,0.28,35.845,0,33.418,0z M35.036,8.979c0,0.786-0.085,1.027-0.301,1.214
					c-0.218,0.192-0.557,0.245-1.491,0.245h-6.647c-0.936,0-1.264-0.053-1.495-0.245c-0.203-0.187-0.294-0.428-0.294-1.214V4.873
					c0-0.795,0.091-1.026,0.294-1.211c0.23-0.201,0.559-0.251,1.495-0.251h6.647c0.934,0,1.273,0.05,1.491,0.251
					c0.216,0.185,0.301,0.416,0.301,1.211V8.979z M40.567,0.223v13.454h4.278V6.662V0.223H40.567z M57.714,0.223h-5.638l-7.23,6.439
					l7.807,7.015H58.7l-8.602-7.163L57.714,0.223z M59.483,13.677h4.285V0.223h-4.285V13.677z M77.463,0.223h-5.321l-7.579,13.454
					h4.72l1.258-2.338h8.275l1.266,2.338h4.958L77.463,0.223z M72.023,8.417l2.658-4.876l2.653,4.876H72.023z"/>
			</g>
		</g>
	</g>
</g>
</svg>
