<?xml version="1.0" encoding="utf-8"?>
<!-- Generator: Adobe Illustrator 27.2.0, SVG Export Plug-In . SVG Version: 6.00 Build 0)  -->
<svg version="1.1" id="Layer_1" xmlns="http://www.w3.org/2000/svg" xmlns:xlink="http://www.w3.org/1999/xlink" x="0px" y="0px"
	 viewBox="0 0 991.9 562.9" style="enable-background:new 0 0 991.9 562.9;" xml:space="preserve">
<style type="text/css">
	.st0{fill:none;}
</style>
<g id="Layer_1_00000049917038500132278620000012554961341736055740_">
	<g>
		<path d="M163.4,475.8c-9.5-9.5-18.7-18.7-28.1-28.1c1-1,2.2-2.3,3.4-3.6c41.8-41.7,83.5-83.6,125.5-125.2
			c14.4-14.2,16.5-38.9,7.5-54.4c-2.3-4-6.1-7.1-9.5-11.1c-2.8,6.6-4.6,12.4-7.7,17.4c-4.5,7.3-9.1,14.9-15,20.9
			c-24.3,24.9-49.1,49.3-73.7,73.9c-0.6,0.6-1.2,1.1-1.5,1.3c-9.4-9.4-18.6-18.6-28.9-28.9c0.8-0.5,2.7-1.2,3.9-2.5
			c23.6-23.5,47.2-47,70.7-70.5c14.9-14.9,18.3-36.5,8.6-55c-1.1-2.2-2.7-4.2-4.5-5.9c-25.3-25.3-50.6-50.6-75.9-75.9
			c-1-1-2-2.1-2.8-2.9c9.4-9.3,18.7-18.4,28.3-27.8c0.4,0.4,1.7,1.4,2.8,2.6c41.5,41.4,83,82.7,124.4,124.2
			c35.6,35.6,35.5,88.8-0.1,124.4c-41.4,41.4-82.9,82.8-124.4,124.2C165.5,473.9,164.4,474.9,163.4,475.8z"/>
		<path d="M115.6,144.2c9.4,9.4,18.4,18.4,28.4,28.4c-4.6,4.3-9.5,8.6-14.2,13.3c-22.6,22.4-45.1,44.9-67.5,67.4
			c-14.9,14.9-18.5,37.2-8.4,55.4c2.3,4.2,6.2,7.4,10.1,11.9c4.2-13.6,9.7-24.7,17.9-34.5c0.9-1,1.7-2,2.6-3
			c25-24.9,49.9-49.9,74.9-74.8c0.8-0.8,1.7-1.5,2.3-2c9.2,9.2,18.2,18.2,27.7,27.7c-0.9,0.9-2.1,2.3-3.5,3.7
			c-23.9,23.9-47.8,47.7-71.8,71.6c-13.6,13.6-16.7,38.2-6.7,54.7c1.6,2.6,4.1,4.8,6.3,7c7.6,7.6,15.3,15.1,22.8,22.5
			c-9.6,9.5-18.6,18.5-28.1,27.8c-0.5-0.5-1.7-1.3-2.7-2.3c-24.4-24.3-48.9-48.6-73.2-73C3,316.4-0.3,267.2,26.1,234.7
			c11.7-14.4,25.7-27,38.8-40.2c15.7-15.9,31.6-31.5,47.4-47.3C113.4,146.2,114.5,145.3,115.6,144.2z"/>
		<path d="M692.2,256.7c-18.7,0-37.3,0-56,0c-6.2,0-6.8,0.9-5.3,7.1c7.4,29.8,32.8,41.9,60.4,37.8c10.3-1.5,19.3-5.5,27.8-11.3
			s17.4-4.3,23.2,3.5c5.2,6.9,3.9,15.7-3.7,22c-12.6,10.4-27.2,16.4-43.3,18.5c-24,3.1-46.8-0.6-67-14.5
			c-24.2-16.5-36.4-40.1-38.6-69.1c-1.6-21.3,2.6-41.2,14.4-59.2c14.6-22.2,35-35.9,61.4-40c24.5-3.8,46.5,2.3,65.4,18.4
			c12.7,10.8,20.8,25,25,41c2.8,10.6,4,21.8,5,32.8c0.8,8.1-4.6,13-12.7,13C729.5,256.7,710.8,256.7,692.2,256.7z M674.8,230.3
			L674.8,230.3c13.3,0,26.7-0.1,40,0c4.5,0.1,6.2-1.7,5.1-6c-0.7-3.1-1.3-6.2-2.3-9.2c-8.3-25.3-32.8-38-57-29
			c-17.4,6.5-25.9,20.5-30,37.7c-1.3,5.6-0.7,6.4,5.2,6.4C648.9,230.3,661.9,230.3,674.8,230.3z"/>
		<path d="M447.1,159.5c10.2,0,19.7,0,29.1,0c10.3,0,17.8,7.2,17.8,16.7c-0.1,9.1-7.8,16.3-17.7,16.4c-8.3,0.1-16.7,0.1-25,0
			c-2.9,0-4.5,0.7-3.7,4c0.3,1.3,0.3,2.6,0.3,4c0,36.9,0,73.8,0,110.7c0,12-5.5,20.2-15.2,23c-10.4,2.9-21.8-3.5-24.5-13.9
			c-0.8-3-1.2-6.2-1.2-9.3c-0.1-37.4-0.1-74.8-0.1-112.2c0-1.8,0-3.6,0-6.2c-4.7,0-9.1,0.1-13.5,0c-9.3-0.3-15.5-6.1-17.1-15.6
			c-1.1-6.5,3.9-14.4,11.3-16.8c2.9-1,6.2-0.7,9.3-0.9c3.1-0.1,6.3,0,9.6,0c0.4-7.7,0.7-14.9,1.3-22.2c2-23.8,12.6-40.7,35.8-46.9
			c12.6-3.4,25.2-3.1,37.8-0.4c9.1,2,14.5,10.7,12.5,19.7c-1.5,7-8.7,13.8-19.1,12.8c-15.7-1.4-27,4.3-27.8,23.6
			C447,150.3,447.1,154.6,447.1,159.5z"/>
		<path d="M557.3,213.1c0,33.9,0,67.8,0,101.7c0,14.7-14.2,24.2-27.7,18.8c-7.6-3-12.7-11.6-12.7-21.4c0-34.7,0-69.5,0-104.2
			c0-31.7,0-63.5,0-95.2c0-11.5,6.5-19.9,16.9-22.1c11.5-2.4,23.3,6.8,23.5,18.7c0.2,15.8,0.1,31.6,0.1,47.4
			C557.3,175.5,557.3,194.3,557.3,213.1z"/>
		<path d="M951.2,172.5c-0.1,7.4-2.9,12.6-7.4,17.1c-46.7,46.4-93.4,92.9-140.2,139.3c-8.2,8.1-20.5,8.3-28.5,0.5
			c-8.2-7.9-8.3-20.7-0.1-29c18.6-18.8,37.4-37.4,56.1-56.1c28.1-28.1,56.3-56.2,84.4-84.3c13.5-13.5,31.6-5.2,35.1,8.5
			C951,170.1,951.1,171.7,951.2,172.5z"/>
		<path d="M810.8,243.7c0-3.1-0.1-4.9,0-6.7c0.5-8.9-2.9-16.2-9-22.4c-8.6-8.8-17.4-17.4-26.1-26.1c-6.2-6.2-8.6-13.4-5.5-21.8
			c3.1-8.5,9.9-13.4,18.5-13.6c4.8-0.1,10.6,2.4,14.2,5.7c10.3,9.2,19.9,19.2,29.5,29.1c9.4,9.7,9.5,25.3,0.2,35.1
			c-5.7,6-11.7,11.8-17.6,17.6C814,241.5,812.9,242.1,810.8,243.7z"/>
		<path d="M880.7,282.7c0-7.1,2.8-13.3,7.5-18.4c5.5-5.8,11.2-11.4,16.9-16.9c0.9-0.9,2.5-1.1,3.7-1.6c0.2,1.2,0.6,2.4,0.5,3.6
			c-0.8,9.7,2.5,17.9,9.3,24.7c8.6,8.6,17.2,17.2,25.8,25.7c6.1,6,8.4,13.1,5.6,21.3c-2.9,8.3-9,13-17.7,13.9
			c-5.9,0.6-11.1-1.2-15.4-5.4c-9.8-9.7-19.6-19.5-29.3-29.3C883.2,295.7,880.7,289.2,880.7,282.7z"/>
		<path d="M468.4,459.3c-18.1,0-32.6-13.3-32.6-30c0-18.4,13.8-32.5,31.8-32.5c17.6,0.1,31.9,13.9,31.9,30.9
			C499.6,445.2,485.7,459.3,468.4,459.3z M467.8,410.4c-9.1,0-16.5,7.8-16.6,17.6c-0.1,9.9,7.5,18.1,16.7,18.1
			c8.9,0,16.4-8.2,16.4-17.9C484.1,418.4,476.7,410.4,467.8,410.4z"/>
		<path d="M918.2,428.1c-0.1,17.6-13.9,31.3-31.3,31.2c-18.1-0.1-32.3-13.5-32.2-30.3c0.1-18.4,14-32.3,32.2-32.1
			C904.4,397,918.3,410.8,918.2,428.1z M870.1,428c0,10.2,7.2,18,16.7,18.1c9,0,16.4-8.1,16.3-17.9c-0.1-9.9-7.3-17.7-16.5-17.7
			C877.4,410.3,870.2,418,870.1,428z"/>
		<path d="M645.9,428.3c0-8.6,0-17.3,0-25.9c0-2.3,0-4.4,3.2-4.3c8.8,0.3,17.6,0.1,26.4,0.9c9.2,0.8,15.4,6.3,19.6,14.3
			c11.4,21.6-2.5,44.9-26.8,44.9c-6.2,0-12.3-0.1-18.5,0.1c-3.1,0.1-4.1-1.1-4-4.1C646,445.5,645.9,436.9,645.9,428.3z M662,444.4
			c7,0.5,13.7,1.4,18.2-5.3c3.8-5.5,3.7-16.5,0-21.9c-4.5-6.6-11.1-6.2-18.2-5.5C662,422.7,662,433.4,662,444.4z"/>
		<path d="M628.9,458.2c-3.2,0-6.1,0.4-8.8-0.1c-2.1-0.4-4.8-1.6-5.9-3.2c-5.8-8.5-11.1-17.3-16.6-26c-1-1.6-2.1-3.2-4.3-4.4
			c0,11,0,21.9,0,33.4c-5.1,0-9.6,0-14.4,0c0-19.7,0-39.4,0-59.7c3.5,0,6.9-0.4,10.1,0.1c1.6,0.3,3.5,1.7,4.4,3.2
			c5.8,9.1,11.4,18.3,17.1,27.5c1,1.6,2.1,3,4.2,4c0-11.4,0-22.7,0-34.5c4.9,0,9.4,0,14.3,0C628.9,418.2,628.9,437.8,628.9,458.2z"
			/>
		<path d="M934,398c3.7,0,7.2-0.3,10.6,0.1c1.3,0.1,2.8,1.5,3.6,2.7c6.2,9.8,12.2,19.8,18.4,29.6c0.8,1.3,1.8,2.5,3.7,3.4
			c0-2.2,0-4.4,0-6.6c-0.1-8.8-0.4-17.6-0.3-26.4c0-1,1.8-2.7,2.9-2.8c3.4-0.4,6.9-0.1,10.9-0.1c0,20.1,0,39.9,0,60.2
			c-3.6,0-7,0.3-10.4-0.1c-1.5-0.2-3.1-1.7-4-3c-5.9-9.1-11.6-18.2-17.3-27.3c-0.8-1.3-1.8-2.4-2.7-3.6c-0.4,0.2-0.8,0.3-1.2,0.5
			c0,8.2,0,16.4,0,24.6c0,9.2,0,9.2-9.3,9.1c-1.5,0-2.9,0-4.8,0C934,438.2,934,418.5,934,398z"/>
		<path d="M514.8,398.2c5.1,0,9.6,0,14.8,0c0,2.1,0,4,0,5.9c0.2,11.6,0,23.3,0.6,34.9c0.3,5.9,5.6,8.7,10.8,6.5
			c4.1-1.7,4.5-5.5,4.5-9.2c0.1-10.8,0-21.6,0-32.4c0-1.8,0-3.6,0-5.6c5.1,0,9.7,0,15,0c0,5.5,0,11,0,16.4c0,8.3,0.2,16.6-0.3,24.9
			c-0.6,9.9-7.6,17.5-17.1,19.4c-10.6,2.1-21.4-2.2-26-10.6c-1.3-2.4-2.4-5.3-2.4-8C514.7,426.6,514.8,412.6,514.8,398.2z"/>
		<path d="M765.4,458.2c-4.7,0-9.1,0.3-13.3-0.2c-1.5-0.2-3.5-2.3-3.9-3.9c-1-3.8-2.9-5.2-6.7-4.8c-3,0.3-6,0.3-9,0
			c-5-0.5-8.8,0.3-9.7,6.2c-0.2,1-2.3,2.4-3.6,2.5c-4.1,0.3-8.3,0.1-13.3,0.1c2.8-7.3,5.4-14,8-20.7c4.7-11.7,9.7-23.3,14-35.1
			c1.9-5.2,5.5-4.1,9.1-4.4c3.5-0.3,5.2,0.9,6.6,4.3c6.7,17.5,13.8,34.9,20.7,52.3C764.8,455.5,765,456.6,765.4,458.2z M729.6,437.1
			c4.4,0,8.3,0,12.7,0c-2-6.6-3.9-12.8-5.7-18.9c-0.5,0.1-0.9,0.1-1.4,0.2C733.3,424.6,731.5,430.7,729.6,437.1z"/>
		<path d="M405.1,435.2c0,6.7-0.1,12.8,0,18.9c0.1,3-0.8,4.3-4,4.1c-3.3-0.2-6.6,0-10.2,0c0-20.1,0-39.8,0-59.8c10.6,0,21.1,0,32,0
			c0,4.2,0,8.3,0,12.8c-5.7,0-11.3,0-17.4,0c0,3.6,0,6.8,0,10.8c4.1,0,8.2,0.3,12.3-0.1c4.3-0.4,5.4,1.4,5.3,5.4
			c-0.3,9,0.9,7.8-8.1,7.9C411.9,435.3,409,435.2,405.1,435.2z"/>
		<path d="M799.6,457.9c-5.4,0-10,0-15.1,0c0-15.4,0-30.7,0-46.4c-4,0-7.6,0-11.7,0c0-4.7,0-8.8,0-13.3c12.6,0,25.2,0,38,0
			c0,4.3,0,8.3,0,13c-3.6,0-7.2,0-11.3,0C799.6,427.1,799.6,442.3,799.6,457.9z"/>
		<path d="M839.2,398c0,20.2,0,39.8,0,59.9c-4.8,0-9.5,0-14.6,0c-0.2-2.4-0.7-4.7-0.7-7c-0.1-15.8,0.1-31.5-0.1-47.3
			c0-4.2,1.1-6.2,5.7-5.7C832.6,398.3,835.8,398,839.2,398z"/>
		<path d="M983.1,323.9c0,5.5-5.3,10.7-10.5,10.5c-5.5-0.2-10.3-5.3-10.2-10.8c0.1-5.3,5-10.1,10.3-10.2
			C978.1,313.3,983.2,318.4,983.1,323.9z"/>
		<path class="st0" d="M903.1,428.1c0.1,9.8-7.3,17.9-16.3,17.9c-9.5,0-16.7-7.8-16.7-18"/>
		<path class="st0" d="M735.1,418.4c0.5-0.1,0.9-0.1,1.4-0.2c1.9,6.1,3.7,12.3,5.7,18.9c-4.3,0-8.2,0-12.6,0"/>
	</g>
</g>
</svg>
