<?xml version="1.0" encoding="utf-8"?>
<!-- Generator: Adobe Illustrator 16.0.0, SVG Export Plug-In . SVG Version: 6.00 Build 0)  -->
<!DOCTYPE svg PUBLIC "-//W3C//DTD SVG 1.1//EN" "http://www.w3.org/Graphics/SVG/1.1/DTD/svg11.dtd">
<svg version="1.1" id="Layer_1" xmlns="http://www.w3.org/2000/svg" xmlns:xlink="http://www.w3.org/1999/xlink" x="0px" y="0px"
	 width="378.443px" height="87.291px" viewBox="0 0 378.443 87.291" enable-background="new 0 0 378.443 87.291"
	 xml:space="preserve">
<g>
	<path d="M337.955,38.812V38.8h-11.829V9.677h20.383c11.249,0,18.024,3.752,18.024,14.214c0,10.706-6.353,14.922-17.541,14.922
		H337.955z M182.204,77.613H161.82V48.478h13.986h6.881c11.189,0,17.542,4.216,17.542,14.922
		C200.229,73.861,193.453,77.613,182.204,77.613 M161.82,9.677h13.481c11.248,0,18.024,3.752,18.024,14.214
		c0,10.529-6.155,14.771-17.001,14.909H161.82V9.677z M87.697,38.8l8.956-25.554h0.363l8.956,25.554H87.697z M358.242,46.736
		c10.948-3.447,17.541-11.051,17.541-23.208C375.783,7.804,364.774,0,347.96,0h-32.722v38.8h-71.314v-0.998V9.798h43.186V0h-54.073
		v38.8h-33.512c3.241-3.909,5.051-8.963,5.051-15.271C204.575,7.804,193.566,0,176.752,0h-25.819v38.8h-34.411L102.218,0H91.452
		L77.147,38.8H10.888V9.798h42.096V0H0v87.277h10.888V49.476v-0.998h62.691l-14.306,38.8h11.433l13.599-38.8h25.059l13.598,38.8
		h11.433l-14.305-38.8h30.843v38.813h32.722c16.813,0,27.823-7.805,27.823-23.529c0-6.304-1.783-11.377-5.021-15.284h26.579v38.8
		h54.073v-9.798h-43.186V48.478h71.314v38.8h10.888v-38.8h11.829V48.43h9.037l18.69,38.848h12.761L358.242,46.736z"/>
</g>
</svg>
