<?xml version="1.0" encoding="utf-8"?>
<!-- Generator: Adobe Illustrator 27.2.0, SVG Export Plug-In . SVG Version: 6.00 Build 0)  -->
<svg version="1.1" id="Layer_1" xmlns="http://www.w3.org/2000/svg" xmlns:xlink="http://www.w3.org/1999/xlink" x="0px" y="0px"
	 viewBox="0 0 439 330.9" style="enable-background:new 0 0 439 330.9;" xml:space="preserve">
<style type="text/css">
	.st0{fill:#010202;}
</style>
<g>
	<path class="st0" d="M0,326.7L40.5,257h31.7l40.7,69.8H82.1l-5.9-10.7H33l-6,10.7H0V326.7z M67,299.8c-4.1-7.6-8.3-14.8-12.4-22.3
		c-4.2,7.5-8.3,14.8-12.5,22.3C50.5,299.8,58.6,299.8,67,299.8z"/>
	<path class="st0" d="M123.4,273.3c0-5.6,0-11,0-16.4c28.6,0,85.8,0,85.8,0v15c0,0-31.8,25-47.2,37.1c-0.4,0.3-0.9,0.7-1.5,1.2
		c17.5,0,34.7,0,52,0c0,5.6,0,11,0,16.5c-31.1,0-62.3,0-93.6,0c0-0.4,0-15.2,0-15.2s31.8-24.9,47.2-36.9c0.4-0.3,0.8-0.7,1.6-1.3
		C152.6,273.3,138.1,273.3,123.4,273.3z"/>
	<path class="st0" d="M319.4,257c-9.4,0-18.6,0-28,0c0,0.5,0,1,0,1.5c0,9.9,0,19.9,0,29.8c0,3.2-0.2,6.4-1.3,9.4
		c-1.7,5.1-5.2,8.6-10.3,10.3c-2.9,0.9-5.8,1.6-8.8,1.6c-3.3,0-5.9-0.7-8.8-1.6c-5.1-1.7-8.6-5.1-10.3-10.3c-1-3.1-1.3-6.2-1.3-9.4
		c0-9.9,0-19.9,0-29.8c0-0.5,0-1,0-1.5c-9.4,0-18.6,0-28,0c0,0.6,0,1.1,0,1.6c0,3.4,0,6.8,0,10.2c0,8.2,0,16.5,0,24.7
		c0,5.8,0.8,11.5,3.4,16.8c3.6,7.5,9.8,12,17.5,14.8c6.9,2.5,14,3.3,21.2,3.6c1.8,0.1,3.7,0.1,5.5,0.1c0.2,0,0.5,0,0.7,0
		s0.5,0,0.7,0c1.8,0,3.7,0,5.5-0.1c7.2-0.3,14.4-1.1,21.2-3.6c7.7-2.8,13.8-7.3,17.5-14.8c2.6-5.3,3.4-11,3.4-16.8
		c0-8.2,0-16.5,0-24.7c0-3.4,0-6.8,0-10.2C319.4,258,319.4,257.5,319.4,257z"/>
	<path class="st0" d="M439,306.5c-13,3.9-28.5,0.7-37.7-6.8c-0.1-0.2-0.1-0.4-0.1-0.4c13.1,0,28.5-4.8,28.5-20.9s-15.1-21.5-31-21.5
		H335c0,0,0,46.5,0,69.7c9.4,0,18.6,0,28,0c0-8.9,0-17.8,0-26.6c7.5,0,13.7,1.3,19.9,7.5c5.8,5.8,15.1,23.3,35.9,23.3
		c1.8,0,3.8-0.1,5.7-0.3L439,306.5z M391.8,285.4c-1.8,0-28.7,0-28.7,0v-13.9c0,0,26.6,0,28.7,0c2.8,0,9.5,0.6,9.5,6.8
		C401.3,284.6,394.5,285.4,391.8,285.4z"/>
	<g>
		<g>
			<path class="st0" d="M248.9,0h-58.1c-0.6,0-1.2,0.3-1.5,0.9l-29.1,50.3c-0.3,0.6-0.3,1.2,0,1.8l17.1,29.6c0.7,1.2,2.4,1.2,3.1,0
				l21.8-37.5c0.3-0.6,0.9-0.9,1.5-0.9h32.7c0.6,0,1.2,0.3,1.5,0.9l21.6,37.3c0.7,1.2,2.4,1.2,3.1,0l17-29.4c0.3-0.6,0.3-1.2,0-1.8
				L250.4,0.9C250.1,0.3,249.5,0,248.9,0z"/>
			<path class="st0" d="M195.8,121.3l-28.9,50.1c-0.3,0.5-0.9,0.9-1.5,0.9h-33.7c-1.3,0-2.1-1.4-1.5-2.5l36.1-62.9
				c0.6-1.1-0.2-2.5-1.5-2.5h-34.3c-0.6,0-1.2,0.3-1.5,0.9l-29.1,50.4c-0.3,0.5-0.3,1.2,0,1.7l29.1,50.4c0.3,0.5,0.9,0.9,1.5,0.9
				h57.2c0.6,0,1.2-0.3,1.5-0.9l28.8-49.5c0.6-1,0.5-2.6,0-3.5l-19.2-33.3C198.1,120.2,196.5,120.2,195.8,121.3z"/>
			<path class="st0" d="M243.9,121.3l29.4,50.3c0.3,0.5,0.9,0.9,1.5,0.9h33.7c1.3,0,2.1-1.4,1.5-2.5l-36.5-63.1
				c-0.6-1.1,0.2-2.5,1.5-2.5h34.3c0.6,0,1.2,0.3,1.5,0.9l29.1,50.4c0.3,0.5,0.3,1.2,0,1.7l-29.1,50.4c-0.3,0.5-0.9,0.9-1.5,0.9
				h-57.1c-0.6,0-1.2-0.3-1.5-0.9l-28.8-49.5c-0.6-1-0.5-2.6,0-3.5l19.2-33.3C241.7,120.2,243.3,120.2,243.9,121.3z"/>
			<path class="st0" d="M243.9,121.3l29.4,50.3c0.3,0.5,0.9,0.9,1.5,0.9h33.7c1.3,0,2.1-1.4,1.5-2.5l-36.5-63.1
				c-0.6-1.1,0.2-2.5,1.5-2.5h34.3c0.6,0,1.2,0.3,1.5,0.9l29.1,50.4c0.3,0.5,0.3,1.2,0,1.7l-29.1,50.4c-0.3,0.5-0.9,0.9-1.5,0.9
				h-57.1c-0.6,0-1.2-0.3-1.5-0.9l-28.8-49.5c-0.6-1-0.5-2.6,0-3.5l19.2-33.3C241.7,120.2,243.3,120.2,243.9,121.3z"/>
			<path class="st0" d="M240.9,115.8L240.9,115.8l-19.7-34.1l0,0c-0.2-0.4-0.7-0.7-1.2-0.7s-1,0.3-1.2,0.7l0,0l-19.7,34.1l0,0
				c-0.2,0.2-0.3,0.5-0.3,0.8c0,0.8,0.6,1.5,1.5,1.5h39.5c0.8,0,1.5-0.6,1.5-1.5C241.1,116.3,241,116,240.9,115.8z"/>
		</g>
		<g>
			<path class="st0" d="M346.1,181.8c7.6,0,13.6,5.9,13.6,13.4s-6,13.5-13.7,13.5s-13.8-6-13.8-13.5
				C332.2,187.6,338.3,181.8,346.1,181.8L346.1,181.8z M345.9,184.5c-5.8,0-10.3,4.8-10.3,10.7c0,6,4.5,10.7,10.4,10.7
				c5.8,0.1,10.2-4.7,10.2-10.6C356.3,189.3,351.9,184.5,345.9,184.5L345.9,184.5z M343.9,202.1h-3.1v-13.4c1.2-0.2,2.9-0.4,5.1-0.4
				c2.5,0,3.7,0.4,4.6,1.1c0.8,0.6,1.4,1.6,1.4,2.9c0,1.6-1.2,2.7-2.8,3.2v0.2c1.3,0.4,2,1.5,2.4,3.3c0.4,2,0.7,2.8,1,3.3h-3.3
				c-0.4-0.5-0.6-1.6-1.1-3.3c-0.2-1.4-1.1-2-2.8-2h-1.5L343.9,202.1L343.9,202.1z M343.9,194.6h1.5c1.7,0,3.1-0.6,3.1-2
				c0-1.2-0.9-2-2.9-2c-0.8,0-1.4,0.1-1.7,0.2V194.6L343.9,194.6z"/>
		</g>
	</g>
</g>
</svg>
