<?xml version="1.0" encoding="utf-8"?>
<!-- Generator: Adobe Illustrator 16.0.0, SVG Export Plug-In . SVG Version: 6.00 Build 0)  -->
<!DOCTYPE svg PUBLIC "-//W3C//DTD SVG 1.1//EN" "http://www.w3.org/Graphics/SVG/1.1/DTD/svg11.dtd">
<svg version="1.1"
	 id="svg17988" inkscape:version="0.92.0 r15299" sodipodi:docname="flex.svg" xmlns:svg="http://www.w3.org/2000/svg" xmlns:sodipodi="http://sodipodi.sourceforge.net/DTD/sodipodi-0.dtd" xmlns:cc="http://creativecommons.org/ns#" xmlns:inkscape="http://www.inkscape.org/namespaces/inkscape" xmlns:dc="http://purl.org/dc/elements/1.1/" xmlns:rdf="http://www.w3.org/1999/02/22-rdf-syntax-ns#"
	 xmlns="http://www.w3.org/2000/svg" xmlns:xlink="http://www.w3.org/1999/xlink" x="0px" y="0px" width="162.524px"
	 height="66.739px" viewBox="0 0 162.524 66.739" enable-background="new 0 0 162.524 66.739" xml:space="preserve">
<sodipodi:namedview  units="px" id="base" inkscape:window-y="-4" inkscape:window-width="1280" inkscape:window-maximized="1" fit-margin-bottom="0" inkscape:window-height="744" inkscape:pageopacity="0.0" inkscape:current-layer="layer1" inkscape:window-x="-4" inkscape:pageshadow="2" fit-margin-right="0" inkscape:document-units="mm" borderopacity="1.0" bordercolor="#666666" fit-margin-left="0" inkscape:cy="32.869569" fit-margin-top="0" inkscape:zoom="5.5533416" pagecolor="#ffffff" inkscape:cx="80.762185" showgrid="false">
	</sodipodi:namedview>
<g id="layer1" transform="translate(-35.328119,-204.12797)" inkscape:groupmode="layer" inkscape:label="Layer 1">
	<g id="g18036" transform="translate(0.13229155,-0.13228571)">
		<path id="path15234" inkscape:connector-curvature="0" d="M139.07,223.593L139.07,223.593c-2.105,2.155-2.105,5.647,0,7.801
			l7.39,7.554c0.477,0.545,2.48,3.076,1.745,6.5c-0.038,0.177-0.005,0.369,0.13,0.506c0.198,0.203,0.521,0.203,0.719,0l2.129-2.178
			l2.723-2.785c2.711-2.77,2.711-7.26,0-10.03l-7.205-7.368C144.593,221.441,141.177,221.441,139.07,223.593"/>
		<path id="path15238" inkscape:connector-curvature="0" d="M183.331,268.871L183.331,268.871c2.106-2.151,2.106-5.646,0-7.798
			l-7.391-7.555c-0.477-0.547-2.48-3.076-1.746-6.502c0.039-0.176,0.005-0.368-0.129-0.506c-0.198-0.201-0.521-0.201-0.719,0
			l-2.127,2.178l-2.725,2.787c-2.709,2.768-2.709,7.258,0,10.029l7.207,7.366C177.808,271.026,181.224,271.026,183.331,268.871"/>
		<path id="path15242" inkscape:connector-curvature="0" d="M139.049,261.095l36.689-37.489c1.063-1.085,2.471-1.622,3.87-1.604
			c1.361,0.019,2.714,0.552,3.744,1.608c1.046,1.067,1.568,2.476,1.57,3.884c0.002,1.414-0.521,2.828-1.571,3.899l-36.689,37.49
			c-1.048,1.071-2.428,1.606-3.808,1.604c-1.381,0-2.762-0.537-3.809-1.605c-1.019-1.047-1.543-2.416-1.568-3.793
			C137.452,263.644,137.978,262.192,139.049,261.095"/>
		<path id="path15246" inkscape:connector-curvature="0" d="M43.752,232.627h-3.643c-2.437,0-4.413-2.02-4.413-4.511
			s1.976-4.509,4.413-4.509h3.643v-3.396c0-5.269,1.309-9.197,3.757-11.699c2.445-2.501,5.853-3.752,10.396-3.752
			c1.902,0,3.502,0.143,4.929,0.383c2.104,0.352,3.633,2.237,3.633,4.42c-0.002,2.624-2.195,4.688-4.753,4.46
			c-0.467-0.04-0.947-0.064-1.449-0.064c-4.02,0-6.117,2.233-6.117,7.147v2.589h7.862c2.412,0,4.368,2,4.368,4.467
			s-1.956,4.465-4.368,4.465h-7.688v32.468c0,2.982-2.367,5.402-5.284,5.402c-2.92,0-5.287-2.42-5.287-5.402V232.627z"/>
		<path id="path15250" inkscape:connector-curvature="0" d="M77.537,205.296L77.537,205.296c2.919,0,5.286,2.42,5.286,5.403v54.396
			c0,2.984-2.367,5.404-5.286,5.404c-2.918,0-5.285-2.42-5.285-5.404v-54.396C72.252,207.716,74.619,205.296,77.537,205.296"/>
		<path id="path15254" inkscape:connector-curvature="0" d="M124.566,242.542c0.273,0,0.491-0.246,0.456-0.525
			c-0.844-6.713-4.835-11.891-11.648-11.891c-6.304,0-10.78,4.841-11.891,11.875c-0.043,0.279,0.176,0.541,0.453,0.541H124.566z
			 M90.922,246.024v-0.645c0-14.742,12.952-26.366,27.131-23.679c11.633,2.205,17.512,12.871,17.512,24.949
			c-0.002,1.68-1.332,3.037-2.974,3.037h-30.556c-0.283,0-0.503,0.27-0.452,0.555c1.304,7.332,6.54,11.416,13.188,11.416
			c3.913,0,6.971-1.135,9.821-3.279c1.66-1.252,3.927-1.211,5.469,0.188c1.953,1.771,1.954,4.94-0.066,6.629
			c-3.955,3.304-8.973,5.305-15.397,5.305C101.231,270.499,90.922,260.583,90.922,246.024"/>
		<path id="path15258" inkscape:connector-curvature="0" d="M194.683,264.984c0-0.468-0.338-0.702-1.01-0.702h-1.198v1.496h1.151
			c0.337,0,0.597-0.066,0.779-0.197C194.589,265.448,194.683,265.251,194.683,264.984 M194.614,267.382
			c0-0.309-0.031-0.541-0.096-0.699c-0.064-0.156-0.174-0.26-0.326-0.32c-0.15-0.061-0.373-0.088-0.663-0.088h-1.055v1.83h-0.533
			v-4.328h1.849c0.434,0,0.779,0.1,1.038,0.303c0.257,0.199,0.387,0.492,0.387,0.876c0,0.278-0.063,0.505-0.198,0.685
			c-0.134,0.178-0.328,0.3-0.588,0.367v0.02c0.26,0.078,0.441,0.205,0.551,0.377c0.104,0.172,0.158,0.46,0.158,0.861
			c0,0.41,0.047,0.689,0.137,0.842h-0.533c-0.039-0.057-0.07-0.156-0.094-0.293c-0.021-0.136-0.033-0.277-0.033-0.43
			 M196.689,265.907c0-0.588-0.141-1.133-0.423-1.633c-0.278-0.502-0.663-0.904-1.147-1.199c-0.484-0.297-1.021-0.445-1.607-0.445
			c-0.569,0-1.095,0.146-1.578,0.439c-0.486,0.294-0.869,0.691-1.154,1.195c-0.283,0.5-0.426,1.049-0.426,1.643
			c0,0.588,0.14,1.133,0.42,1.637c0.283,0.502,0.665,0.899,1.148,1.197c0.483,0.295,1.017,0.445,1.6,0.445
			c0.58,0,1.113-0.15,1.598-0.445c0.484-0.298,0.869-0.695,1.147-1.197C196.548,267.04,196.689,266.495,196.689,265.907
			 M189.819,265.907c0-0.693,0.17-1.33,0.509-1.909c0.339-0.583,0.79-1.038,1.36-1.372c0.568-0.334,1.184-0.502,1.841-0.502
			c0.665,0,1.282,0.17,1.846,0.512c0.566,0.337,1.015,0.797,1.347,1.375c0.333,0.579,0.498,1.21,0.498,1.896
			c0,0.66-0.161,1.281-0.483,1.863c-0.321,0.58-0.765,1.047-1.325,1.398c-0.564,0.348-1.191,0.522-1.882,0.522
			c-0.679,0-1.3-0.171-1.865-0.511c-0.565-0.339-1.013-0.799-1.345-1.381C189.985,267.22,189.819,266.589,189.819,265.907"/>
	</g>
</g>
</svg>
