<?xml version="1.0" encoding="utf-8"?>
<!-- Generator: Adobe Illustrator 27.2.0, SVG Export Plug-In . SVG Version: 6.00 Build 0)  -->
<svg version="1.1" id="Layer_1" xmlns:svg="http://www.w3.org/2000/svg"
	 xmlns="http://www.w3.org/2000/svg" xmlns:xlink="http://www.w3.org/1999/xlink" x="0px" y="0px" viewBox="0 0 677.88 120.08"
	 style="enable-background:new 0 0 677.88 120.08;" xml:space="preserve">
<style type="text/css">
	.st0{fill-rule:evenodd;clip-rule:evenodd;}
</style>
<g id="g7">
	<polygon id="polygon9" class="st0" points="614.26,91.65 640.01,91.65 640.01,0 614.26,0 614.26,91.65 	"/>
	<polygon id="polygon11" class="st0" points="677.88,0 677.88,91.65 652.13,91.65 652.13,0 677.88,0 	"/>
	<polygon id="polygon13" class="st0" points="54.91,35.6 34.08,35.6 34.08,0 0,0 0,91.65 34.08,91.65 34.08,46.21 54.91,46.21 
		54.91,91.65 89,91.65 89,0 54.91,0 54.91,35.6 	"/>
	<path id="path15" class="st0" d="M214.91,34.08l-2.08-6.06h-28.02v63.62h28.02V53.4l0,0c0-8.33,5.3-12.88,9.85-12.88
		c3.79,0,8.71,0.76,8.71,9.09l0,0v42.04h28.02V50.37l0,0C259.41,27.27,233.47,18.18,214.91,34.08L214.91,34.08L214.91,34.08
		L214.91,34.08z"/>
	<path id="path17" class="st0" d="M502.73,64.95l-13.06-36.92h-19.12l-13.07,38.44l-13.63-38.44h-26.7h-0.19h-10.6L392.9,60.4
		l-18.93-32.38h-32l37.68,64.38l-4.92,12.12l0,0c-1.71,3.79-5.79,3.98-6.58,0.38c0-6.51-5.28-11.78-11.78-11.78
		c-6.51,0-11.78,5.27-11.78,11.78c0.05,6.82,6.86,15.72,20.3,15.15c13.45-0.57,19.12-11.74,21.02-16.47l0,0l31.14-75.3l22.45,63.38
		h20.45l12.5-36.55l12.88,36.55h19.31l21.78-63.62h-11.17L502.73,64.95L502.73,64.95L502.73,64.95z"/>
	<path id="path19" class="st0" d="M137.28,24.79c-21.44,0-38.82,15.94-38.82,35.61c0,19.67,17.38,35.62,38.82,35.62
		c21.45,0,38.83-15.94,38.83-35.62C176.11,40.73,158.72,24.79,137.28,24.79L137.28,24.79L137.28,24.79L137.28,24.79z M146.94,77.06
		c0,5.34-4.32,9.66-9.66,9.66c-5.33,0-9.65-4.32-9.65-9.66l0,0V43.74l0,0c0-5.33,4.32-9.65,9.65-9.65c5.34,0,9.66,4.32,9.66,9.65
		l0,0V77.06L146.94,77.06L146.94,77.06z"/>
	<path id="path21" class="st0" d="M345.08,65.51c0.21-1.49,0.31-3.57,0.31-5.11c0-19.67-17.38-35.61-38.83-35.61
		c-21.45,0-38.83,15.94-38.83,35.61c0,19.67,17.38,35.62,38.83,35.62c14.73,0,27.55-7.53,34.13-18.62l0,0l-8.58-3.17l0,0
		c-5.18,7.92-14.69,13.23-25.55,13.23c-5.34,0-9.66-5.05-9.66-10.39l0,0V65.52L345.08,65.51L345.08,65.51L345.08,65.51z
		 M296.9,43.74c0-5.33,4.32-9.65,9.66-9.65c5.33,0,9.66,4.32,9.66,9.65l0,0v12.69H296.9V43.74L296.9,43.74L296.9,43.74z"/>
	<path id="path23" class="st0" d="M604.49,65.51c0.21-1.49,0.31-3.57,0.31-5.11c0-19.67-17.38-35.61-38.83-35.61
		c-21.44,0-38.83,15.94-38.83,35.61c0,19.67,17.38,35.62,38.83,35.62c14.74,0,27.55-7.53,34.13-18.62l0,0l-8.58-3.17l0,0
		c-5.18,7.92-14.69,13.23-25.56,13.23c-5.33,0-9.66-5.05-9.66-10.39l0,0V65.52L604.49,65.51L604.49,65.51L604.49,65.51z
		 M556.32,43.74c0-5.33,4.32-9.65,9.66-9.65c5.34,0,9.66,4.32,9.66,9.65l0,0v12.69h-19.32V43.74L556.32,43.74L556.32,43.74z"/>
</g>
</svg>
