<?xml version="1.0" encoding="utf-8"?>
<!-- Generator: Adobe Illustrator 16.0.0, SVG Export Plug-In . SVG Version: 6.00 Build 0)  -->
<!DOCTYPE svg PUBLIC "-//W3C//DTD SVG 1.1//EN" "http://www.w3.org/Graphics/SVG/1.1/DTD/svg11.dtd">
<svg version="1.1" id="Layer_1" xmlns="http://www.w3.org/2000/svg" xmlns:xlink="http://www.w3.org/1999/xlink" x="0px" y="0px"
	 width="330.715px" height="158.265px" viewBox="0 0 330.715 158.265" enable-background="new 0 0 330.715 158.265"
	 xml:space="preserve">
<g>
	<defs>
		<rect id="SVGID_1_" x="-459.554" y="-196.203" width="1417.323" height="1417.323"/>
	</defs>
	<clipPath id="SVGID_2_">
		<use xlink:href="#SVGID_1_"  overflow="visible"/>
	</clipPath>
	<polygon clip-path="url(#SVGID_2_)" points="157.833,158.265 145.529,158.265 145.529,154.94 154.077,154.94 154.077,128.217 
		157.833,128.217 	"/>
	<polygon clip-path="url(#SVGID_2_)" points="0,128.217 3.756,128.217 3.756,154.941 12.304,154.941 12.304,158.265 0,158.265 	"/>
	<polygon clip-path="url(#SVGID_2_)" points="0,1.296 12.304,1.296 12.304,4.62 3.756,4.62 3.756,31.344 0,31.344 	"/>
	<rect x="154.077" y="86.342" clip-path="url(#SVGID_2_)" width="3.756" height="30.048"/>
	<rect y="44.468" clip-path="url(#SVGID_2_)" width="3.756" height="30.048"/>
	<rect y="86.342" clip-path="url(#SVGID_2_)" width="3.756" height="30.048"/>
	<rect x="23.075" y="1.296" clip-path="url(#SVGID_2_)" width="30.048" height="3.324"/>
	<rect x="63.893" y="1.296" clip-path="url(#SVGID_2_)" width="30.048" height="3.324"/>
	<rect x="104.711" y="1.296" clip-path="url(#SVGID_2_)" width="30.048" height="3.324"/>
	<rect x="23.075" y="154.94" clip-path="url(#SVGID_2_)" width="30.048" height="3.325"/>
	<rect x="63.893" y="154.94" clip-path="url(#SVGID_2_)" width="30.048" height="3.325"/>
	<rect x="104.711" y="154.94" clip-path="url(#SVGID_2_)" width="30.048" height="3.325"/>
	<path clip-path="url(#SVGID_2_)" d="M157.833,31.344h-3.756V4.62h-8.548V1.296h12.304V31.344z M159.474,1.296h6.951V4.62h-6.951
		V1.296z"/>
	<path clip-path="url(#SVGID_2_)" d="M169.403,1.296h3.54v3.54h-3.54V1.296z M169.403,9.93h3.54v21.414h-3.54V9.93z"/>
	<path clip-path="url(#SVGID_2_)" d="M181.706,31.344h-3.583V9.93h3.583V31.344z M194.959,31.344h-3.583V18.133
		c0-3.583-1.512-5.137-4.274-5.137c-1.166,0-2.246,0.172-3.757,0.906V10.88c1.296-0.777,2.893-1.166,4.49-1.166
		c4.922,0,7.124,3.109,7.124,7.988V31.344z M194.959,10.794c1.338-0.691,3.54-1.209,5.224-1.209c5.31,0,7.641,2.763,7.641,7.512
		v14.247h-3.54V17.917c0-3.454-1.339-5.051-4.317-5.051c-1.123,0-2.332,0.216-3.756,0.907L194.959,10.794z"/>
	<path clip-path="url(#SVGID_2_)" d="M215.68,31.344h-3.54V0.001h3.54V31.344z M217.278,10.621c1.166-0.604,2.634-0.907,4.102-0.907
		c6.303,0,7.9,5.009,7.9,10.577c0,5.656-1.727,11.311-8.03,11.311c-1.079,0-2.892-0.172-3.972-0.776V27.76
		c1.166,0.432,2.332,0.519,3.497,0.519c4.404,0,4.922-4.835,4.922-8.116c0-3.454-0.562-7.166-5.008-7.166
		c-0.994,0-2.331,0.215-3.411,0.69V10.621z"/>
	<path clip-path="url(#SVGID_2_)" d="M237.137,31.344h-3.54V9.93h3.54V31.344z M238.734,10.88c1.295-0.863,2.634-1.252,4.015-1.252
		c1.296,0,3.022,0.345,4.231,0.993l-1.943,3.411c-0.906-0.562-1.899-0.82-2.892-0.82c-1.036,0-2.245,0.258-3.411,0.863V10.88z"/>
	<path clip-path="url(#SVGID_2_)" d="M259.974,30.394c-1.425,0.863-2.937,1.165-4.576,1.165c-3.8,0-6.562-2.072-6.562-7.425V9.93
		h3.54v12.822c0,3.281,0.69,5.44,3.972,5.44c1.295,0,2.591-0.302,3.627-0.864V30.394z M261.615,9.93h3.54v21.414h-3.54V9.93z"/>
	<path clip-path="url(#SVGID_2_)" d="M275.169,31.344c-3.367,0-5.267-1.295-5.267-4.965V0.001h3.539v26.076
		c0,1.425,0.52,2.029,1.987,2.029h1.251v3.238H275.169z"/>
	<path clip-path="url(#SVGID_2_)" d="M300.511,13.513c-0.95-0.388-2.419-0.518-3.41-0.518c-4.447,0-5.009,4.706-5.009,8.16
		c0,3.281,0.519,7.08,4.922,7.08c1.035,0,2.461-0.172,3.497-0.648v3.195c-0.907,0.519-2.764,0.777-3.973,0.777
		c-6.303,0-8.03-4.878-8.03-10.189c0-5.741,1.598-11.699,8.334-11.699c1.121,0,2.633,0.173,3.669,0.777V13.513z M302.108,0h3.541
		v31.343h-3.541V0z"/>
	<path clip-path="url(#SVGID_2_)" d="M317.477,12.995c-2.677,0.259-4.317,2.677-4.317,7.642c0,5.526,1.728,7.684,5.612,7.684
		c2.117,0,3.54-0.734,4.965-2.029l2.158,2.547c-2.028,1.943-4.662,2.763-7.295,2.763c-4.361,0-9.067-2.029-9.067-10.879
		c0-7.728,3.929-10.88,7.944-11.009V12.995z M319.118,9.671c4.533,0.086,7.9,3.713,7.9,9.412v2.763h-12.002v-2.979h8.288
		c-0.172-3.497-1.597-5.656-4.187-5.872V9.671z"/>
	<path clip-path="url(#SVGID_2_)" d="M158.739,74.041c-1.034,0.475-2.717,0.733-4.443,0.733c-4.88,0-7.689-2.677-7.689-6.345
		c0-3.326,2.246-6.434,6.823-6.434h5.309v3.066h-4.443c-2.764,0-4.321,1.165-4.321,3.151c0,2.029,1.772,3.325,4.922,3.325
		c1.427,0,2.893-0.259,3.842-0.647V74.041z M160.381,60.267c0-2.589-1.596-4.057-5.052-4.057c-2.201,0-3.797,0.431-5.182,1.856
		l-2.113-2.288c1.941-2.073,4.229-2.893,7.425-2.893c4.619,0,8.504,1.553,8.504,7.34v14.291h-3.582V60.267z"/>
	<path clip-path="url(#SVGID_2_)" d="M172.267,74.515h-3.541V53.099h3.541V74.515z M173.863,54.049
		c1.297-0.863,2.637-1.251,4.015-1.251c1.297,0,3.024,0.346,4.233,0.993l-1.944,3.41c-0.904-0.561-1.899-0.819-2.89-0.819
		c-1.037,0-2.247,0.258-3.414,0.863V54.049z"/>
	<path clip-path="url(#SVGID_2_)" d="M187.514,74.515h-3.541V43.17h3.541V74.515z M189.156,54.049
		c1.424-0.863,3.023-1.165,4.662-1.165c4.103,0,7.126,2.461,7.126,7.426v14.205h-3.54V61.692c0-3.282-1.038-5.31-4.536-5.31
		c-1.293,0-2.675,0.302-3.712,0.863V54.049z"/>
	<path clip-path="url(#SVGID_2_)" d="M206.699,44.464h3.54v3.542h-3.54V44.464z M206.699,53.1h3.54v21.416h-3.54V53.1z"/>
	<path clip-path="url(#SVGID_2_)" d="M213.699,56.122V53.1h3.065v-5.31h3.541v5.31h4.922v3.022H213.699z M220.305,57.764v10.881
		c0,2.244,0.777,2.675,2.545,2.675h2.419v3.196h-3.54c-3.41,0-4.965-1.77-4.965-5.008V57.764H220.305z"/>
	<path clip-path="url(#SVGID_2_)" d="M235.594,56.166c-2.675,0.259-4.317,2.677-4.317,7.641c0,5.527,1.726,7.687,5.611,7.687
		c2.116,0,3.54-0.735,4.967-2.03l2.159,2.547c-2.028,1.944-4.665,2.763-7.299,2.763c-4.359,0-9.066-2.028-9.066-10.879
		c0-7.729,3.93-10.881,7.945-11.011V56.166z M237.236,52.842c4.531,0.086,7.899,3.712,7.899,9.411v2.764h-12.002v-2.98h8.29
		c-0.172-3.496-1.596-5.654-4.187-5.871V52.842z"/>
	<path clip-path="url(#SVGID_2_)" d="M252.142,64.628c0.131,4.317,1.684,6.821,5.656,6.821c2.074,0,3.885-1.123,4.88-2.244
		l2.116,2.547c-1.729,1.814-4.405,3.022-7.168,3.022c-5.354,0-8.853-2.547-9.025-10.146H252.142z M248.648,63.03
		c0.344-7.167,4.271-10.146,8.806-10.146c3.109,0,5.137,1.123,6.866,2.893l-2.204,2.591c-1.122-1.296-2.848-2.158-4.62-2.158
		c-3.498,0-5.094,2.373-5.308,6.778L248.648,63.03z"/>
	<path clip-path="url(#SVGID_2_)" d="M265.667,56.122V53.1h3.065v-5.31h3.54v5.31h4.922v3.022H265.667z M272.272,57.764v10.881
		c0,2.244,0.777,2.675,2.545,2.675h2.419v3.196h-3.54c-3.41,0-4.964-1.77-4.964-5.008V57.764H272.272z"/>
	<path clip-path="url(#SVGID_2_)" d="M291.19,73.566c-1.428,0.863-2.936,1.166-4.578,1.166c-3.8,0-6.562-2.073-6.562-7.427V53.1
		h3.539v12.823c0,3.282,0.693,5.441,3.973,5.441c1.294,0,2.592-0.303,3.629-0.864V73.566z M292.828,53.1h3.54v21.416h-3.54V53.1z"/>
	<path clip-path="url(#SVGID_2_)" d="M304.671,74.515h-3.54V53.099h3.54V74.515z M306.268,54.049
		c1.297-0.863,2.637-1.251,4.015-1.251c1.298,0,3.023,0.346,4.232,0.993l-1.943,3.41c-0.904-0.561-1.898-0.819-2.891-0.819
		c-1.037,0-2.246,0.258-3.413,0.863V54.049z"/>
	<path clip-path="url(#SVGID_2_)" d="M325.488,74.041c-1.033,0.475-2.718,0.733-4.447,0.733c-4.876,0-7.686-2.677-7.686-6.346
		c0-3.325,2.247-6.433,6.824-6.433h5.309v3.065h-4.447c-2.764,0-4.317,1.165-4.317,3.151c0,2.029,1.772,3.324,4.922,3.324
		c1.428,0,2.894-0.258,3.843-0.647V74.041z M327.129,60.267c0-2.589-1.596-4.057-5.053-4.057c-2.2,0-3.8,0.431-5.178,1.856
		l-2.116-2.289c1.94-2.072,4.229-2.893,7.425-2.893c4.619,0,8.508,1.554,8.508,7.341v14.291h-3.586V60.267z M320.263,44.422
		c0.088,1.166,1.21,2.719,3.066,2.719c2.073,0,3.11-1.553,3.11-2.719h3.066c-0.219,2.245-1.471,5.569-6.177,5.569
		c-4.704,0-6.174-3.324-6.216-5.569H320.263z"/>
</g>
</svg>
