<?xml version="1.0" encoding="utf-8"?>
<!-- Generator: Adobe Illustrator 27.2.0, SVG Export Plug-In . SVG Version: 6.00 Build 0)  -->
<svg version="1.1" id="Foreground" xmlns="http://www.w3.org/2000/svg" xmlns:xlink="http://www.w3.org/1999/xlink" x="0px" y="0px"
	 viewBox="0 0 407.5 139.4" style="enable-background:new 0 0 407.5 139.4;" xml:space="preserve">
<style type="text/css">
	.st0{fill-rule:evenodd;clip-rule:evenodd;fill:#231F20;}
	.st1{fill:#231F20;}
	.st2{fill-rule:evenodd;clip-rule:evenodd;fill:#FFFFFF;}
	.st3{fill:#FFFFFF;}
</style>
<path class="st0" d="M42.9,139.2V21.4h21.3c7,0,10.9,3.4,10.9,10.1v75.9c0,7-3.9,10.5-10.9,10.5H53.7v21.4L42.9,139.2L42.9,139.2z
	 M64.4,107.1v-75H53.7v75L64.4,107.1L64.4,107.1z"/>
<path class="st0" d="M32,107.1c0,7-3.5,10.7-10.5,10.7H10.5c-6.5,0-10-3.6-10.5-10.3V21.4h10.5l0.2,85.7h10.8V21.4H32L32,107.1
	L32,107.1z"/>
<polygon class="st1" points="85.7,139.4 85.8,117.8 96.4,117.8 96.4,32.1 107.2,32.1 107.2,21.4 85.7,21.4 85.7,0 407.4,0 
	407.5,139.3 "/>
<g>
	<polygon class="st2" points="121,117.6 121,91.2 118.1,91.2 118.1,89 126.5,89 126.5,91.2 123.6,91.2 123.6,117.6 	"/>
	<path class="st2" d="M129.1,117.6V96h2.4v21.5H129.1z M129.1,92v-3h2.6v3H129.1z"/>
	<path class="st2" d="M134.8,117.6V96h2.3v1.5h0.1c0.8-1.1,1.7-1.7,2.9-1.7c1,0,1.8,0.4,2.3,1.3c0.7-0.9,1.6-1.3,2.5-1.3
		s1.7,0.3,2.2,0.9c0.5,0.6,0.8,1.4,0.8,2.3v18.5h-2.4V99.8c0-1.2-0.4-1.9-1.2-1.9c-1.1,0-1.6,0.7-1.6,2v17.6h-2.4V99.8
		c0-1.2-0.4-1.9-1.2-1.9c-1.1,0-1.6,0.7-1.6,2v17.6H134.8L134.8,117.6z"/>
	<path class="st2" d="M151.1,117.6V96h2.4v21.5H151.1z M151,92v-3h2.6v3H151z"/>
	<path class="st2" d="M161.6,102.4v-3.2c0-1-0.4-1.5-1.3-1.5s-1.3,0.5-1.3,1.5v2.4c0,0.6,0.3,1.3,0.9,2.1l3.1,4.3
		c0.6,0.8,0.9,1.6,0.9,2.4v3.6c0,2.4-1.2,3.6-3.7,3.6s-3.6-1.1-3.6-3.4v-3.8h2.4v3.3c0,1.2,0.4,1.8,1.2,1.8s1.2-0.6,1.2-1.9v-2.6
		c0-0.8-0.3-1.6-0.9-2.4l-2.8-3.8c-0.8-1.1-1.1-2-1.1-2.9v-2.8c0-1.2,0.4-2.1,1.1-2.7s1.6-1,2.8-1s2.1,0.4,2.7,1.1
		c0.5,0.6,0.8,1.2,0.8,2v3.6L161.6,102.4L161.6,102.4z M158.3,123l1-4.5h2.1l-1.5,4.5H158.3L158.3,123z"/>
	<path class="st2" d="M172.6,113.7V99.9c0-1.4-0.5-2.2-1.6-2.2s-1.6,0.7-1.6,2.2v13.7c0,1.4,0.5,2.2,1.6,2.2
		S172.6,115.1,172.6,113.7z M166.9,113.7V99.9c0-2.8,1.4-4.2,4.1-4.2s4.1,1.4,4.1,4.2v13.7c0,2.8-1.4,4.2-4.1,4.2
		S166.9,116.4,166.9,113.7z"/>
	<path class="st2" d="M183.5,113.6v-7.4c-0.8,0-1.5,0.2-2.1,0.5c-0.8,0.4-1.1,1-1.1,1.9v4.9c0,1.6,0.5,2.4,1.5,2.4
		C183,115.8,183.5,115.1,183.5,113.6z M183.5,104.2v-4.7c0-1.2-0.5-1.8-1.4-1.8c-1.1,0-1.6,0.7-1.6,2.1v2h-2.4v-2.5
		c0-1.1,0.4-1.9,1.2-2.6c0.8-0.7,1.8-1,2.9-1c2.5,0,3.8,1.2,3.8,3.8v18h-2.3v-1.2h-0.1c-0.7,0.9-1.7,1.4-2.9,1.4
		c-1.9,0-2.9-1.2-2.9-3.6v-5.8C177.8,105.6,179.7,104.2,183.5,104.2L183.5,104.2z"/>
	<path class="st2" d="M188.8,117.6V96h2.3v1.5h0.1c0.8-1.2,1.9-1.7,3.3-1.7v2.4c-1.2,0-2,0.2-2.5,0.8c-0.5,0.5-0.7,1.3-0.7,2.4v16.2
		L188.8,117.6L188.8,117.6z"/>
	<path class="st2" d="M202.6,113.6v-7.4c-0.8,0-1.5,0.2-2.1,0.5c-0.8,0.4-1.1,1-1.1,1.9v4.9c0,1.6,0.5,2.4,1.5,2.4
		C202,115.8,202.6,115.1,202.6,113.6z M202.6,104.2v-4.7c0-1.2-0.5-1.8-1.4-1.8c-1.1,0-1.6,0.7-1.6,2.1v2h-2.4v-2.5
		c0-1.1,0.4-1.9,1.2-2.6c0.8-0.7,1.8-1,2.9-1c2.5,0,3.8,1.2,3.8,3.8v18h-2.3v-1.2h-0.1c-0.7,0.9-1.7,1.4-2.9,1.4
		c-1.9,0-2.9-1.2-2.9-3.6v-5.8C196.9,105.6,198.8,104.2,202.6,104.2L202.6,104.2z"/>
</g>
<g>
	<path class="st2" d="M118.1,83.7V55.1h4.2c1.7,0,2.8,0.3,3.4,1c0.6,0.6,0.9,1.8,0.9,3.4v7c0,1.6-0.3,2.8-0.9,3.4
		c-0.6,0.6-1.7,0.9-3.4,0.9h-1.5v12.8H118.1z M120.7,68.6h1.3c1.3,0,2-0.6,2-1.8v-7.7c0-1.2-0.7-1.8-2-1.8h-1.3V68.6L120.7,68.6z"/>
	<path class="st2" d="M134.2,79.8V66c0-1.4-0.5-2.2-1.6-2.2s-1.6,0.7-1.6,2.2v13.7c0,1.4,0.5,2.2,1.6,2.2S134.2,81.2,134.2,79.8z
		 M128.5,79.8V66c0-2.8,1.4-4.2,4.1-4.2s4.1,1.4,4.1,4.2v13.7c0,2.8-1.4,4.2-4.1,4.2S128.5,82.5,128.5,79.8z"/>
	<rect x="139.7" y="55.1" class="st3" width="2.4" height="28.5"/>
	<path class="st2" d="M145.6,83.7V62.1h2.4v21.5H145.6z M145.5,58.1v-3h2.6v3H145.5z"/>
	<path class="st2" d="M151.6,62.1v-2.9l2.4-1v3.8h1.7v2H154v16.4c0,0.8,0.4,1.2,1.2,1.2h0.5v2h-1.2c-2,0-3-0.9-3-2.7V64.1h-1.2v-2
		L151.6,62.1L151.6,62.1z"/>
	<path class="st2" d="M163.5,71.3V66c0-1.4-0.5-2.2-1.6-2.2s-1.6,0.7-1.6,2.2v5.3H163.5L163.5,71.3z M163.5,79.8v-3h2.4v3
		c0,2.8-1.4,4.2-4.1,4.2s-4.1-1.4-4.1-4.2V66c0-2.8,1.4-4.2,4.1-4.2s4.1,1.4,4.1,4.2v7.5h-5.7v6.2c0,1.4,0.5,2.2,1.6,2.2
		S163.5,81.2,163.5,79.8L163.5,79.8z"/>
	<path class="st2" d="M168.8,83.7V55.1h2.4v8.5h0.1c0.6-1.1,1.5-1.7,2.8-1.7c0.9,0,1.6,0.3,2.1,1c0.5,0.6,0.8,1.4,0.8,2.3v18.5h-2.4
		V66.1c0-1.3-0.5-2-1.5-2c-0.5,0-0.9,0.2-1.3,0.6c-0.3,0.4-0.4,0.8-0.4,1.3v17.6L168.8,83.7L168.8,83.7z"/>
	<path class="st2" d="M179.7,83.7V62.1h2.3v1.5h0.1c0.7-1.1,1.6-1.7,2.9-1.7c0.9,0,1.7,0.3,2.2,1c0.5,0.6,0.8,1.4,0.8,2.3v18.5h-2.4
		V66.1c0-1.3-0.5-2-1.5-2c-0.5,0-0.9,0.2-1.3,0.6c-0.3,0.4-0.4,0.8-0.4,1.3v17.6L179.7,83.7L179.7,83.7z"/>
	<path class="st2" d="M191,83.7V62.1h2.4v21.5H191z M190.9,58.1v-3h2.6v3H190.9z"/>
	<path class="st2" d="M201.5,69v-3.3c0-1.2-0.4-1.8-1.1-1.8c-0.9,0-1.3,0.6-1.3,1.8v14.7c0,1.1,0.4,1.6,1.2,1.6s1.3-0.5,1.3-1.6
		v-3.5h2.4v3.4c0,2.4-1.2,3.6-3.7,3.6c-1.1,0-1.9-0.3-2.6-0.8c-0.7-0.6-1.1-1.4-1.1-2.4V66c0-2.8,1.4-4.2,4.1-4.2
		c2.2,0,3.3,1.2,3.3,3.5V69L201.5,69L201.5,69z"/>
	<path class="st2" d="M212.5,79.7v-7.4c-0.8,0-1.5,0.2-2.1,0.5c-0.8,0.4-1.1,1-1.1,1.9v4.9c0,1.6,0.5,2.4,1.5,2.4
		C211.9,81.9,212.5,81.2,212.5,79.7z M212.5,70.3v-4.7c0-1.2-0.5-1.8-1.4-1.8c-1.1,0-1.6,0.7-1.6,2.1v2h-2.4v-2.5
		c0-1.1,0.4-1.9,1.2-2.6c0.8-0.7,1.8-1,2.9-1c2.5,0,3.8,1.2,3.8,3.8v18h-2.3v-1.2h-0.1c-0.7,0.9-1.7,1.4-2.9,1.4
		c-1.9,0-2.9-1.2-2.9-3.6v-5.8C206.8,71.7,208.7,70.3,212.5,70.3L212.5,70.3z"/>
</g>
<g>
	<path class="st2" d="M124.7,45.1V21.2h2.6v24.7c0,2.7-1.5,4.1-4.6,4.1s-4.5-1.4-4.5-4.1V21.2h2.6v23.9c0,1.8,0.7,2.7,2,2.7
		S124.7,46.9,124.7,45.1L124.7,45.1z"/>
	<path class="st2" d="M130.7,49.8V28.2h2.3v1.5h0.1c0.7-1.1,1.6-1.7,2.9-1.7c0.9,0,1.7,0.3,2.2,1c0.5,0.6,0.8,1.4,0.8,2.3v18.5h-2.4
		V32.2c0-1.3-0.5-2-1.5-2c-0.5,0-0.9,0.2-1.3,0.6c-0.3,0.4-0.4,0.8-0.4,1.3v17.6L130.7,49.8L130.7,49.8z"/>
	<path class="st2" d="M142,49.8V28.2h2.4v21.5C144.4,49.8,142,49.8,142,49.8z M141.9,24.2v-3h2.6v3H141.9z"/>
	<polygon class="st2" points="149.4,49.8 146.8,28.2 149.1,28.2 151.2,46.4 151.2,46.4 153.3,28.2 155.6,28.2 153,49.8 	"/>
	<path class="st2" d="M163.4,37.4v-5.3c0-1.5-0.5-2.2-1.6-2.2s-1.6,0.7-1.6,2.2v5.3H163.4L163.4,37.4z M163.4,45.8v-3h2.4v3
		c0,2.8-1.4,4.2-4.1,4.2s-4.1-1.4-4.1-4.2V32.1c0-2.8,1.4-4.1,4.1-4.1s4.1,1.4,4.1,4.1v7.5h-5.7v6.2c0,1.5,0.5,2.2,1.6,2.2
		S163.4,47.3,163.4,45.8L163.4,45.8z"/>
	<path class="st2" d="M168.7,49.8V28.2h2.3v1.5h0.1c0.8-1.2,1.9-1.7,3.3-1.7v2.5c-1.2,0-2,0.2-2.5,0.8c-0.5,0.5-0.7,1.3-0.7,2.4
		v16.2L168.7,49.8L168.7,49.8z"/>
	<path class="st2" d="M181.8,34.6v-3.2c0-1-0.4-1.5-1.3-1.5s-1.3,0.5-1.3,1.5v2.4c0,0.6,0.3,1.3,0.9,2.1l3.1,4.3
		c0.6,0.8,0.9,1.6,0.9,2.4v3.6c0,2.4-1.2,3.6-3.7,3.6s-3.6-1.1-3.6-3.4v-3.8h2.4v3.3c0,1.2,0.4,1.8,1.2,1.8s1.2-0.6,1.2-1.9v-2.6
		c0-0.8-0.3-1.5-0.9-2.4l-2.8-3.8c-0.8-1-1.1-2-1.1-2.9v-2.8c0-1.2,0.4-2.1,1.1-2.7s1.6-1,2.8-1s2.1,0.4,2.7,1.1
		c0.5,0.5,0.8,1.2,0.8,2v3.6L181.8,34.6L181.8,34.6z"/>
	<path class="st2" d="M187.3,49.8V28.2h2.4v21.5C189.7,49.8,187.3,49.8,187.3,49.8z M187.2,24.2v-3h2.6v3H187.2z"/>
	<path class="st2" d="M193.3,28.2v-2.9l2.4-1v3.8h1.7v2h-1.7v16.4c0,0.8,0.4,1.2,1.2,1.2h0.5v2h-1.2c-2,0-3-0.9-3-2.7V30.2H192v-2
		L193.3,28.2L193.3,28.2z"/>
	<path class="st2" d="M205.1,45.8v-7.4c-0.8,0-1.5,0.2-2.1,0.5c-0.8,0.4-1.1,1-1.1,1.9v4.9c0,1.6,0.5,2.4,1.5,2.4
		C204.6,48,205.1,47.3,205.1,45.8z M205.1,36.4v-4.7c0-1.2-0.5-1.8-1.4-1.8c-1.1,0-1.6,0.7-1.6,2.1v2h-2.4v-2.5
		c0-1.1,0.4-1.9,1.2-2.6c0.8-0.7,1.8-1,2.9-1c2.5,0,3.8,1.2,3.8,3.8v18h-2.3v-1.2h-0.1c-0.7,0.9-1.7,1.4-2.9,1.4
		c-1.9,0-2.9-1.2-2.9-3.6v-5.8C199.5,37.8,201.4,36.4,205.1,36.4L205.1,36.4z"/>
	<path class="st2" d="M210.8,28.2v-2.9l2.4-1v3.8h1.7v2h-1.7v16.4c0,0.8,0.4,1.2,1.2,1.2h0.5v2h-1.2c-2,0-3-0.9-3-2.7V30.2h-1.2v-2
		L210.8,28.2L210.8,28.2z"/>
	<path class="st2" d="M222.7,37.4v-5.3c0-1.5-0.5-2.2-1.6-2.2s-1.6,0.7-1.6,2.2v5.3H222.7L222.7,37.4z M222.7,45.8v-3h2.4v3
		c0,2.8-1.4,4.2-4.1,4.2s-4.1-1.4-4.1-4.2V32.1c0-2.8,1.4-4.1,4.1-4.1s4.1,1.4,4.1,4.1v7.5h-5.7v6.2c0,1.5,0.5,2.2,1.6,2.2
		S222.7,47.3,222.7,45.8L222.7,45.8z"/>
	<path class="st2" d="M233.7,45.8v-7.4c-0.8,0-1.5,0.2-2.1,0.5c-0.8,0.4-1.1,1-1.1,1.9v4.9c0,1.6,0.5,2.4,1.5,2.4
		C233.2,48,233.7,47.3,233.7,45.8z M233.7,36.4v-4.7c0-1.2-0.5-1.8-1.4-1.8c-1.1,0-1.6,0.7-1.6,2.1v2h-2.4v-2.5
		c0-1.1,0.4-1.9,1.2-2.6c0.8-0.7,1.8-1,2.9-1c2.5,0,3.8,1.2,3.8,3.8v18h-2.3v-1.2h-0.1c-0.7,0.9-1.7,1.4-2.9,1.4
		c-1.9,0-2.9-1.2-2.9-3.6v-5.8C228,37.8,229.9,36.4,233.7,36.4L233.7,36.4z"/>
</g>
</svg>
