<?xml version="1.0" encoding="utf-8"?>
<!-- Generator: Adobe Illustrator 16.0.0, SVG Export Plug-In . SVG Version: 6.00 Build 0)  -->
<!DOCTYPE svg PUBLIC "-//W3C//DTD SVG 1.1//EN" "http://www.w3.org/Graphics/SVG/1.1/DTD/svg11.dtd">
<svg version="1.1" id="Layer_1" xmlns="http://www.w3.org/2000/svg" xmlns:xlink="http://www.w3.org/1999/xlink" x="0px" y="0px"
	 width="696.302px" height="80.843px" viewBox="0 0 696.302 80.843" enable-background="new 0 0 696.302 80.843"
	 xml:space="preserve">
<polygon fill-rule="evenodd" clip-rule="evenodd" points="0,1.684 0,79.217 27.076,79.217 27.076,48.264 69.973,48.264 
	69.973,79.217 97.212,79.217 97.212,1.684 69.973,1.684 69.973,29.385 27.076,29.385 27.076,1.684 "/>
<polygon fill-rule="evenodd" clip-rule="evenodd" points="276.676,79.217 261.674,79.217 238.964,22.723 238.964,79.217 
	214.445,79.217 214.445,1.684 257.01,1.684 276.676,51.51 296.336,1.684 338.914,1.684 338.914,79.217 314.408,79.217 
	314.408,22.723 291.509,79.217 "/>
<polygon fill-rule="evenodd" clip-rule="evenodd" points="599.468,1.646 599.754,79.335 624.079,79.335 624.079,29.496 
	661.257,79.335 696.302,79.335 696.302,1.809 670.203,1.809 670.203,49.631 633.563,1.659 "/>
<polygon fill-rule="evenodd" clip-rule="evenodd" points="438.541,1.684 438.541,21.526 462.213,21.526 462.213,79.217 
	489.764,79.217 489.764,21.526 513.289,21.526 513.289,1.684 "/>
<polygon fill-rule="evenodd" clip-rule="evenodd" points="382.238,1.684 382.238,79.217 455.106,79.217 455.106,56.525 
	409.8,56.525 409.8,1.684 "/>
<rect x="347.165" y="1.682" fill-rule="evenodd" clip-rule="evenodd" width="27.238" height="77.532"/>
<path fill-rule="evenodd" clip-rule="evenodd" d="M593.249,40.412c0,22.327-18.099,40.431-40.425,40.431
	c-22.321,0-40.419-18.104-40.419-40.431C512.405,18.085,530.502,0,552.824,0C575.15,0,593.249,18.085,593.249,40.412
	 M582.072,57.639l-0.097,0.656c-0.346,2.42-8.016,9.674-14.163,9.674c-0.572,0-1.131-0.058-1.652-0.182l-5.562,7.755l-1.945-1.432
	l5.315-7.729c-1.626-1.599-2.452-3.623-2.452-6.016v-2.388l0.293-2.817c0.148-1.626,0.786-6.617,0.957-7.91l-10.371,1.313
	C549.987,58.322,540.58,62.7,532.273,62.7c-4.457,0-8.269-1.301-9.96-3.39c-0.872-1.079-1.165-2.31-0.872-3.656
	c0.722-3.266,1.327-3.948,2.244-4.983c0.164-0.188,0.339-0.383,0.527-0.611c1.255-1.51,2.191-2.101,4.371-3.142
	c2.544-1.217,7.28-1.587,7.475-1.607l11.255-1.359l1.19-7.891c0.046-0.234,1.151-5.452,1.803-7.293
	c0.209-0.599,0.65-1.997,1.157-3.611c1.054-3.376,1.927-6.121,2.395-7.305c-0.384,0.117-0.898,0.26-1.496,0.429
	c-1.659,0.475-3.923,1.119-5.575,1.718c-1.113,0.416-4.164,0.624-9.05,0.624c-3.116,0-5.854-0.091-5.881-0.091
	c-0.065-0.013-0.091-0.013-0.123-0.013c-0.755,0-3.136,0.983-3.598,2.069c-0.144,0.345-0.072,0.65,0.228,0.962
	c1.152,1.094,6.193,2.655,9.869,3.793c4.566,1.412,5.256,1.685,5.275,2.082c0.008,0.052,0,0.228-0.215,0.319
	c-0.942,0.676-4.69,2.244-5.094,2.244l-0.078-0.013c-0.046-0.013-0.175-0.052-0.396-0.11c-5.471-1.555-12.276-3.904-13.597-6.291
	c-0.24-0.429-0.3-0.852-0.183-1.256c0.898-2.901,2.935-4.71,3.475-5.152v-0.007c0.007-0.175,0.032-0.644,2.654-2.003
	c3.643-1.861,4.703-1.776,4.984-1.711l13.966-0.189l10.363-0.546l-0.117,0.338c-0.032,0.111-3.682,10.981-4.651,14.377
	c-0.755,3.175-1.776,12.082-1.972,13.844l10.878-1.308c0.396-1.25,3.168-10.006,3.617-12.81c0.345-1.627,1.294-4.404,2.212-7.098
	c0.839-2.446,1.626-4.768,1.789-5.738l0.025-0.136l4.938-1.815l0.104,0.097c7.13,6.22,2.062,19.673-0.273,23.895
	c-3.253,6.161-6.238,7.455-7.838,8.15c-0.482,0.208-0.834,0.365-0.983,0.561c-0.774,3.513-0.826,5.38-0.65,7.403
	c0,2.367,0.657,4.353,1.814,5.517l7.319-11.365l1.718,1.321l-7.307,11.469c0.469,0.234,1.478,0.65,2.974,0.65
	c2.693,0,5.588-1.34,8.587-3.987L582.072,57.639z M573.725,34.83c2.576-5.302,2.635-8.424,2.479-11.163
	c-0.13-4.008-2.413-4.489-3.077-4.541l-5.263,21.644C569.322,39.507,573.075,36.164,573.725,34.83 M546.787,49.064
	c-0.241,0-0.638,0.053-1.165,0.148c-2.479,0.509-13.72,1.653-14.195,1.705c-0.279,0.006-6.401,0.215-6.908,5.823l-0.02,0.208
	c-0.059,0.605-0.131,1.353,0.429,1.965c0.762,0.838,2.551,1.269,5.309,1.269c2.583,0,9.901-1.015,12.68-3.514
	c3.103-2.569,3.812-6.85,3.91-7.604H546.787z"/>
<path fill-rule="evenodd" clip-rule="evenodd" d="M141.186,1.855L99.434,79.218h28.54l7.917-14.116c0.149,0.143,37.907,0,37.907,0
	l7.696,14.116h29.177L170.058,1.855H141.186 M155.543,24.435l-10.962,23.206h21.923L155.543,24.435z"/>
</svg>
